500.ufo
<glyph name="exclam" format="2">
  <advance width="317"/>
  <unicode hex="0021"/>
  <outline>
    <contour>
      <point x="91" y="700" type="line"/>
      <point x="226" y="700" type="line"/>
      <point x="201" y="212" type="line"/>
      <point x="116" y="212" type="line"/>
    </contour>
    <contour>
      <point x="88" y="49" type="curve" smooth="yes"/>
      <point x="88" y="87"/>
      <point x="119" y="116"/>
      <point x="159" y="116" type="curve" smooth="yes"/>
      <point x="199" y="116"/>
      <point x="229" y="87"/>
      <point x="229" y="49" type="curve" smooth="yes"/>
      <point x="229" y="11"/>
      <point x="199" y="-19"/>
      <point x="159" y="-19" type="curve" smooth="yes"/>
      <point x="119" y="-19"/>
      <point x="88" y="11"/>
    </contour>
  </outline>
</glyph>
<glyph name="quotedbl" format="2">
  <advance width="486"/>
  <unicode hex="0022"/>
  <outline>
    <contour>
      <point x="120" y="700" type="line"/>
      <point x="241" y="700" type="line"/>
      <point x="145" y="392" type="line"/>
      <point x="72" y="392" type="line"/>
    </contour>
    <contour>
      <point x="312" y="700" type="line"/>
      <point x="434" y="700" type="line"/>
      <point x="337" y="392" type="line"/>
      <point x="265" y="392" type="line"/>
    </contour>
  </outline>
</glyph>
<glyph name="dollar" format="2">
  <advance width="596"/>
  <unicode hex="0024"/>
  <outline>
    <contour>
      <point x="260" y="818" type="line"/>
      <point x="354" y="818" type="line"/>
      <point x="352" y="656" type="line"/>
      <point x="263" y="656" type="line"/>
    </contour>
    <contour>
      <point x="263" y="54" type="line"/>
      <point x="351" y="54" type="line"/>
      <point x="354" y="-112" type="line"/>
      <point x="260" y="-112" type="line"/>
    </contour>
    <contour>
      <point x="444" y="504" type="line"/>
      <point x="414" y="562"/>
      <point x="374" y="611"/>
      <point x="307" y="611" type="curve" smooth="yes"/>
      <point x="237" y="611"/>
      <point x="207" y="580"/>
      <point x="207" y="529" type="curve" smooth="yes"/>
      <point x="207" y="460"/>
      <point x="283" y="435"/>
      <point x="368" y="403" type="curve" smooth="yes"/>
      <point x="450" y="373"/>
      <point x="545" y="317"/>
      <point x="545" y="192" type="curve" smooth="yes"/>
      <point x="545" y="68"/>
      <point x="459" y="-10"/>
      <point x="310" y="-10" type="curve" smooth="yes"/>
      <point x="190" y="-10"/>
      <point x="90" y="70"/>
      <point x="46" y="177" type="curve"/>
      <point x="137" y="236" type="line"/>
      <point x="181" y="145"/>
      <point x="233" y="92"/>
      <point x="315" y="92" type="curve" smooth="yes"/>
      <point x="387" y="92"/>
      <point x="421" y="127"/>
      <point x="421" y="187" type="curve" smooth="yes"/>
      <point x="421" y="263"/>
      <point x="346" y="294"/>
      <point x="265" y="324" type="curve" smooth="yes"/>
      <point x="195" y="349"/>
      <point x="84" y="401"/>
      <point x="84" y="532" type="curve" smooth="yes"/>
      <point x="84" y="630"/>
      <point x="178" y="710"/>
      <point x="304" y="710" type="curve" smooth="yes"/>
      <point x="429" y="710"/>
      <point x="502" y="634"/>
      <point x="536" y="561" type="curve"/>
    </contour>
  </outline>
</glyph>
<glyph name="period" format="2">
  <advance width="308"/>
  <unicode hex="002E"/>
  <outline>
    <contour>
      <point x="84" y="51" type="curve" smooth="yes"/>
      <point x="84" y="89"/>
      <point x="114" y="121"/>
      <point x="154" y="121" type="curve" smooth="yes"/>
      <point x="194" y="121"/>
      <point x="225" y="89"/>
      <point x="225" y="51" type="curve" smooth="yes"/>
      <point x="225" y="13"/>
      <point x="194" y="-19"/>
      <point x="154" y="-19" type="curve" smooth="yes"/>
      <point x="114" y="-19"/>
      <point x="84" y="13"/>
    </contour>
  </outline>
</glyph>
<glyph name="one" format="2">
  <advance width="473"/>
  <unicode hex="0031"/>
  <outline>
    <contour>
      <point x="75" y="536" type="line"/>
      <point x="75" y="648" type="line"/>
      <point x="354" y="711" type="line"/>
      <point x="354" y="0" type="line"/>
      <point x="237" y="0" type="line"/>
      <point x="237" y="581" type="line"/>
    </contour>
  </outline>
</glyph>
<glyph name="two" format="2">
  <advance width="603"/>
  <unicode hex="0032"/>
  <outline>
    <contour>
      <point x="20" y="0" type="line"/>
      <point x="343" y="341" type="line" smooth="yes"/>
      <point x="393" y="394"/>
      <point x="423" y="440"/>
      <point x="423" y="496" type="curve" smooth="yes"/>
      <point x="423" y="551"/>
      <point x="381" y="606"/>
      <point x="304" y="606" type="curve" smooth="yes"/>
      <point x="224" y="606"/>
      <point x="175" y="546"/>
      <point x="175" y="452" type="curve"/>
      <point x="58" y="452" type="line"/>
      <point x="58" y="601"/>
      <point x="146" y="712"/>
      <point x="306" y="712" type="curve" smooth="yes"/>
      <point x="468" y="712"/>
      <point x="545" y="595"/>
      <point x="545" y="502" type="curve" smooth="yes"/>
      <point x="545" y="429"/>
      <point x="506" y="359"/>
      <point x="449" y="305" type="curve" smooth="yes"/>
      <point x="251" y="110" type="line"/>
      <point x="554" y="110" type="line"/>
      <point x="554" y="0" type="line"/>
    </contour>
  </outline>
</glyph>
<glyph name="four" format="2">
  <advance width="629"/>
  <unicode hex="0034"/>
  <outline>
    <contour>
      <point x="18" y="134" type="line"/>
      <point x="413" y="700" type="line"/>
      <point x="484" y="700" type="line"/>
      <point x="484" y="0" type="line"/>
      <point x="363" y="0" type="line"/>
      <point x="363" y="176" type="line"/>
      <point x="370" y="187" type="line"/>
      <point x="370" y="489" type="line"/>
      <point x="191" y="227" type="line"/>
      <point x="434" y="227" type="line"/>
      <point x="451" y="236" type="line"/>
      <point x="594" y="236" type="line"/>
      <point x="594" y="134" type="line"/>
    </contour>
  </outline>
</glyph>
<glyph name="five" format="2">
  <advance width="596"/>
  <unicode hex="0035"/>
  <outline>
    <contour>
      <point x="556" y="228" type="curve" smooth="yes"/>
      <point x="556" y="67"/>
      <point x="432" y="-11"/>
      <point x="297" y="-11" type="curve" smooth="yes"/>
      <point x="168" y="-11"/>
      <point x="89" y="45"/>
      <point x="35" y="113" type="curve"/>
      <point x="104" y="198" type="line"/>
      <point x="145" y="143"/>
      <point x="214" y="99"/>
      <point x="281" y="99" type="curve" smooth="yes"/>
      <point x="375" y="99"/>
      <point x="430" y="150"/>
      <point x="430" y="235" type="curve" smooth="yes"/>
      <point x="430" y="320"/>
      <point x="362" y="370"/>
      <point x="281" y="370" type="curve" smooth="yes"/>
      <point x="219" y="370"/>
      <point x="166" y="359"/>
      <point x="95" y="315" type="curve"/>
      <point x="190" y="700" type="line"/>
      <point x="550" y="700" type="line"/>
      <point x="550" y="596" type="line"/>
      <point x="279" y="596" type="line"/>
      <point x="235" y="436" type="line"/>
      <point x="270" y="453"/>
      <point x="307" y="461"/>
      <point x="346" y="461" type="curve" smooth="yes"/>
      <point x="462" y="461"/>
      <point x="556" y="369"/>
    </contour>
  </outline>
</glyph>
<glyph name="six" format="2">
  <advance width="613"/>
  <unicode hex="0036"/>
  <outline>
    <contour>
      <point x="165" y="236" type="curve" smooth="yes"/>
      <point x="165" y="150"/>
      <point x="226" y="91"/>
      <point x="307" y="91" type="curve" smooth="yes"/>
      <point x="388" y="91"/>
      <point x="448" y="150"/>
      <point x="448" y="236" type="curve" smooth="yes"/>
      <point x="448" y="322"/>
      <point x="388" y="383"/>
      <point x="307" y="383" type="curve" smooth="yes"/>
      <point x="226" y="383"/>
      <point x="165" y="322"/>
    </contour>
    <contour>
      <point x="331" y="699" type="line"/>
      <point x="481" y="699" type="line"/>
      <point x="259" y="424" type="line"/>
      <point x="242" y="421" type="line"/>
      <point x="273" y="455"/>
      <point x="306" y="463"/>
      <point x="353" y="463" type="curve" smooth="yes"/>
      <point x="463" y="463"/>
      <point x="564" y="370"/>
      <point x="564" y="236" type="curve" smooth="yes"/>
      <point x="564" y="81"/>
      <point x="451" y="-12"/>
      <point x="307" y="-12" type="curve" smooth="yes"/>
      <point x="163" y="-12"/>
      <point x="50" y="81"/>
      <point x="50" y="236" type="curve" smooth="yes"/>
      <point x="50" y="301"/>
      <point x="74" y="356"/>
      <point x="109" y="401" type="curve" smooth="yes"/>
    </contour>
  </outline>
</glyph>
<glyph name="eight" format="2">
  <advance width="578"/>
  <unicode hex="0038"/>
  <outline>
    <contour>
      <point x="79" y="531" type="curve" smooth="yes"/>
      <point x="79" y="638"/>
      <point x="171" y="712"/>
      <point x="289" y="712" type="curve" smooth="yes"/>
      <point x="407" y="712"/>
      <point x="500" y="638"/>
      <point x="500" y="531" type="curve" smooth="yes"/>
      <point x="500" y="414"/>
      <point x="404" y="350"/>
      <point x="289" y="350" type="curve" smooth="yes"/>
      <point x="174" y="350"/>
      <point x="79" y="414"/>
    </contour>
    <contour>
      <point x="191" y="519" type="curve" smooth="yes"/>
      <point x="191" y="461"/>
      <point x="235" y="420"/>
      <point x="289" y="420" type="curve" smooth="yes"/>
      <point x="343" y="420"/>
      <point x="387" y="461"/>
      <point x="387" y="519" type="curve" smooth="yes"/>
      <point x="387" y="577"/>
      <point x="346" y="619"/>
      <point x="289" y="619" type="curve" smooth="yes"/>
      <point x="232" y="619"/>
      <point x="191" y="577"/>
    </contour>
    <contour>
      <point x="54" y="190" type="curve" smooth="yes"/>
      <point x="54" y="327"/>
      <point x="174" y="392"/>
      <point x="289" y="392" type="curve" smooth="yes"/>
      <point x="404" y="392"/>
      <point x="525" y="327"/>
      <point x="525" y="190" type="curve" smooth="yes"/>
      <point x="525" y="73"/>
      <point x="419" y="-12"/>
      <point x="289" y="-12" type="curve" smooth="yes"/>
      <point x="159" y="-12"/>
      <point x="54" y="73"/>
    </contour>
    <contour>
      <point x="170" y="206" type="curve" smooth="yes"/>
      <point x="170" y="130"/>
      <point x="227" y="87"/>
      <point x="289" y="87" type="curve" smooth="yes"/>
      <point x="351" y="87"/>
      <point x="409" y="130"/>
      <point x="409" y="206" type="curve" smooth="yes"/>
      <point x="409" y="272"/>
      <point x="351" y="324"/>
      <point x="289" y="324" type="curve" smooth="yes"/>
      <point x="227" y="324"/>
      <point x="170" y="272"/>
    </contour>
  </outline>
</glyph>
<glyph name="colon" format="2">
  <advance width="308"/>
  <unicode hex="003A"/>
  <outline>
    <contour>
      <point x="84" y="51" type="curve" smooth="yes"/>
      <point x="84" y="89"/>
      <point x="114" y="121"/>
      <point x="154" y="121" type="curve" smooth="yes"/>
      <point x="194" y="121"/>
      <point x="225" y="89"/>
      <point x="225" y="51" type="curve" smooth="yes"/>
      <point x="225" y="13"/>
      <point x="194" y="-19"/>
      <point x="154" y="-19" type="curve" smooth="yes"/>
      <point x="114" y="-19"/>
      <point x="84" y="13"/>
    </contour>
    <contour>
      <point x="84" y="429" type="curve" smooth="yes"/>
      <point x="84" y="467"/>
      <point x="114" y="499"/>
      <point x="154" y="499" type="curve" smooth="yes"/>
      <point x="194" y="499"/>
      <point x="225" y="467"/>
      <point x="225" y="429" type="curve" smooth="yes"/>
      <point x="225" y="391"/>
      <point x="194" y="359"/>
      <point x="154" y="359" type="curve" smooth="yes"/>
      <point x="114" y="359"/>
      <point x="84" y="391"/>
    </contour>
  </outline>
</glyph>
<glyph name="question" format="2">
  <advance width="585"/>
  <unicode hex="003F"/>
  <outline>
    <contour>
      <point x="418" y="500" type="curve" smooth="yes"/>
      <point x="418" y="575"/>
      <point x="367" y="617"/>
      <point x="285" y="617" type="curve" smooth="yes"/>
      <point x="220" y="617"/>
      <point x="168" y="585"/>
      <point x="135" y="533" type="curve"/>
      <point x="55" y="591" type="line"/>
      <point x="111" y="666"/>
      <point x="176" y="714"/>
      <point x="295" y="714" type="curve" smooth="yes"/>
      <point x="422" y="714"/>
      <point x="527" y="627"/>
      <point x="527" y="500" type="curve" smooth="yes"/>
      <point x="527" y="382"/>
      <point x="424" y="299"/>
      <point x="315" y="288" type="curve"/>
      <point x="308" y="182" type="line"/>
      <point x="224" y="182" type="line"/>
      <point x="204" y="359" type="line"/>
      <point x="232" y="359" type="line" smooth="yes"/>
      <point x="352" y="359"/>
      <point x="418" y="434"/>
    </contour>
    <contour>
      <point x="197" y="48" type="curve" smooth="yes"/>
      <point x="197" y="84"/>
      <point x="228" y="114"/>
      <point x="268" y="114" type="curve" smooth="yes"/>
      <point x="308" y="114"/>
      <point x="338" y="84"/>
      <point x="338" y="48" type="curve" smooth="yes"/>
      <point x="338" y="12"/>
      <point x="308" y="-19"/>
      <point x="268" y="-19" type="curve" smooth="yes"/>
      <point x="228" y="-19"/>
      <point x="197" y="12"/>
    </contour>
  </outline>
</glyph>
<glyph name="at" format="2">
  <advance width="770"/>
  <unicode hex="0040"/>
  <outline>
    <contour>
      <point x="286" y="320" type="curve" smooth="yes"/>
      <point x="286" y="269"/>
      <point x="308" y="239"/>
      <point x="353" y="239" type="curve" smooth="yes"/>
      <point x="397" y="239"/>
      <point x="453" y="277"/>
      <point x="453" y="368" type="curve" smooth="yes"/>
      <point x="453" y="420"/>
      <point x="423" y="449"/>
      <point x="382" y="449" type="curve" smooth="yes"/>
      <point x="333" y="449"/>
      <point x="286" y="396"/>
    </contour>
    <contour>
      <point x="192" y="315" type="curve" smooth="yes"/>
      <point x="192" y="454"/>
      <point x="287" y="530"/>
      <point x="370" y="530" type="curve" smooth="yes"/>
      <point x="450" y="530"/>
      <point x="493" y="451"/>
      <point x="493" y="370" type="curve" smooth="yes"/>
      <point x="493" y="231"/>
      <point x="418" y="158"/>
      <point x="328" y="158" type="curve" smooth="yes"/>
      <point x="252" y="158"/>
      <point x="192" y="216"/>
    </contour>
    <contour>
      <point x="29" y="320" type="curve" smooth="yes"/>
      <point x="29" y="541"/>
      <point x="189" y="715"/>
      <point x="415" y="715" type="curve" smooth="yes"/>
      <point x="629" y="715"/>
      <point x="741" y="551"/>
      <point x="741" y="390" type="curve" smooth="yes"/>
      <point x="741" y="213"/>
      <point x="640" y="148"/>
      <point x="557" y="148" type="curve" smooth="yes"/>
      <point x="494" y="148"/>
      <point x="448" y="202"/>
      <point x="458" y="268" type="curve"/>
      <point x="449" y="280" type="line"/>
      <point x="480" y="520" type="line"/>
      <point x="572" y="520" type="line"/>
      <point x="537" y="297" type="line" smooth="yes"/>
      <point x="536" y="290"/>
      <point x="535" y="278"/>
      <point x="535" y="270" type="curve" smooth="yes"/>
      <point x="535" y="246"/>
      <point x="540" y="226"/>
      <point x="568" y="226" type="curve" smooth="yes"/>
      <point x="596" y="226"/>
      <point x="655" y="266"/>
      <point x="655" y="390" type="curve" smooth="yes"/>
      <point x="655" y="521"/>
      <point x="575" y="636"/>
      <point x="415" y="636" type="curve" smooth="yes"/>
      <point x="232" y="636"/>
      <point x="115" y="501"/>
      <point x="115" y="320" type="curve" smooth="yes"/>
      <point x="115" y="162"/>
      <point x="210" y="63"/>
      <point x="370" y="63" type="curve" smooth="yes"/>
      <point x="440" y="63"/>
      <point x="501" y="74"/>
      <point x="564" y="111" type="curve"/>
      <point x="600" y="41" type="line"/>
      <point x="540" y="6"/>
      <point x="474" y="-16"/>
      <point x="365" y="-16" type="curve" smooth="yes"/>
      <point x="146" y="-16"/>
      <point x="29" y="121"/>
    </contour>
  </outline>
</glyph>
<glyph name="A" format="2">
  <advance width="690"/>
  <unicode hex="0041"/>
  <outline>
    <contour>
      <point x="162" y="180" type="line"/>
      <point x="185" y="280" type="line"/>
      <point x="509" y="280" type="line"/>
      <point x="532" y="180" type="line"/>
    </contour>
    <contour>
      <point x="345" y="502" type="line"/>
      <point x="235" y="245" type="line"/>
      <point x="233" y="219" type="line"/>
      <point x="136" y="0" type="line"/>
      <point x="3" y="0" type="line"/>
      <point x="345" y="739" type="line"/>
      <point x="687" y="0" type="line"/>
      <point x="554" y="0" type="line"/>
      <point x="459" y="213" type="line"/>
      <point x="456" y="242" type="line"/>
    </contour>
  </outline>
</glyph>
<glyph name="B" format="2">
  <advance width="600"/>
  <unicode hex="0042"/>
  <outline>
    <contour>
      <point x="168" y="361" type="line"/>
      <point x="168" y="419" type="line"/>
      <point x="281" y="419" type="line" smooth="yes"/>
      <point x="346" y="419"/>
      <point x="392" y="453"/>
      <point x="392" y="511" type="curve" smooth="yes"/>
      <point x="392" y="569"/>
      <point x="346" y="603"/>
      <point x="281" y="603" type="curve" smooth="yes"/>
      <point x="196" y="603" type="line"/>
      <point x="196" y="97" type="line"/>
      <point x="294" y="97" type="line" smooth="yes"/>
      <point x="374" y="97"/>
      <point x="432" y="136"/>
      <point x="432" y="214" type="curve" smooth="yes"/>
      <point x="432" y="290"/>
      <point x="374" y="327"/>
      <point x="294" y="327" type="curve" smooth="yes"/>
      <point x="168" y="327" type="line"/>
      <point x="168" y="392" type="line"/>
      <point x="301" y="392" type="line" smooth="yes"/>
      <point x="436" y="392"/>
      <point x="553" y="336"/>
      <point x="553" y="202" type="curve" smooth="yes"/>
      <point x="553" y="63"/>
      <point x="448" y="0"/>
      <point x="301" y="0" type="curve" smooth="yes"/>
      <point x="78" y="0" type="line"/>
      <point x="78" y="700" type="line"/>
      <point x="289" y="700" type="line" smooth="yes"/>
      <point x="422" y="700"/>
      <point x="513" y="643"/>
      <point x="513" y="524" type="curve" smooth="yes"/>
      <point x="513" y="420"/>
      <point x="422" y="361"/>
      <point x="289" y="361" type="curve" smooth="yes"/>
    </contour>
  </outline>
</glyph>
<glyph name="D" format="2">
  <advance width="701"/>
  <unicode hex="0044"/>
  <outline>
    <contour>
      <point x="78" y="700" type="line"/>
      <point x="199" y="700" type="line"/>
      <point x="199" y="0" type="line"/>
      <point x="78" y="0" type="line"/>
    </contour>
    <contour>
      <point x="304" y="0" type="curve" smooth="yes"/>
      <point x="151" y="0" type="line"/>
      <point x="151" y="111" type="line"/>
      <point x="301" y="111" type="line" smooth="yes"/>
      <point x="439" y="111"/>
      <point x="543" y="192"/>
      <point x="543" y="350" type="curve" smooth="yes"/>
      <point x="543" y="508"/>
      <point x="439" y="589"/>
      <point x="301" y="589" type="curve" smooth="yes"/>
      <point x="151" y="589" type="line"/>
      <point x="151" y="700" type="line"/>
      <point x="304" y="700" type="line" smooth="yes"/>
      <point x="518" y="700"/>
      <point x="664" y="561"/>
      <point x="664" y="350" type="curve" smooth="yes"/>
      <point x="664" y="139"/>
      <point x="518" y="0"/>
    </contour>
  </outline>
</glyph>
<glyph name="J" format="2">
  <advance width="276"/>
  <unicode hex="004A"/>
  <outline>
    <contour>
      <point x="-69" y="-88" type="line"/>
      <point x="-53" y="-109"/>
      <point x="-23" y="-122"/>
      <point x="11" y="-122" type="curve" smooth="yes"/>
      <point x="41" y="-122"/>
      <point x="78" y="-100"/>
      <point x="78" y="-36" type="curve" smooth="yes"/>
      <point x="78" y="700" type="line"/>
      <point x="199" y="700" type="line"/>
      <point x="199" y="-58" type="line" smooth="yes"/>
      <point x="199" y="-177"/>
      <point x="121" y="-228"/>
      <point x="15" y="-228" type="curve" smooth="yes"/>
      <point x="-48" y="-228"/>
      <point x="-107" y="-197"/>
      <point x="-132" y="-175" type="curve"/>
    </contour>
  </outline>
</glyph>
<glyph name="P" format="2">
  <advance width="578"/>
  <unicode hex="0050"/>
  <outline>
    <contour>
      <point x="78" y="700" type="line"/>
      <point x="196" y="700" type="line"/>
      <point x="196" y="0" type="line"/>
      <point x="78" y="0" type="line"/>
    </contour>
    <contour>
      <point x="148" y="596" type="line"/>
      <point x="148" y="700" type="line"/>
      <point x="289" y="700" type="line" smooth="yes"/>
      <point x="442" y="700"/>
      <point x="540" y="616"/>
      <point x="540" y="482" type="curve" smooth="yes"/>
      <point x="540" y="348"/>
      <point x="442" y="265"/>
      <point x="289" y="265" type="curve" smooth="yes"/>
      <point x="148" y="265" type="line"/>
      <point x="148" y="369" type="line"/>
      <point x="289" y="369" type="line" smooth="yes"/>
      <point x="370" y="369"/>
      <point x="424" y="407"/>
      <point x="424" y="482" type="curve" smooth="yes"/>
      <point x="424" y="557"/>
      <point x="370" y="596"/>
      <point x="289" y="596" type="curve" smooth="yes"/>
    </contour>
  </outline>
</glyph>
<glyph name="S" format="2">
  <advance width="578"/>
  <unicode hex="0053"/>
  <outline>
    <contour>
      <point x="124" y="226" type="line"/>
      <point x="169" y="145"/>
      <point x="225" y="91"/>
      <point x="304" y="91" type="curve" smooth="yes"/>
      <point x="369" y="91"/>
      <point x="412" y="128"/>
      <point x="412" y="184" type="curve" smooth="yes"/>
      <point x="412" y="261"/>
      <point x="351" y="286"/>
      <point x="263" y="319" type="curve" smooth="yes"/>
      <point x="193" y="344"/>
      <point x="77" y="393"/>
      <point x="77" y="524" type="curve" smooth="yes"/>
      <point x="77" y="636"/>
      <point x="171" y="712"/>
      <point x="297" y="712" type="curve" smooth="yes"/>
      <point x="421" y="712"/>
      <point x="496" y="636"/>
      <point x="532" y="563" type="curve"/>
      <point x="436" y="509" type="line"/>
      <point x="407" y="560"/>
      <point x="366" y="607"/>
      <point x="295" y="607" type="curve" smooth="yes"/>
      <point x="230" y="607"/>
      <point x="200" y="571"/>
      <point x="200" y="532" type="curve" smooth="yes"/>
      <point x="200" y="477"/>
      <point x="246" y="443"/>
      <point x="359" y="404" type="curve" smooth="yes"/>
      <point x="443" y="375"/>
      <point x="537" y="316"/>
      <point x="537" y="194" type="curve" smooth="yes"/>
      <point x="537" y="64"/>
      <point x="423" y="-15"/>
      <point x="304" y="-15" type="curve" smooth="yes"/>
      <point x="181" y="-15"/>
      <point x="81" y="67"/>
      <point x="36" y="164" type="curve"/>
    </contour>
  </outline>
</glyph>
<glyph name="T" format="2">
  <advance width="503"/>
  <unicode hex="0054"/>
  <outline>
    <contour>
      <point x="8" y="591" type="line"/>
      <point x="8" y="700" type="line"/>
      <point x="496" y="700" type="line"/>
      <point x="496" y="591" type="line"/>
      <point x="311" y="591" type="line"/>
      <point x="311" y="0" type="line"/>
      <point x="192" y="0" type="line"/>
      <point x="192" y="591" type="line"/>
    </contour>
  </outline>
</glyph>
<glyph name="U" format="2">
  <advance width="656"/>
  <unicode hex="0055"/>
  <outline>
    <contour>
      <point x="73" y="700" type="line"/>
      <point x="191" y="700" type="line"/>
      <point x="191" y="235" type="line" smooth="yes"/>
      <point x="191" y="149"/>
      <point x="238" y="91"/>
      <point x="328" y="91" type="curve" smooth="yes"/>
      <point x="418" y="91"/>
      <point x="465" y="149"/>
      <point x="465" y="235" type="curve" smooth="yes"/>
      <point x="465" y="700" type="line"/>
      <point x="583" y="700" type="line"/>
      <point x="583" y="230" type="line" smooth="yes"/>
      <point x="583" y="76"/>
      <point x="478" y="-18"/>
      <point x="328" y="-18" type="curve" smooth="yes"/>
      <point x="178" y="-18"/>
      <point x="73" y="76"/>
      <point x="73" y="230" type="curve" smooth="yes"/>
    </contour>
  </outline>
</glyph>
<glyph name="V" format="2">
  <advance width="690"/>
  <unicode hex="0056"/>
  <outline>
    <contour>
      <point x="345" y="208" type="line"/>
      <point x="551" y="700" type="line"/>
      <point x="687" y="700" type="line"/>
      <point x="345" y="-39" type="line"/>
      <point x="3" y="700" type="line"/>
      <point x="139" y="700" type="line"/>
    </contour>
  </outline>
</glyph>
<glyph name="Y" format="2">
  <advance width="600"/>
  <unicode hex="0059"/>
  <outline>
    <contour>
      <point x="463" y="700" type="line"/>
      <point x="598" y="700" type="line"/>
      <point x="361" y="295" type="line"/>
      <point x="361" y="0" type="line"/>
      <point x="240" y="0" type="line"/>
      <point x="240" y="294" type="line"/>
      <point x="3" y="700" type="line"/>
      <point x="138" y="700" type="line"/>
      <point x="300" y="400" type="line"/>
    </contour>
  </outline>
</glyph>
<glyph name="bracketleft" format="2">
  <advance width="324"/>
  <unicode hex="005B"/>
  <outline>
    <contour>
      <point x="204" y="683" type="line"/>
      <point x="204" y="-123" type="line"/>
      <point x="305" y="-123" type="line"/>
      <point x="305" y="-220" type="line"/>
      <point x="96" y="-220" type="line"/>
      <point x="96" y="780" type="line"/>
      <point x="305" y="780" type="line"/>
      <point x="305" y="683" type="line"/>
    </contour>
  </outline>
</glyph>
<glyph name="backslash" format="2">
  <advance width="527"/>
  <unicode hex="005C"/>
  <outline>
    <contour>
      <point x="15" y="700" type="line"/>
      <point x="125" y="700" type="line"/>
      <point x="512" y="0" type="line"/>
      <point x="403" y="0" type="line"/>
    </contour>
  </outline>
</glyph>
<glyph name="bracketright" format="2">
  <advance width="324"/>
  <unicode hex="005D"/>
  <outline>
    <contour>
      <point x="121" y="-123" type="line"/>
      <point x="121" y="683" type="line"/>
      <point x="20" y="683" type="line"/>
      <point x="20" y="780" type="line"/>
      <point x="229" y="780" type="line"/>
      <point x="229" y="-220" type="line"/>
      <point x="20" y="-220" type="line"/>
      <point x="20" y="-123" type="line"/>
    </contour>
  </outline>
</glyph>
<glyph name="asciicircum" format="2">
  <advance width="510"/>
  <unicode hex="005E"/>
  <outline>
    <contour>
      <point x="255" y="605" type="line"/>
      <point x="157" y="455" type="line"/>
      <point x="55" y="455" type="line"/>
      <point x="225" y="710" type="line"/>
      <point x="285" y="710" type="line"/>
      <point x="455" y="455" type="line"/>
      <point x="353" y="455" type="line"/>
    </contour>
  </outline>
</glyph>
<glyph name="a" format="2">
  <advance width="504"/>
  <unicode hex="0061"/>
  <outline>
    <contour>
      <point x="137" y="143" type="curve" smooth="yes"/>
      <point x="137" y="97"/>
      <point x="173" y="71"/>
      <point x="223" y="71" type="curve" smooth="yes"/>
      <point x="287" y="71"/>
      <point x="341" y="112"/>
      <point x="341" y="182" type="curve"/>
      <point x="357" y="122" type="line"/>
      <point x="357" y="34"/>
      <point x="269" y="-10"/>
      <point x="189" y="-10" type="curve" smooth="yes"/>
      <point x="102" y="-10"/>
      <point x="28" y="43"/>
      <point x="28" y="137" type="curve" smooth="yes"/>
      <point x="28" y="226"/>
      <point x="94" y="283"/>
      <point x="208" y="283" type="curve" smooth="yes"/>
      <point x="300" y="283"/>
      <point x="355" y="246"/>
      <point x="374" y="225" type="curve"/>
      <point x="374" y="170" type="line"/>
      <point x="333" y="199"/>
      <point x="286" y="212"/>
      <point x="234" y="212" type="curve" smooth="yes"/>
      <point x="166" y="212"/>
      <point x="137" y="186"/>
    </contour>
    <contour>
      <point x="103" y="340" type="curve"/>
      <point x="59" y="416" type="line"/>
      <point x="101" y="441"/>
      <point x="167" y="471"/>
      <point x="253" y="471" type="curve" smooth="yes"/>
      <point x="366" y="471"/>
      <point x="447" y="419"/>
      <point x="447" y="328" type="curve" smooth="yes"/>
      <point x="447" y="0" type="line"/>
      <point x="341" y="0" type="line"/>
      <point x="341" y="307" type="line" smooth="yes"/>
      <point x="341" y="363"/>
      <point x="300" y="383"/>
      <point x="243" y="383" type="curve" smooth="yes"/>
      <point x="177" y="383"/>
      <point x="123" y="354"/>
    </contour>
  </outline>
</glyph>
<glyph name="d" format="2">
  <advance width="588"/>
  <unicode hex="0064"/>
  <outline>
    <contour>
      <point x="415" y="780" type="line"/>
      <point x="524" y="780" type="line"/>
      <point x="524" y="0" type="line"/>
      <point x="415" y="0" type="line"/>
    </contour>
    <contour>
      <point x="34" y="230" type="curve" smooth="yes"/>
      <point x="34" y="381"/>
      <point x="138" y="470"/>
      <point x="258" y="470" type="curve" smooth="yes"/>
      <point x="373" y="470"/>
      <point x="454" y="379"/>
      <point x="454" y="230" type="curve" smooth="yes"/>
      <point x="454" y="81"/>
      <point x="373" y="-10"/>
      <point x="258" y="-10" type="curve" smooth="yes"/>
      <point x="138" y="-10"/>
      <point x="34" y="79"/>
    </contour>
    <contour>
      <point x="146" y="230" type="curve" smooth="yes"/>
      <point x="146" y="138"/>
      <point x="209" y="84"/>
      <point x="284" y="84" type="curve" smooth="yes"/>
      <point x="346" y="84"/>
      <point x="415" y="136"/>
      <point x="415" y="230" type="curve" smooth="yes"/>
      <point x="415" y="324"/>
      <point x="346" y="376"/>
      <point x="284" y="376" type="curve" smooth="yes"/>
      <point x="209" y="376"/>
      <point x="146" y="322"/>
    </contour>
  </outline>
</glyph>
<glyph name="e" format="2">
  <advance width="538"/>
  <unicode hex="0065"/>
  <outline>
    <contour>
      <point x="269" y="-10" type="curve" smooth="yes"/>
      <point x="127" y="-10"/>
      <point x="34" y="86"/>
      <point x="34" y="230" type="curve" smooth="yes"/>
      <point x="34" y="375"/>
      <point x="128" y="470"/>
      <point x="274" y="470" type="curve" smooth="yes"/>
      <point x="419" y="470"/>
      <point x="504" y="382"/>
      <point x="504" y="235" type="curve" smooth="yes"/>
      <point x="504" y="223"/>
      <point x="503" y="210"/>
      <point x="503" y="205" type="curve"/>
      <point x="98" y="205" type="line"/>
      <point x="98" y="280" type="line"/>
      <point x="410" y="280" type="line"/>
      <point x="376" y="234" type="line"/>
      <point x="381" y="242"/>
      <point x="387" y="258"/>
      <point x="387" y="267" type="curve" smooth="yes"/>
      <point x="387" y="340"/>
      <point x="341" y="388"/>
      <point x="273" y="388" type="curve" smooth="yes"/>
      <point x="191" y="388"/>
      <point x="145" y="334"/>
      <point x="144" y="234" type="curve" smooth="yes"/>
      <point x="143" y="136"/>
      <point x="190" y="79"/>
      <point x="274" y="79" type="curve" smooth="yes"/>
      <point x="332" y="79"/>
      <point x="376" y="102"/>
      <point x="406" y="152" type="curve"/>
      <point x="500" y="115" type="line"/>
      <point x="452" y="32"/>
      <point x="375" y="-10"/>
    </contour>
  </outline>
</glyph>
<glyph name="f" format="2">
  <advance width="309"/>
  <unicode hex="0066"/>
  <outline>
    <contour>
      <point x="31" y="460" type="line"/>
      <point x="295" y="460" type="line"/>
      <point x="295" y="365" type="line"/>
      <point x="31" y="365" type="line"/>
    </contour>
    <contour>
      <point x="284" y="664" type="line"/>
      <point x="270" y="685"/>
      <point x="252" y="690"/>
      <point x="235" y="690" type="curve" smooth="yes"/>
      <point x="205" y="690"/>
      <point x="187" y="667"/>
      <point x="187" y="609" type="curve" smooth="yes"/>
      <point x="187" y="0" type="line"/>
      <point x="81" y="0" type="line"/>
      <point x="81" y="630" type="line" smooth="yes"/>
      <point x="81" y="737"/>
      <point x="134" y="792"/>
      <point x="230" y="792" type="curve" smooth="yes"/>
      <point x="283" y="792"/>
      <point x="317" y="768"/>
      <point x="334" y="748" type="curve"/>
    </contour>
  </outline>
</glyph>
<glyph name="j" format="2">
  <advance width="258"/>
  <unicode hex="006A"/>
  <outline>
    <contour>
      <point x="55" y="643" type="curve" smooth="yes"/>
      <point x="55" y="680"/>
      <point x="85" y="708"/>
      <point x="123" y="708" type="curve" smooth="yes"/>
      <point x="161" y="708"/>
      <point x="190" y="680"/>
      <point x="190" y="643" type="curve" smooth="yes"/>
      <point x="190" y="606"/>
      <point x="161" y="578"/>
      <point x="123" y="578" type="curve" smooth="yes"/>
      <point x="85" y="578"/>
      <point x="55" y="606"/>
    </contour>
    <contour>
      <point x="-23" y="-99" type="line"/>
      <point x="-12" y="-115"/>
      <point x="3" y="-125"/>
      <point x="24" y="-125" type="curve" smooth="yes"/>
      <point x="57" y="-125"/>
      <point x="72" y="-101"/>
      <point x="72" y="-44" type="curve" smooth="yes"/>
      <point x="72" y="460" type="line"/>
      <point x="179" y="460" type="line"/>
      <point x="179" y="-65" type="line" smooth="yes"/>
      <point x="179" y="-166"/>
      <point x="125" y="-228"/>
      <point x="29" y="-228" type="curve" smooth="yes"/>
      <point x="-22" y="-228"/>
      <point x="-53" y="-208"/>
      <point x="-74" y="-183" type="curve"/>
    </contour>
  </outline>
</glyph>
<glyph name="l" format="2">
  <advance width="246"/>
  <unicode hex="006C"/>
  <outline>
    <contour>
      <point x="69" y="780" type="line"/>
      <point x="177" y="780" type="line"/>
      <point x="177" y="0" type="line"/>
      <point x="69" y="0" type="line"/>
    </contour>
  </outline>
</glyph>
<glyph name="m" format="2">
  <advance width="796"/>
  <unicode hex="006D"/>
  <outline>
    <contour>
      <point x="727" y="292" type="curve" smooth="yes"/>
      <point x="727" y="0" type="line"/>
      <point x="619" y="0" type="line"/>
      <point x="619" y="280" type="line" smooth="yes"/>
      <point x="619" y="349"/>
      <point x="595" y="383"/>
      <point x="543" y="383" type="curve" smooth="yes"/>
      <point x="487" y="383"/>
      <point x="451" y="346"/>
      <point x="451" y="280" type="curve" smooth="yes"/>
      <point x="451" y="0" type="line"/>
      <point x="342" y="0" type="line"/>
      <point x="342" y="280" type="line" smooth="yes"/>
      <point x="342" y="349"/>
      <point x="318" y="383"/>
      <point x="266" y="383" type="curve" smooth="yes"/>
      <point x="210" y="383"/>
      <point x="175" y="346"/>
      <point x="175" y="280" type="curve" smooth="yes"/>
      <point x="175" y="0" type="line"/>
      <point x="69" y="0" type="line"/>
      <point x="69" y="460" type="line"/>
      <point x="175" y="460" type="line"/>
      <point x="175" y="393" type="line"/>
      <point x="202" y="444"/>
      <point x="245" y="470"/>
      <point x="304" y="470" type="curve" smooth="yes"/>
      <point x="371" y="470"/>
      <point x="417" y="441"/>
      <point x="437" y="388" type="curve"/>
      <point x="469" y="441"/>
      <point x="519" y="470"/>
      <point x="581" y="470" type="curve" smooth="yes"/>
      <point x="680" y="470"/>
      <point x="727" y="405"/>
    </contour>
  </outline>
</glyph>
<glyph name="n" format="2">
  <advance width="545"/>
  <unicode hex="006E"/>
  <outline>
    <contour>
      <point x="365" y="280" type="line" smooth="yes"/>
      <point x="365" y="347"/>
      <point x="338" y="383"/>
      <point x="280" y="383" type="curve" smooth="yes"/>
      <point x="219" y="383"/>
      <point x="177" y="342"/>
      <point x="177" y="280" type="curve" smooth="yes"/>
      <point x="177" y="0" type="line"/>
      <point x="69" y="0" type="line"/>
      <point x="69" y="460" type="line"/>
      <point x="177" y="460" type="line"/>
      <point x="177" y="389" type="line"/>
      <point x="206" y="443"/>
      <point x="253" y="470"/>
      <point x="316" y="470" type="curve" smooth="yes"/>
      <point x="420" y="470"/>
      <point x="476" y="403"/>
      <point x="476" y="292" type="curve" smooth="yes"/>
      <point x="476" y="0" type="line"/>
      <point x="365" y="0" type="line"/>
    </contour>
  </outline>
</glyph>
<glyph name="s" format="2">
  <advance width="424"/>
  <unicode hex="0073"/>
  <outline>
    <contour>
      <point x="90" y="151" type="line"/>
      <point x="135" y="102"/>
      <point x="179" y="75"/>
      <point x="226" y="75" type="curve" smooth="yes"/>
      <point x="265" y="75"/>
      <point x="288" y="94"/>
      <point x="288" y="124" type="curve" smooth="yes"/>
      <point x="288" y="164"/>
      <point x="246" y="183"/>
      <point x="185" y="205" type="curve" smooth="yes"/>
      <point x="122" y="228"/>
      <point x="54" y="261"/>
      <point x="54" y="345" type="curve" smooth="yes"/>
      <point x="54" y="428"/>
      <point x="127" y="470"/>
      <point x="212" y="470" type="curve" smooth="yes"/>
      <point x="287" y="470"/>
      <point x="352" y="435"/>
      <point x="390" y="389" type="curve"/>
      <point x="330" y="325" type="line"/>
      <point x="300" y="360"/>
      <point x="254" y="386"/>
      <point x="209" y="386" type="curve" smooth="yes"/>
      <point x="178" y="386"/>
      <point x="156" y="372"/>
      <point x="156" y="347" type="curve" smooth="yes"/>
      <point x="156" y="312"/>
      <point x="199" y="296"/>
      <point x="256" y="274" type="curve" smooth="yes"/>
      <point x="332" y="243"/>
      <point x="397" y="213"/>
      <point x="397" y="130" type="curve" smooth="yes"/>
      <point x="397" y="43"/>
      <point x="333" y="-14"/>
      <point x="233" y="-14" type="curve" smooth="yes"/>
      <point x="138" y="-14"/>
      <point x="67" y="35"/>
      <point x="27" y="88" type="curve"/>
    </contour>
  </outline>
</glyph>
<glyph name="u" format="2">
  <advance width="545"/>
  <unicode hex="0075"/>
  <outline>
    <contour>
      <point x="180" y="180" type="line" smooth="yes"/>
      <point x="180" y="115"/>
      <point x="207" y="77"/>
      <point x="265" y="77" type="curve" smooth="yes"/>
      <point x="326" y="77"/>
      <point x="368" y="118"/>
      <point x="368" y="180" type="curve" smooth="yes"/>
      <point x="368" y="460" type="line"/>
      <point x="476" y="460" type="line"/>
      <point x="476" y="0" type="line"/>
      <point x="368" y="0" type="line"/>
      <point x="368" y="71" type="line"/>
      <point x="339" y="18"/>
      <point x="293" y="-10"/>
      <point x="229" y="-10" type="curve" smooth="yes"/>
      <point x="126" y="-10"/>
      <point x="69" y="58"/>
      <point x="69" y="168" type="curve" smooth="yes"/>
      <point x="69" y="460" type="line"/>
      <point x="180" y="460" type="line"/>
    </contour>
  </outline>
</glyph>
<glyph name="asciitilde" format="2">
  <advance width="575"/>
  <unicode hex="007E"/>
  <outline>
    <contour>
      <point x="148" y="171" type="curve"/>
      <point x="56" y="176" type="line"/>
      <point x="54" y="183"/>
      <point x="53" y="191"/>
      <point x="53" y="200" type="curve" smooth="yes"/>
      <point x="53" y="226"/>
      <point x="59" y="254"/>
      <point x="79" y="280" type="curve" smooth="yes"/>
      <point x="105" y="315"/>
      <point x="142" y="335"/>
      <point x="194" y="335" type="curve" smooth="yes"/>
      <point x="235" y="335"/>
      <point x="274" y="318"/>
      <point x="318" y="286" type="curve" smooth="yes"/>
      <point x="348" y="264"/>
      <point x="372" y="253"/>
      <point x="390" y="253" type="curve" smooth="yes"/>
      <point x="416" y="253"/>
      <point x="428" y="270"/>
      <point x="428" y="298" type="curve" smooth="yes"/>
      <point x="428" y="307"/>
      <point x="427" y="318"/>
      <point x="423" y="328" type="curve"/>
      <point x="518" y="323" type="line"/>
      <point x="520" y="315"/>
      <point x="522" y="305"/>
      <point x="522" y="295" type="curve" smooth="yes"/>
      <point x="522" y="270"/>
      <point x="517" y="239"/>
      <point x="498" y="214" type="curve" smooth="yes"/>
      <point x="472" y="180"/>
      <point x="440" y="164"/>
      <point x="396" y="164" type="curve" smooth="yes"/>
      <point x="360" y="164"/>
      <point x="323" y="181"/>
      <point x="278" y="213" type="curve" smooth="yes"/>
      <point x="248" y="235"/>
      <point x="218" y="247"/>
      <point x="193" y="247" type="curve" smooth="yes"/>
      <point x="159" y="247"/>
      <point x="143" y="226"/>
      <point x="143" y="196" type="curve" smooth="yes"/>
      <point x="143" y="187"/>
      <point x="145" y="179"/>
    </contour>
  </outline>
</glyph>
<glyph name="cent" format="2">
  <advance width="580"/>
  <unicode hex="00A2"/>
  <outline>
    <contour>
      <point x="262" y="38" type="line"/>
      <point x="345" y="38" type="line"/>
      <point x="349" y="-112" type="line"/>
      <point x="259" y="-112" type="line"/>
    </contour>
    <contour>
      <point x="179" y="230" type="curve" smooth="yes"/>
      <point x="179" y="142"/>
      <point x="243" y="83"/>
      <point x="323" y="83" type="curve" smooth="yes"/>
      <point x="392" y="83"/>
      <point x="450" y="118"/>
      <point x="473" y="161" type="curve"/>
      <point x="473" y="41" type="line"/>
      <point x="441" y="8"/>
      <point x="381" y="-10"/>
      <point x="318" y="-10" type="curve" smooth="yes"/>
      <point x="175" y="-10"/>
      <point x="69" y="89"/>
      <point x="69" y="230" type="curve" smooth="yes"/>
      <point x="69" y="371"/>
      <point x="175" y="470"/>
      <point x="318" y="470" type="curve" smooth="yes"/>
      <point x="381" y="470"/>
      <point x="441" y="451"/>
      <point x="473" y="419" type="curve"/>
      <point x="473" y="299" type="line"/>
      <point x="450" y="342"/>
      <point x="392" y="377"/>
      <point x="323" y="377" type="curve" smooth="yes"/>
      <point x="243" y="377"/>
      <point x="179" y="316"/>
    </contour>
    <contour>
      <point x="259" y="578" type="line"/>
      <point x="349" y="578" type="line"/>
      <point x="345" y="428" type="line"/>
      <point x="262" y="428" type="line"/>
    </contour>
  </outline>
</glyph>
<glyph name="currency" format="2">
  <advance width="578"/>
  <unicode hex="00A4"/>
  <outline>
    <contour>
      <point x="31" y="503" type="line"/>
      <point x="87" y="558" type="line"/>
      <point x="182" y="461" type="line"/>
      <point x="128" y="408" type="line"/>
    </contour>
    <contour>
      <point x="87" y="42" type="line"/>
      <point x="31" y="97" type="line"/>
      <point x="128" y="192" type="line"/>
      <point x="182" y="139" type="line"/>
    </contour>
    <contour>
      <point x="451" y="408" type="line"/>
      <point x="396" y="461" type="line"/>
      <point x="493" y="558" type="line"/>
      <point x="546" y="503" type="line"/>
    </contour>
    <contour>
      <point x="396" y="139" type="line"/>
      <point x="451" y="192" type="line"/>
      <point x="546" y="97" type="line"/>
      <point x="493" y="42" type="line"/>
    </contour>
    <contour>
      <point x="52" y="300" type="curve" smooth="yes"/>
      <point x="52" y="439"/>
      <point x="155" y="540"/>
      <point x="290" y="540" type="curve" smooth="yes"/>
      <point x="425" y="540"/>
      <point x="528" y="439"/>
      <point x="528" y="300" type="curve" smooth="yes"/>
      <point x="528" y="161"/>
      <point x="425" y="60"/>
      <point x="290" y="60" type="curve" smooth="yes"/>
      <point x="155" y="60"/>
      <point x="52" y="161"/>
    </contour>
    <contour>
      <point x="155" y="300" type="curve" smooth="yes"/>
      <point x="155" y="218"/>
      <point x="212" y="160"/>
      <point x="290" y="160" type="curve" smooth="yes"/>
      <point x="368" y="160"/>
      <point x="424" y="218"/>
      <point x="424" y="300" type="curve" smooth="yes"/>
      <point x="424" y="382"/>
      <point x="368" y="440"/>
      <point x="290" y="440" type="curve" smooth="yes"/>
      <point x="212" y="440"/>
      <point x="155" y="382"/>
    </contour>
  </outline>
</glyph>
<glyph name="yen" format="2">
  <advance width="615"/>
  <unicode hex="00A5"/>
  <outline>
    <contour>
      <point x="45" y="280" type="line"/>
      <point x="45" y="365" type="line"/>
      <point x="566" y="365" type="line"/>
      <point x="566" y="280" type="line"/>
    </contour>
    <contour>
      <point x="45" y="130" type="line"/>
      <point x="45" y="215" type="line"/>
      <point x="566" y="215" type="line"/>
      <point x="566" y="130" type="line"/>
    </contour>
    <contour>
      <point x="471" y="700" type="line"/>
      <point x="605" y="700" type="line"/>
      <point x="369" y="298" type="line"/>
      <point x="369" y="0" type="line"/>
      <point x="248" y="0" type="line"/>
      <point x="248" y="295" type="line"/>
      <point x="10" y="700" type="line"/>
      <point x="145" y="700" type="line"/>
      <point x="308" y="400" type="line"/>
    </contour>
  </outline>
</glyph>
<glyph name="dieresis" format="2">
  <advance width="486"/>
  <unicode hex="00A8"/>
  <outline>
    <contour>
      <point x="284" y="649" type="curve" smooth="yes"/>
      <point x="284" y="686"/>
      <point x="314" y="715"/>
      <point x="352" y="715" type="curve" smooth="yes"/>
      <point x="390" y="715"/>
      <point x="420" y="686"/>
      <point x="420" y="649" type="curve" smooth="yes"/>
      <point x="420" y="612"/>
      <point x="390" y="583"/>
      <point x="352" y="583" type="curve" smooth="yes"/>
      <point x="314" y="583"/>
      <point x="284" y="612"/>
    </contour>
    <contour>
      <point x="66" y="649" type="curve" smooth="yes"/>
      <point x="66" y="686"/>
      <point x="97" y="715"/>
      <point x="135" y="715" type="curve" smooth="yes"/>
      <point x="173" y="715"/>
      <point x="203" y="686"/>
      <point x="203" y="649" type="curve" smooth="yes"/>
      <point x="203" y="612"/>
      <point x="173" y="583"/>
      <point x="135" y="583" type="curve" smooth="yes"/>
      <point x="97" y="583"/>
      <point x="66" y="612"/>
    </contour>
  </outline>
</glyph>
<glyph name="macron" format="2">
  <advance width="518"/>
  <unicode hex="00AF"/>
  <outline>
    <contour>
      <point x="80" y="589" type="line"/>
      <point x="80" y="686" type="line"/>
      <point x="439" y="686" type="line"/>
      <point x="439" y="589" type="line"/>
    </contour>
  </outline>
</glyph>
<glyph name="plusminus" format="2">
  <advance width="622"/>
  <unicode hex="00B1"/>
  <outline>
    <contour>
      <point x="65" y="2" type="line"/>
      <point x="65" y="102" type="line"/>
      <point x="558" y="102" type="line"/>
      <point x="558" y="2" type="line"/>
    </contour>
    <contour>
      <point x="65" y="340" type="line"/>
      <point x="65" y="443" type="line"/>
      <point x="558" y="443" type="line"/>
      <point x="558" y="340" type="line"/>
    </contour>
    <contour>
      <point x="255" y="620" type="line"/>
      <point x="368" y="620" type="line"/>
      <point x="368" y="162" type="line"/>
      <point x="255" y="162" type="line"/>
    </contour>
  </outline>
</glyph>
<glyph name="uni00B2" format="2">
  <advance width="370"/>
  <unicode hex="00B2"/>
  <outline>
    <contour>
      <point x="25" y="282" type="line"/>
      <point x="219" y="487" type="line" smooth="yes"/>
      <point x="249" y="519"/>
      <point x="267" y="546"/>
      <point x="267" y="580" type="curve" smooth="yes"/>
      <point x="267" y="613"/>
      <point x="245" y="646"/>
      <point x="199" y="646" type="curve" smooth="yes"/>
      <point x="151" y="646"/>
      <point x="118" y="610"/>
      <point x="118" y="554" type="curve"/>
      <point x="47" y="554" type="line"/>
      <point x="47" y="643"/>
      <point x="104" y="710"/>
      <point x="200" y="710" type="curve" smooth="yes"/>
      <point x="297" y="710"/>
      <point x="340" y="639"/>
      <point x="340" y="579" type="curve" smooth="yes"/>
      <point x="340" y="535"/>
      <point x="316" y="497"/>
      <point x="282" y="464" type="curve" smooth="yes"/>
      <point x="163" y="348" type="line"/>
      <point x="345" y="348" type="line"/>
      <point x="345" y="282" type="line"/>
    </contour>
  </outline>
</glyph>
<glyph name="mu" format="2">
  <advance width="545"/>
  <unicode hex="00B5"/>
  <outline>
    <contour>
      <point x="180" y="460" type="line"/>
      <point x="180" y="190" type="line" smooth="yes"/>
      <point x="180" y="123"/>
      <point x="206" y="87"/>
      <point x="265" y="87" type="curve" smooth="yes"/>
      <point x="326" y="87"/>
      <point x="368" y="129"/>
      <point x="368" y="190" type="curve" smooth="yes"/>
      <point x="368" y="460" type="line"/>
      <point x="476" y="460" type="line"/>
      <point x="476" y="0" type="line"/>
      <point x="368" y="0" type="line"/>
      <point x="368" y="58" type="line"/>
      <point x="341" y="18"/>
      <point x="298" y="-8"/>
      <point x="248" y="-8" type="curve" smooth="yes"/>
      <point x="221" y="-8"/>
      <point x="198" y="-3"/>
      <point x="175" y="11" type="curve"/>
      <point x="175" y="-320" type="line"/>
      <point x="69" y="-320" type="line"/>
      <point x="69" y="460" type="line"/>
    </contour>
  </outline>
</glyph>
<glyph name="paragraph" format="2">
  <advance width="615"/>
  <unicode hex="00B6"/>
  <outline>
    <contour>
      <point x="288" y="270" type="line"/>
      <point x="163" y="270"/>
      <point x="60" y="346"/>
      <point x="60" y="485" type="curve" smooth="yes"/>
      <point x="60" y="624"/>
      <point x="163" y="700"/>
      <point x="288" y="700" type="curve" smooth="yes"/>
      <point x="556" y="700" type="line"/>
      <point x="556" y="-220" type="line"/>
      <point x="460" y="-220" type="line"/>
      <point x="460" y="624" type="line"/>
      <point x="383" y="624" type="line"/>
      <point x="383" y="-220" type="line"/>
      <point x="288" y="-220" type="line"/>
    </contour>
  </outline>
</glyph>
<glyph name="periodcentered" format="2">
  <advance width="308"/>
  <unicode hex="00B7"/>
  <outline>
    <contour>
      <point x="84" y="251" type="curve" smooth="yes"/>
      <point x="84" y="289"/>
      <point x="114" y="321"/>
      <point x="154" y="321" type="curve" smooth="yes"/>
      <point x="194" y="321"/>
      <point x="225" y="289"/>
      <point x="225" y="251" type="curve" smooth="yes"/>
      <point x="225" y="213"/>
      <point x="194" y="181"/>
      <point x="154" y="181" type="curve" smooth="yes"/>
      <point x="114" y="181"/>
      <point x="84" y="213"/>
    </contour>
  </outline>
</glyph>
<glyph name="cedilla" format="2">
  <advance width="367"/>
  <unicode hex="00B8"/>
  <outline>
    <contour>
      <point x="191" y="64" type="line"/>
      <point x="272" y="63" type="line"/>
      <point x="199" y="-53" type="line"/>
      <point x="205" y="-52"/>
      <point x="212" y="-52"/>
      <point x="219" y="-52" type="curve" smooth="yes"/>
      <point x="255" y="-52"/>
      <point x="299" y="-79"/>
      <point x="299" y="-135" type="curve" smooth="yes"/>
      <point x="299" y="-200"/>
      <point x="240" y="-235"/>
      <point x="182" y="-235" type="curve" smooth="yes"/>
      <point x="137" y="-235"/>
      <point x="107" y="-225"/>
      <point x="71" y="-196" type="curve"/>
      <point x="110" y="-145" type="line"/>
      <point x="131" y="-162"/>
      <point x="150" y="-170"/>
      <point x="174" y="-170" type="curve" smooth="yes"/>
      <point x="208" y="-170"/>
      <point x="226" y="-156"/>
      <point x="226" y="-132" type="curve" smooth="yes"/>
      <point x="226" y="-107"/>
      <point x="205" y="-97"/>
      <point x="172" y="-97" type="curve" smooth="yes"/>
      <point x="162" y="-97"/>
      <point x="132" y="-100"/>
      <point x="105" y="-114" type="curve"/>
    </contour>
  </outline>
</glyph>
<glyph name="uni00B9" format="2">
  <advance width="474"/>
  <unicode hex="00B9"/>
  <outline>
    <contour>
      <point x="144" y="595" type="line"/>
      <point x="144" y="663" type="line"/>
      <point x="312" y="701" type="line"/>
      <point x="312" y="274" type="line"/>
      <point x="242" y="274" type="line"/>
      <point x="242" y="623" type="line"/>
    </contour>
  </outline>
</glyph>
<glyph name="onequarter" format="2">
  <advance width="781"/>
  <unicode hex="00BC"/>
  <outline>
    <contour>
      <point x="623" y="700" type="line"/>
      <point x="701" y="700" type="line"/>
      <point x="181" y="0" type="line"/>
      <point x="103" y="0" type="line"/>
    </contour>
    <contour>
      <point x="28" y="595" type="line"/>
      <point x="28" y="663" type="line"/>
      <point x="195" y="701" type="line"/>
      <point x="195" y="274" type="line"/>
      <point x="125" y="274" type="line"/>
      <point x="125" y="623" type="line"/>
    </contour>
    <contour>
      <point x="402" y="80" type="line"/>
      <point x="460" y="137" type="line"/>
      <point x="644" y="137" type="line" smooth="yes"/>
      <point x="654" y="142" type="line" smooth="yes"/>
      <point x="748" y="142" type="line"/>
      <point x="748" y="80" type="line"/>
    </contour>
    <contour>
      <point x="475" y="92" type="line"/>
      <point x="402" y="80" type="line"/>
      <point x="639" y="420" type="line"/>
      <point x="682" y="420" type="line"/>
      <point x="682" y="0" type="line"/>
      <point x="609" y="0" type="line"/>
      <point x="609" y="102" type="line" smooth="yes"/>
      <point x="613" y="108" type="line" smooth="yes"/>
      <point x="613" y="293" type="line"/>
    </contour>
  </outline>
</glyph>
<glyph name="onehalf" format="2">
  <advance width="849"/>
  <unicode hex="00BD"/>
  <outline>
    <contour>
      <point x="623" y="700" type="line"/>
      <point x="701" y="700" type="line"/>
      <point x="181" y="0" type="line"/>
      <point x="103" y="0" type="line"/>
    </contour>
    <contour>
      <point x="28" y="595" type="line"/>
      <point x="28" y="663" type="line"/>
      <point x="195" y="701" type="line"/>
      <point x="195" y="274" type="line"/>
      <point x="125" y="274" type="line"/>
      <point x="125" y="623" type="line"/>
    </contour>
    <contour>
      <point x="498" y="2" type="line"/>
      <point x="692" y="207" type="line" smooth="yes"/>
      <point x="722" y="239"/>
      <point x="740" y="266"/>
      <point x="740" y="300" type="curve" smooth="yes"/>
      <point x="740" y="333"/>
      <point x="718" y="366"/>
      <point x="672" y="366" type="curve" smooth="yes"/>
      <point x="624" y="366"/>
      <point x="591" y="330"/>
      <point x="591" y="274" type="curve"/>
      <point x="521" y="274" type="line"/>
      <point x="521" y="363"/>
      <point x="577" y="430"/>
      <point x="673" y="430" type="curve" smooth="yes"/>
      <point x="770" y="430"/>
      <point x="813" y="359"/>
      <point x="813" y="299" type="curve" smooth="yes"/>
      <point x="813" y="255"/>
      <point x="789" y="217"/>
      <point x="755" y="184" type="curve" smooth="yes"/>
      <point x="636" y="68" type="line"/>
      <point x="818" y="68" type="line"/>
      <point x="818" y="2" type="line"/>
    </contour>
  </outline>
</glyph>
<glyph name="threequarters" format="2">
  <advance width="843"/>
  <unicode hex="00BE"/>
  <outline>
    <contour>
      <point x="689" y="700" type="line"/>
      <point x="766" y="700" type="line"/>
      <point x="246" y="0" type="line"/>
      <point x="169" y="0" type="line"/>
    </contour>
    <contour>
      <point x="152" y="485" type="curve"/>
      <point x="152" y="524" type="line"/>
      <point x="203" y="524"/>
      <point x="235" y="554"/>
      <point x="235" y="590" type="curve" smooth="yes"/>
      <point x="235" y="624"/>
      <point x="215" y="647"/>
      <point x="177" y="647" type="curve" smooth="yes"/>
      <point x="141" y="647"/>
      <point x="113" y="622"/>
      <point x="113" y="588" type="curve"/>
      <point x="46" y="588" type="line"/>
      <point x="46" y="657"/>
      <point x="100" y="707"/>
      <point x="177" y="707" type="curve" smooth="yes"/>
      <point x="258" y="707"/>
      <point x="306" y="654"/>
      <point x="306" y="593" type="curve" smooth="yes"/>
      <point x="306" y="529"/>
      <point x="241" y="485"/>
    </contour>
    <contour>
      <point x="174" y="272" type="curve" smooth="yes"/>
      <point x="85" y="272"/>
      <point x="28" y="331"/>
      <point x="28" y="400" type="curve"/>
      <point x="100" y="400" type="line"/>
      <point x="100" y="359"/>
      <point x="132" y="334"/>
      <point x="175" y="334" type="curve" smooth="yes"/>
      <point x="218" y="334"/>
      <point x="247" y="358"/>
      <point x="247" y="400" type="curve" smooth="yes"/>
      <point x="247" y="445"/>
      <point x="209" y="471"/>
      <point x="152" y="471" type="curve"/>
      <point x="152" y="511" type="line"/>
      <point x="245" y="511"/>
      <point x="318" y="477"/>
      <point x="318" y="393" type="curve" smooth="yes"/>
      <point x="318" y="321"/>
      <point x="260" y="272"/>
    </contour>
    <contour>
      <point x="465" y="80" type="line"/>
      <point x="523" y="137" type="line"/>
      <point x="707" y="137" type="line" smooth="yes"/>
      <point x="717" y="142" type="line" smooth="yes"/>
      <point x="811" y="142" type="line"/>
      <point x="811" y="80" type="line"/>
    </contour>
    <contour>
      <point x="538" y="92" type="line"/>
      <point x="465" y="80" type="line"/>
      <point x="702" y="420" type="line"/>
      <point x="745" y="420" type="line"/>
      <point x="745" y="0" type="line"/>
      <point x="672" y="0" type="line"/>
      <point x="672" y="102" type="line" smooth="yes"/>
      <point x="677" y="108" type="line" smooth="yes"/>
      <point x="677" y="293" type="line"/>
    </contour>
  </outline>
</glyph>
<glyph name="questiondown" format="2">
  <advance width="585"/>
  <unicode hex="00BF"/>
  <outline>
    <contour>
      <point x="167" y="200" type="curve" smooth="yes"/>
      <point x="167" y="125"/>
      <point x="218" y="83"/>
      <point x="300" y="83" type="curve" smooth="yes"/>
      <point x="365" y="83"/>
      <point x="417" y="115"/>
      <point x="450" y="167" type="curve"/>
      <point x="530" y="109" type="line"/>
      <point x="474" y="34"/>
      <point x="409" y="-14"/>
      <point x="290" y="-14" type="curve" smooth="yes"/>
      <point x="163" y="-14"/>
      <point x="58" y="73"/>
      <point x="58" y="200" type="curve" smooth="yes"/>
      <point x="58" y="318"/>
      <point x="161" y="401"/>
      <point x="270" y="412" type="curve"/>
      <point x="277" y="518" type="line"/>
      <point x="361" y="518" type="line"/>
      <point x="381" y="341" type="line"/>
      <point x="353" y="341" type="line" smooth="yes"/>
      <point x="233" y="341"/>
      <point x="167" y="266"/>
    </contour>
    <contour>
      <point x="388" y="652" type="curve" smooth="yes"/>
      <point x="388" y="616"/>
      <point x="357" y="586"/>
      <point x="317" y="586" type="curve" smooth="yes"/>
      <point x="277" y="586"/>
      <point x="247" y="616"/>
      <point x="247" y="652" type="curve" smooth="yes"/>
      <point x="247" y="688"/>
      <point x="277" y="719"/>
      <point x="317" y="719" type="curve" smooth="yes"/>
      <point x="357" y="719"/>
      <point x="388" y="688"/>
    </contour>
  </outline>
</glyph>
<glyph name="Agrave" format="2">
  <advance width="690"/>
  <unicode hex="00C0"/>
  <outline>
    <contour>
      <point x="162" y="180" type="line"/>
      <point x="185" y="280" type="line"/>
      <point x="509" y="280" type="line"/>
      <point x="532" y="180" type="line"/>
    </contour>
    <contour>
      <point x="345" y="502" type="line"/>
      <point x="235" y="245" type="line"/>
      <point x="233" y="219" type="line"/>
      <point x="136" y="0" type="line"/>
      <point x="3" y="0" type="line"/>
      <point x="345" y="739" type="line"/>
      <point x="687" y="0" type="line"/>
      <point x="554" y="0" type="line"/>
      <point x="459" y="213" type="line"/>
      <point x="456" y="242" type="line"/>
    </contour>
    <contour>
      <point x="202" y="949" type="line"/>
      <point x="294" y="994" type="line"/>
      <point x="444" y="834" type="line"/>
      <point x="382" y="799" type="line"/>
    </contour>
  </outline>
</glyph>
<glyph name="Atilde" format="2">
  <advance width="690"/>
  <unicode hex="00C3"/>
  <outline>
    <contour>
      <point x="162" y="180" type="line"/>
      <point x="185" y="280" type="line"/>
      <point x="509" y="280" type="line"/>
      <point x="532" y="180" type="line"/>
    </contour>
    <contour>
      <point x="345" y="502" type="line"/>
      <point x="235" y="245" type="line"/>
      <point x="233" y="219" type="line"/>
      <point x="136" y="0" type="line"/>
      <point x="3" y="0" type="line"/>
      <point x="345" y="739" type="line"/>
      <point x="687" y="0" type="line"/>
      <point x="554" y="0" type="line"/>
      <point x="459" y="213" type="line"/>
      <point x="456" y="242" type="line"/>
    </contour>
    <contour>
      <point x="167" y="832" type="line"/>
      <point x="177" y="881"/>
      <point x="225" y="919"/>
      <point x="278" y="919" type="curve" smooth="yes"/>
      <point x="343" y="919"/>
      <point x="352" y="870"/>
      <point x="407" y="870" type="curve" smooth="yes"/>
      <point x="428" y="870"/>
      <point x="447" y="888"/>
      <point x="467" y="920" type="curve"/>
      <point x="523" y="865" type="line"/>
      <point x="507" y="828"/>
      <point x="460" y="787"/>
      <point x="405" y="787" type="curve" smooth="yes"/>
      <point x="350" y="787"/>
      <point x="324" y="836"/>
      <point x="277" y="836" type="curve" smooth="yes"/>
      <point x="237" y="836"/>
      <point x="228" y="800"/>
      <point x="228" y="785" type="curve"/>
    </contour>
  </outline>
</glyph>
<glyph name="Aring" format="2">
  <advance width="690"/>
  <unicode hex="00C5"/>
  <outline>
    <contour>
      <point x="162" y="180" type="line"/>
      <point x="185" y="280" type="line"/>
      <point x="509" y="280" type="line"/>
      <point x="532" y="180" type="line"/>
    </contour>
    <contour>
      <point x="345" y="502" type="line"/>
      <point x="235" y="245" type="line"/>
      <point x="233" y="219" type="line"/>
      <point x="136" y="0" type="line"/>
      <point x="3" y="0" type="line"/>
      <point x="345" y="739" type="line"/>
      <point x="687" y="0" type="line"/>
      <point x="554" y="0" type="line"/>
      <point x="459" y="213" type="line"/>
      <point x="456" y="242" type="line"/>
    </contour>
    <contour>
      <point x="234" y="799" type="curve" smooth="yes"/>
      <point x="234" y="863"/>
      <point x="286" y="905"/>
      <point x="345" y="905" type="curve" smooth="yes"/>
      <point x="404" y="905"/>
      <point x="456" y="863"/>
      <point x="456" y="799" type="curve" smooth="yes"/>
      <point x="456" y="735"/>
      <point x="404" y="693"/>
      <point x="345" y="693" type="curve" smooth="yes"/>
      <point x="286" y="693"/>
      <point x="234" y="735"/>
    </contour>
    <contour>
      <point x="296" y="799" type="curve" smooth="yes"/>
      <point x="296" y="767"/>
      <point x="320" y="748"/>
      <point x="345" y="748" type="curve" smooth="yes"/>
      <point x="370" y="748"/>
      <point x="394" y="767"/>
      <point x="394" y="799" type="curve" smooth="yes"/>
      <point x="394" y="831"/>
      <point x="370" y="850"/>
      <point x="345" y="850" type="curve" smooth="yes"/>
      <point x="320" y="850"/>
      <point x="296" y="831"/>
    </contour>
  </outline>
</glyph>
<glyph name="Eacute" format="2">
  <advance width="571"/>
  <unicode hex="00C9"/>
  <outline>
    <contour>
      <point x="151" y="0" type="line"/>
      <point x="151" y="104" type="line"/>
      <point x="504" y="104" type="line"/>
      <point x="504" y="0" type="line"/>
    </contour>
    <contour>
      <point x="151" y="596" type="line"/>
      <point x="151" y="700" type="line"/>
      <point x="504" y="700" type="line"/>
      <point x="504" y="596" type="line"/>
    </contour>
    <contour>
      <point x="151" y="324" type="line"/>
      <point x="151" y="426" type="line"/>
      <point x="484" y="426" type="line"/>
      <point x="484" y="324" type="line"/>
    </contour>
    <contour>
      <point x="78" y="700" type="line"/>
      <point x="194" y="700" type="line"/>
      <point x="194" y="0" type="line"/>
      <point x="78" y="0" type="line"/>
    </contour>
    <contour>
      <point x="432" y="925" type="line"/>
      <point x="252" y="775" type="line"/>
      <point x="191" y="810" type="line"/>
      <point x="341" y="970" type="line"/>
    </contour>
  </outline>
</glyph>
<glyph name="Ecircumflex" format="2">
  <advance width="571"/>
  <unicode hex="00CA"/>
  <outline>
    <contour>
      <point x="151" y="0" type="line"/>
      <point x="151" y="104" type="line"/>
      <point x="504" y="104" type="line"/>
      <point x="504" y="0" type="line"/>
    </contour>
    <contour>
      <point x="151" y="596" type="line"/>
      <point x="151" y="700" type="line"/>
      <point x="504" y="700" type="line"/>
      <point x="504" y="596" type="line"/>
    </contour>
    <contour>
      <point x="151" y="324" type="line"/>
      <point x="151" y="426" type="line"/>
      <point x="484" y="426" type="line"/>
      <point x="484" y="324" type="line"/>
    </contour>
    <contour>
      <point x="78" y="700" type="line"/>
      <point x="194" y="700" type="line"/>
      <point x="194" y="0" type="line"/>
      <point x="78" y="0" type="line"/>
    </contour>
    <contour>
      <point x="298" y="864" type="line"/>
      <point x="196" y="772" type="line"/>
      <point x="123" y="825" type="line"/>
      <point x="298" y="965" type="line"/>
      <point x="473" y="825" type="line"/>
      <point x="401" y="772" type="line"/>
    </contour>
  </outline>
</glyph>
<glyph name="Icircumflex" format="2">
  <advance width="275"/>
  <unicode hex="00CE"/>
  <outline>
    <contour>
      <point x="78" y="700" type="line"/>
      <point x="197" y="700" type="line"/>
      <point x="197" y="0" type="line"/>
      <point x="78" y="0" type="line"/>
    </contour>
    <contour>
      <point x="137" y="864" type="line"/>
      <point x="35" y="772" type="line"/>
      <point x="-38" y="825" type="line"/>
      <point x="137" y="965" type="line"/>
      <point x="312" y="825" type="line"/>
      <point x="240" y="772" type="line"/>
    </contour>
  </outline>
</glyph>
<glyph name="Ntilde" format="2">
  <advance width="782"/>
  <unicode hex="00D1"/>
  <outline>
    <contour>
      <point x="589" y="700" type="line"/>
      <point x="705" y="700" type="line"/>
      <point x="705" y="-35" type="line"/>
      <point x="194" y="470" type="line"/>
      <point x="194" y="0" type="line"/>
      <point x="78" y="0" type="line"/>
      <point x="78" y="735" type="line"/>
      <point x="589" y="230" type="line"/>
    </contour>
    <contour>
      <point x="197" y="808" type="line"/>
      <point x="207" y="857"/>
      <point x="255" y="896"/>
      <point x="308" y="896" type="curve" smooth="yes"/>
      <point x="373" y="896"/>
      <point x="382" y="847"/>
      <point x="437" y="847" type="curve" smooth="yes"/>
      <point x="458" y="847"/>
      <point x="477" y="865"/>
      <point x="497" y="897" type="curve"/>
      <point x="553" y="841" type="line"/>
      <point x="537" y="804"/>
      <point x="490" y="763"/>
      <point x="435" y="763" type="curve" smooth="yes"/>
      <point x="380" y="763"/>
      <point x="354" y="812"/>
      <point x="307" y="812" type="curve" smooth="yes"/>
      <point x="267" y="812"/>
      <point x="258" y="776"/>
      <point x="258" y="761" type="curve"/>
    </contour>
  </outline>
</glyph>
<glyph name="Ocircumflex" format="2">
  <advance width="802"/>
  <unicode hex="00D4"/>
  <outline>
    <contour>
      <point x="163" y="350" type="curve" smooth="yes"/>
      <point x="163" y="206"/>
      <point x="262" y="101"/>
      <point x="401" y="101" type="curve" smooth="yes"/>
      <point x="540" y="101"/>
      <point x="639" y="206"/>
      <point x="639" y="350" type="curve" smooth="yes"/>
      <point x="639" y="494"/>
      <point x="542" y="599"/>
      <point x="401" y="599" type="curve" smooth="yes"/>
      <point x="262" y="599"/>
      <point x="163" y="494"/>
    </contour>
    <contour>
      <point x="38" y="350" type="curve" smooth="yes"/>
      <point x="38" y="559"/>
      <point x="193" y="712"/>
      <point x="401" y="712" type="curve" smooth="yes"/>
      <point x="610" y="712"/>
      <point x="765" y="559"/>
      <point x="765" y="350" type="curve" smooth="yes"/>
      <point x="765" y="141"/>
      <point x="611" y="-15"/>
      <point x="401" y="-15" type="curve" smooth="yes"/>
      <point x="191" y="-15"/>
      <point x="38" y="141"/>
    </contour>
    <contour>
      <point x="405" y="864" type="line"/>
      <point x="303" y="772" type="line"/>
      <point x="230" y="825" type="line"/>
      <point x="405" y="965" type="line"/>
      <point x="580" y="825" type="line"/>
      <point x="508" y="772" type="line"/>
    </contour>
  </outline>
</glyph>
<glyph name="Otilde" format="2">
  <advance width="802"/>
  <unicode hex="00D5"/>
  <outline>
    <contour>
      <point x="163" y="350" type="curve" smooth="yes"/>
      <point x="163" y="206"/>
      <point x="262" y="101"/>
      <point x="401" y="101" type="curve" smooth="yes"/>
      <point x="540" y="101"/>
      <point x="639" y="206"/>
      <point x="639" y="350" type="curve" smooth="yes"/>
      <point x="639" y="494"/>
      <point x="542" y="599"/>
      <point x="401" y="599" type="curve" smooth="yes"/>
      <point x="262" y="599"/>
      <point x="163" y="494"/>
    </contour>
    <contour>
      <point x="38" y="350" type="curve" smooth="yes"/>
      <point x="38" y="559"/>
      <point x="193" y="712"/>
      <point x="401" y="712" type="curve" smooth="yes"/>
      <point x="610" y="712"/>
      <point x="765" y="559"/>
      <point x="765" y="350" type="curve" smooth="yes"/>
      <point x="765" y="141"/>
      <point x="611" y="-15"/>
      <point x="401" y="-15" type="curve" smooth="yes"/>
      <point x="191" y="-15"/>
      <point x="38" y="141"/>
    </contour>
    <contour>
      <point x="237" y="808" type="line"/>
      <point x="247" y="857"/>
      <point x="295" y="896"/>
      <point x="348" y="896" type="curve" smooth="yes"/>
      <point x="413" y="896"/>
      <point x="422" y="847"/>
      <point x="477" y="847" type="curve" smooth="yes"/>
      <point x="498" y="847"/>
      <point x="517" y="865"/>
      <point x="537" y="897" type="curve"/>
      <point x="593" y="841" type="line"/>
      <point x="577" y="804"/>
      <point x="530" y="763"/>
      <point x="475" y="763" type="curve" smooth="yes"/>
      <point x="420" y="763"/>
      <point x="394" y="812"/>
      <point x="347" y="812" type="curve" smooth="yes"/>
      <point x="307" y="812"/>
      <point x="298" y="776"/>
      <point x="298" y="761" type="curve"/>
    </contour>
  </outline>
</glyph>
<glyph name="Thorn" format="2">
  <advance width="574"/>
  <unicode hex="00DE"/>
  <outline>
    <contour>
      <point x="80" y="700" type="line"/>
      <point x="190" y="700" type="line"/>
      <point x="190" y="0" type="line"/>
      <point x="80" y="0" type="line"/>
    </contour>
    <contour>
      <point x="146" y="466" type="line"/>
      <point x="146" y="568" type="line"/>
      <point x="286" y="568" type="line" smooth="yes"/>
      <point x="439" y="568"/>
      <point x="538" y="485"/>
      <point x="538" y="351" type="curve" smooth="yes"/>
      <point x="538" y="217"/>
      <point x="439" y="135"/>
      <point x="286" y="135" type="curve" smooth="yes"/>
      <point x="146" y="135" type="line"/>
      <point x="146" y="236" type="line"/>
      <point x="286" y="236" type="line" smooth="yes"/>
      <point x="371" y="236"/>
      <point x="427" y="273"/>
      <point x="427" y="351" type="curve" smooth="yes"/>
      <point x="427" y="429"/>
      <point x="371" y="466"/>
      <point x="286" y="466" type="curve" smooth="yes"/>
    </contour>
  </outline>
</glyph>
<glyph name="germandbls" format="2">
  <advance width="580"/>
  <unicode hex="00DF"/>
  <outline>
    <contour>
      <point x="354" y="-12" type="curve" smooth="yes"/>
      <point x="296" y="-12"/>
      <point x="245" y="12"/>
      <point x="210" y="45" type="curve"/>
      <point x="252" y="127" type="line"/>
      <point x="281" y="100"/>
      <point x="317" y="82"/>
      <point x="353" y="82" type="curve" smooth="yes"/>
      <point x="409" y="82"/>
      <point x="450" y="125"/>
      <point x="450" y="179" type="curve" smooth="yes"/>
      <point x="450" y="285"/>
      <point x="287" y="290"/>
      <point x="287" y="396" type="curve" smooth="yes"/>
      <point x="287" y="482"/>
      <point x="391" y="516"/>
      <point x="391" y="614" type="curve" smooth="yes"/>
      <point x="391" y="675"/>
      <point x="344" y="697"/>
      <point x="288" y="697" type="curve" smooth="yes"/>
      <point x="218" y="697"/>
      <point x="170" y="660"/>
      <point x="170" y="573" type="curve" smooth="yes"/>
      <point x="171" y="-2" type="line"/>
      <point x="62" y="-2" type="line"/>
      <point x="62" y="586" type="line" smooth="yes"/>
      <point x="62" y="713"/>
      <point x="152" y="795"/>
      <point x="298" y="795" type="curve" smooth="yes"/>
      <point x="416" y="795"/>
      <point x="504" y="742"/>
      <point x="504" y="630" type="curve" smooth="yes"/>
      <point x="504" y="499"/>
      <point x="404" y="476"/>
      <point x="404" y="402" type="curve" smooth="yes"/>
      <point x="404" y="334"/>
      <point x="563" y="330"/>
      <point x="563" y="186" type="curve" smooth="yes"/>
      <point x="563" y="76"/>
      <point x="467" y="-12"/>
    </contour>
  </outline>
</glyph>
<glyph name="atilde" format="2">
  <advance width="508"/>
  <unicode hex="00E3"/>
  <outline>
    <contour>
      <point x="137" y="136" type="curve" smooth="yes"/>
      <point x="137" y="93"/>
      <point x="168" y="72"/>
      <point x="222" y="72" type="curve" smooth="yes"/>
      <point x="292" y="72"/>
      <point x="345" y="101"/>
      <point x="345" y="182" type="curve"/>
      <point x="361" y="130" type="line"/>
      <point x="361" y="41"/>
      <point x="284" y="-10"/>
      <point x="189" y="-10" type="curve" smooth="yes"/>
      <point x="92" y="-10"/>
      <point x="28" y="41"/>
      <point x="28" y="126" type="curve" smooth="yes"/>
      <point x="28" y="228"/>
      <point x="112" y="283"/>
      <point x="225" y="283" type="curve" smooth="yes"/>
      <point x="305" y="283"/>
      <point x="362" y="246"/>
      <point x="378" y="227" type="curve"/>
      <point x="378" y="170" type="line"/>
      <point x="337" y="200"/>
      <point x="297" y="214"/>
      <point x="241" y="214" type="curve" smooth="yes"/>
      <point x="172" y="214"/>
      <point x="137" y="184"/>
    </contour>
    <contour>
      <point x="113" y="338" type="curve"/>
      <point x="70" y="416" type="line"/>
      <point x="112" y="441"/>
      <point x="176" y="471"/>
      <point x="259" y="471" type="curve" smooth="yes"/>
      <point x="372" y="471"/>
      <point x="451" y="419"/>
      <point x="451" y="328" type="curve" smooth="yes"/>
      <point x="451" y="0" type="line"/>
      <point x="345" y="0" type="line"/>
      <point x="345" y="316" type="line" smooth="yes"/>
      <point x="345" y="359"/>
      <point x="304" y="383"/>
      <point x="254" y="383" type="curve" smooth="yes"/>
      <point x="188" y="383"/>
      <point x="135" y="353"/>
    </contour>
    <contour>
      <point x="82" y="580" type="line"/>
      <point x="92" y="629"/>
      <point x="139" y="667"/>
      <point x="192" y="667" type="curve" smooth="yes"/>
      <point x="257" y="667"/>
      <point x="266" y="618"/>
      <point x="321" y="618" type="curve" smooth="yes"/>
      <point x="342" y="618"/>
      <point x="361" y="636"/>
      <point x="381" y="668" type="curve"/>
      <point x="437" y="612" type="line"/>
      <point x="421" y="575"/>
      <point x="374" y="534"/>
      <point x="319" y="534" type="curve" smooth="yes"/>
      <point x="264" y="534"/>
      <point x="238" y="584"/>
      <point x="191" y="584" type="curve" smooth="yes"/>
      <point x="151" y="584"/>
      <point x="142" y="548"/>
      <point x="142" y="533" type="curve"/>
    </contour>
  </outline>
</glyph>
<glyph name="ae" format="2">
  <advance width="853"/>
  <unicode hex="00E6"/>
  <outline>
    <contour>
      <point x="212" y="-10" type="curve" smooth="yes"/>
      <point x="98" y="-10"/>
      <point x="28" y="42"/>
      <point x="28" y="126" type="curve" smooth="yes"/>
      <point x="28" y="220"/>
      <point x="108" y="283"/>
      <point x="225" y="283" type="curve" smooth="yes"/>
      <point x="281" y="283"/>
      <point x="324" y="270"/>
      <point x="399" y="228" type="curve"/>
      <point x="345" y="228" type="line"/>
      <point x="345" y="293" type="line" smooth="yes"/>
      <point x="345" y="351"/>
      <point x="312" y="383"/>
      <point x="254" y="383" type="curve" smooth="yes"/>
      <point x="209" y="383"/>
      <point x="152" y="365"/>
      <point x="113" y="338" type="curve"/>
      <point x="70" y="416" type="line"/>
      <point x="130" y="453"/>
      <point x="194" y="471"/>
      <point x="259" y="471" type="curve" smooth="yes"/>
      <point x="353" y="471"/>
      <point x="408" y="433"/>
      <point x="417" y="358" type="curve"/>
      <point x="406" y="358" type="line"/>
      <point x="444" y="429"/>
      <point x="517" y="470"/>
      <point x="604" y="470" type="curve" smooth="yes"/>
      <point x="734" y="470"/>
      <point x="819" y="377"/>
      <point x="819" y="235" type="curve" smooth="yes"/>
      <point x="819" y="222"/>
      <point x="818" y="210"/>
      <point x="817" y="205" type="curve"/>
      <point x="438" y="205" type="line"/>
      <point x="459" y="224" type="line"/>
      <point x="461" y="131"/>
      <point x="507" y="79"/>
      <point x="589" y="79" type="curve" smooth="yes"/>
      <point x="646" y="79"/>
      <point x="692" y="103"/>
      <point x="721" y="152" type="curve"/>
      <point x="814" y="115" type="line"/>
      <point x="764" y="32"/>
      <point x="687" y="-10"/>
      <point x="584" y="-10" type="curve" smooth="yes"/>
      <point x="488" y="-10"/>
      <point x="429" y="26"/>
      <point x="393" y="107" type="curve"/>
      <point x="404" y="107" type="line"/>
      <point x="388" y="34"/>
      <point x="316" y="-10"/>
    </contour>
    <contour>
      <point x="222" y="72" type="curve" smooth="yes"/>
      <point x="302" y="72"/>
      <point x="343" y="110"/>
      <point x="352" y="190" type="curve"/>
      <point x="350" y="123" type="line"/>
      <point x="345" y="211" type="line"/>
      <point x="359" y="184" type="line"/>
      <point x="325" y="204"/>
      <point x="284" y="214"/>
      <point x="241" y="214" type="curve" smooth="yes"/>
      <point x="173" y="214"/>
      <point x="137" y="187"/>
      <point x="137" y="136" type="curve" smooth="yes"/>
      <point x="137" y="92"/>
      <point x="164" y="72"/>
    </contour>
    <contour>
      <point x="458" y="238" type="curve"/>
      <point x="438" y="280" type="line"/>
      <point x="724" y="280" type="line"/>
      <point x="701" y="250" type="line"/>
      <point x="703" y="256"/>
      <point x="703" y="258"/>
      <point x="703" y="266" type="curve" smooth="yes"/>
      <point x="703" y="342"/>
      <point x="659" y="388"/>
      <point x="587" y="388" type="curve" smooth="yes"/>
      <point x="508" y="388"/>
      <point x="458" y="331"/>
    </contour>
  </outline>
</glyph>
<glyph name="ccedilla" format="2">
  <advance width="484"/>
  <unicode hex="00E7"/>
  <outline>
    <contour>
      <point x="141" y="230" type="curve" smooth="yes"/>
      <point x="141" y="143"/>
      <point x="203" y="83"/>
      <point x="284" y="83" type="curve" smooth="yes"/>
      <point x="350" y="83"/>
      <point x="411" y="116"/>
      <point x="434" y="161" type="curve"/>
      <point x="434" y="42" type="line"/>
      <point x="402" y="9"/>
      <point x="344" y="-10"/>
      <point x="279" y="-10" type="curve" smooth="yes"/>
      <point x="136" y="-10"/>
      <point x="30" y="89"/>
      <point x="30" y="230" type="curve" smooth="yes"/>
      <point x="30" y="371"/>
      <point x="136" y="470"/>
      <point x="279" y="470" type="curve" smooth="yes"/>
      <point x="344" y="470"/>
      <point x="402" y="450"/>
      <point x="434" y="419" type="curve"/>
      <point x="434" y="299" type="line"/>
      <point x="411" y="344"/>
      <point x="348" y="377"/>
      <point x="284" y="377" type="curve" smooth="yes"/>
      <point x="203" y="377"/>
      <point x="141" y="315"/>
    </contour>
    <contour>
      <point x="250" y="60" type="line"/>
      <point x="330" y="58" type="line"/>
      <point x="257" y="-58" type="line"/>
      <point x="263" y="-57"/>
      <point x="271" y="-56"/>
      <point x="278" y="-56" type="curve" smooth="yes"/>
      <point x="314" y="-56"/>
      <point x="357" y="-84"/>
      <point x="357" y="-140" type="curve" smooth="yes"/>
      <point x="357" y="-205"/>
      <point x="299" y="-240"/>
      <point x="241" y="-240" type="curve" smooth="yes"/>
      <point x="196" y="-240"/>
      <point x="166" y="-230"/>
      <point x="130" y="-201" type="curve"/>
      <point x="168" y="-150" type="line"/>
      <point x="189" y="-167"/>
      <point x="209" y="-174"/>
      <point x="233" y="-174" type="curve" smooth="yes"/>
      <point x="267" y="-174"/>
      <point x="285" y="-160"/>
      <point x="285" y="-136" type="curve" smooth="yes"/>
      <point x="285" y="-111"/>
      <point x="264" y="-102"/>
      <point x="231" y="-102" type="curve" smooth="yes"/>
      <point x="221" y="-102"/>
      <point x="190" y="-105"/>
      <point x="163" y="-119" type="curve"/>
    </contour>
  </outline>
</glyph>
<glyph name="iacute" format="2">
  <advance width="266"/>
  <unicode hex="00ED"/>
  <outline>
    <contour>
      <point x="80" y="460" type="line"/>
      <point x="186" y="460" type="line"/>
      <point x="186" y="0" type="line"/>
      <point x="80" y="0" type="line"/>
    </contour>
    <contour>
      <point x="298" y="695" type="line"/>
      <point x="118" y="545" type="line"/>
      <point x="57" y="580" type="line"/>
      <point x="207" y="740" type="line"/>
    </contour>
  </outline>
</glyph>
<glyph name="idieresis" format="2">
  <advance width="266"/>
  <unicode hex="00EF"/>
  <outline>
    <contour>
      <point x="80" y="460" type="line"/>
      <point x="186" y="460" type="line"/>
      <point x="186" y="0" type="line"/>
      <point x="80" y="0" type="line"/>
    </contour>
    <contour>
      <point x="174" y="619" type="curve" smooth="yes"/>
      <point x="174" y="656"/>
      <point x="204" y="684"/>
      <point x="242" y="684" type="curve" smooth="yes"/>
      <point x="280" y="684"/>
      <point x="310" y="656"/>
      <point x="310" y="619" type="curve" smooth="yes"/>
      <point x="310" y="582"/>
      <point x="280" y="553"/>
      <point x="242" y="553" type="curve" smooth="yes"/>
      <point x="204" y="553"/>
      <point x="174" y="582"/>
    </contour>
    <contour>
      <point x="-44" y="619" type="curve" smooth="yes"/>
      <point x="-44" y="656"/>
      <point x="-14" y="684"/>
      <point x="24" y="684" type="curve" smooth="yes"/>
      <point x="62" y="684"/>
      <point x="93" y="656"/>
      <point x="93" y="619" type="curve" smooth="yes"/>
      <point x="93" y="582"/>
      <point x="62" y="553"/>
      <point x="24" y="553" type="curve" smooth="yes"/>
      <point x="-14" y="553"/>
      <point x="-44" y="582"/>
    </contour>
  </outline>
</glyph>
<glyph name="eth" format="2">
  <advance width="596"/>
  <unicode hex="00F0"/>
  <outline>
    <contour>
      <point x="297" y="-12" type="curve" smooth="yes"/>
      <point x="153" y="-12"/>
      <point x="50" y="91"/>
      <point x="50" y="236" type="curve" smooth="yes"/>
      <point x="50" y="369"/>
      <point x="137" y="463"/>
      <point x="259" y="463" type="curve" smooth="yes"/>
      <point x="329" y="463"/>
      <point x="397" y="432"/>
      <point x="463" y="369" type="curve"/>
      <point x="419" y="370" type="line"/>
      <point x="365" y="478"/>
      <point x="282" y="573"/>
      <point x="159" y="675" type="curve"/>
      <point x="233" y="739" type="line"/>
      <point x="448" y="532"/>
      <point x="546" y="375"/>
      <point x="546" y="236" type="curve" smooth="yes"/>
      <point x="546" y="92"/>
      <point x="442" y="-12"/>
    </contour>
    <contour>
      <point x="298" y="87" type="curve" smooth="yes"/>
      <point x="378" y="87"/>
      <point x="435" y="147"/>
      <point x="435" y="230" type="curve" smooth="yes"/>
      <point x="435" y="314"/>
      <point x="377" y="375"/>
      <point x="298" y="375" type="curve" smooth="yes"/>
      <point x="219" y="375"/>
      <point x="161" y="314"/>
      <point x="161" y="230" type="curve" smooth="yes"/>
      <point x="161" y="147"/>
      <point x="218" y="87"/>
    </contour>
    <contour>
      <point x="173" y="505" type="line"/>
      <point x="156" y="555" type="line"/>
      <point x="463" y="664" type="line"/>
      <point x="480" y="614" type="line"/>
    </contour>
  </outline>
</glyph>
<glyph name="odieresis" format="2">
  <advance width="563"/>
  <unicode hex="00F6"/>
  <outline>
    <contour>
      <point x="34" y="230" type="curve" smooth="yes"/>
      <point x="34" y="371"/>
      <point x="141" y="470"/>
      <point x="282" y="470" type="curve" smooth="yes"/>
      <point x="423" y="470"/>
      <point x="530" y="371"/>
      <point x="530" y="230" type="curve" smooth="yes"/>
      <point x="530" y="89"/>
      <point x="423" y="-10"/>
      <point x="282" y="-10" type="curve" smooth="yes"/>
      <point x="141" y="-10"/>
      <point x="34" y="89"/>
    </contour>
    <contour>
      <point x="145" y="230" type="curve" smooth="yes"/>
      <point x="145" y="144"/>
      <point x="204" y="85"/>
      <point x="282" y="85" type="curve" smooth="yes"/>
      <point x="360" y="85"/>
      <point x="419" y="144"/>
      <point x="419" y="230" type="curve" smooth="yes"/>
      <point x="419" y="316"/>
      <point x="360" y="375"/>
      <point x="282" y="375" type="curve" smooth="yes"/>
      <point x="204" y="375"/>
      <point x="145" y="316"/>
    </contour>
    <contour>
      <point x="322" y="619" type="curve" smooth="yes"/>
      <point x="322" y="656"/>
      <point x="353" y="684"/>
      <point x="391" y="684" type="curve" smooth="yes"/>
      <point x="429" y="684"/>
      <point x="459" y="656"/>
      <point x="459" y="619" type="curve" smooth="yes"/>
      <point x="459" y="582"/>
      <point x="429" y="553"/>
      <point x="391" y="553" type="curve" smooth="yes"/>
      <point x="353" y="553"/>
      <point x="322" y="582"/>
    </contour>
    <contour>
      <point x="105" y="619" type="curve" smooth="yes"/>
      <point x="105" y="656"/>
      <point x="135" y="684"/>
      <point x="173" y="684" type="curve" smooth="yes"/>
      <point x="211" y="684"/>
      <point x="241" y="656"/>
      <point x="241" y="619" type="curve" smooth="yes"/>
      <point x="241" y="582"/>
      <point x="211" y="553"/>
      <point x="173" y="553" type="curve" smooth="yes"/>
      <point x="135" y="553"/>
      <point x="105" y="582"/>
    </contour>
  </outline>
</glyph>
<glyph name="divide" format="2">
  <advance width="629"/>
  <unicode hex="00F7"/>
  <outline>
    <contour>
      <point x="243" y="491" type="curve" smooth="yes"/>
      <point x="243" y="529"/>
      <point x="274" y="561"/>
      <point x="314" y="561" type="curve" smooth="yes"/>
      <point x="354" y="561"/>
      <point x="385" y="529"/>
      <point x="385" y="491" type="curve" smooth="yes"/>
      <point x="385" y="453"/>
      <point x="354" y="421"/>
      <point x="314" y="421" type="curve" smooth="yes"/>
      <point x="274" y="421"/>
      <point x="243" y="453"/>
    </contour>
    <contour>
      <point x="243" y="81" type="curve" smooth="yes"/>
      <point x="243" y="119"/>
      <point x="274" y="151"/>
      <point x="314" y="151" type="curve" smooth="yes"/>
      <point x="354" y="151"/>
      <point x="385" y="119"/>
      <point x="385" y="81" type="curve" smooth="yes"/>
      <point x="385" y="43"/>
      <point x="354" y="11"/>
      <point x="314" y="11" type="curve" smooth="yes"/>
      <point x="274" y="11"/>
      <point x="243" y="43"/>
    </contour>
    <contour>
      <point x="46" y="239" type="line"/>
      <point x="46" y="341" type="line"/>
      <point x="581" y="341" type="line"/>
      <point x="581" y="239" type="line"/>
    </contour>
  </outline>
</glyph>
<glyph name="ugrave" format="2">
  <advance width="545"/>
  <unicode hex="00F9"/>
  <outline>
    <contour>
      <point x="368" y="0" type="line"/>
      <point x="368" y="460" type="line"/>
      <point x="476" y="460" type="line"/>
      <point x="476" y="0" type="line"/>
    </contour>
    <contour>
      <point x="180" y="180" type="line" smooth="yes"/>
      <point x="180" y="113"/>
      <point x="206" y="77"/>
      <point x="265" y="77" type="curve" smooth="yes"/>
      <point x="326" y="77"/>
      <point x="368" y="119"/>
      <point x="368" y="180" type="curve"/>
      <point x="401" y="182" type="line"/>
      <point x="401" y="73"/>
      <point x="332" y="-10"/>
      <point x="229" y="-10" type="curve" smooth="yes"/>
      <point x="126" y="-10"/>
      <point x="69" y="51"/>
      <point x="69" y="168" type="curve" smooth="yes"/>
      <point x="69" y="460" type="line"/>
      <point x="180" y="460" type="line"/>
    </contour>
    <contour>
      <point x="142" y="695" type="line"/>
      <point x="234" y="740" type="line"/>
      <point x="384" y="580" type="line"/>
      <point x="322" y="545" type="line"/>
    </contour>
  </outline>
</glyph>
<glyph name="uacute" format="2">
  <advance width="545"/>
  <unicode hex="00FA"/>
  <outline>
    <contour>
      <point x="368" y="0" type="line"/>
      <point x="368" y="460" type="line"/>
      <point x="476" y="460" type="line"/>
      <point x="476" y="0" type="line"/>
    </contour>
    <contour>
      <point x="180" y="180" type="line" smooth="yes"/>
      <point x="180" y="113"/>
      <point x="206" y="77"/>
      <point x="265" y="77" type="curve" smooth="yes"/>
      <point x="326" y="77"/>
      <point x="368" y="119"/>
      <point x="368" y="180" type="curve"/>
      <point x="401" y="182" type="line"/>
      <point x="401" y="73"/>
      <point x="332" y="-10"/>
      <point x="229" y="-10" type="curve" smooth="yes"/>
      <point x="126" y="-10"/>
      <point x="69" y="51"/>
      <point x="69" y="168" type="curve" smooth="yes"/>
      <point x="69" y="460" type="line"/>
      <point x="180" y="460" type="line"/>
    </contour>
    <contour>
      <point x="402" y="695" type="line"/>
      <point x="222" y="545" type="line"/>
      <point x="162" y="580" type="line"/>
      <point x="312" y="740" type="line"/>
    </contour>
  </outline>
</glyph>
<glyph name="udieresis" format="2">
  <advance width="545"/>
  <unicode hex="00FC"/>
  <outline>
    <contour>
      <point x="368" y="0" type="line"/>
      <point x="368" y="460" type="line"/>
      <point x="476" y="460" type="line"/>
      <point x="476" y="0" type="line"/>
    </contour>
    <contour>
      <point x="180" y="180" type="line" smooth="yes"/>
      <point x="180" y="113"/>
      <point x="206" y="77"/>
      <point x="265" y="77" type="curve" smooth="yes"/>
      <point x="326" y="77"/>
      <point x="368" y="119"/>
      <point x="368" y="180" type="curve"/>
      <point x="401" y="182" type="line"/>
      <point x="401" y="73"/>
      <point x="332" y="-10"/>
      <point x="229" y="-10" type="curve" smooth="yes"/>
      <point x="126" y="-10"/>
      <point x="69" y="51"/>
      <point x="69" y="168" type="curve" smooth="yes"/>
      <point x="69" y="460" type="line"/>
      <point x="180" y="460" type="line"/>
    </contour>
    <contour>
      <point x="314" y="611" type="curve" smooth="yes"/>
      <point x="314" y="648"/>
      <point x="343" y="677"/>
      <point x="381" y="677" type="curve" smooth="yes"/>
      <point x="419" y="677"/>
      <point x="450" y="648"/>
      <point x="450" y="611" type="curve" smooth="yes"/>
      <point x="450" y="574"/>
      <point x="419" y="545"/>
      <point x="381" y="545" type="curve" smooth="yes"/>
      <point x="343" y="545"/>
      <point x="314" y="574"/>
    </contour>
    <contour>
      <point x="96" y="611" type="curve" smooth="yes"/>
      <point x="96" y="648"/>
      <point x="126" y="677"/>
      <point x="164" y="677" type="curve" smooth="yes"/>
      <point x="202" y="677"/>
      <point x="232" y="648"/>
      <point x="232" y="611" type="curve" smooth="yes"/>
      <point x="232" y="574"/>
      <point x="202" y="545"/>
      <point x="164" y="545" type="curve" smooth="yes"/>
      <point x="126" y="545"/>
      <point x="96" y="574"/>
    </contour>
  </outline>
</glyph>
<glyph name="yacute" format="2">
  <advance width="472"/>
  <unicode hex="00FD"/>
  <outline>
    <contour>
      <point x="476" y="460" type="line"/>
      <point x="176" y="-220" type="line"/>
      <point x="61" y="-220" type="line"/>
      <point x="182" y="54" type="line"/>
      <point x="-4" y="460" type="line"/>
      <point x="120" y="460" type="line"/>
      <point x="267" y="96" type="line"/>
      <point x="216" y="99" type="line"/>
      <point x="360" y="460" type="line"/>
    </contour>
    <contour>
      <point x="379" y="695" type="line"/>
      <point x="199" y="545" type="line"/>
      <point x="137" y="580" type="line"/>
      <point x="287" y="740" type="line"/>
    </contour>
  </outline>
</glyph>
<glyph name="Aogonek" format="2">
  <advance width="690"/>
  <unicode hex="0104"/>
  <outline>
    <contour>
      <point x="162" y="180" type="line"/>
      <point x="185" y="280" type="line"/>
      <point x="509" y="280" type="line"/>
      <point x="532" y="180" type="line"/>
    </contour>
    <contour>
      <point x="345" y="502" type="line"/>
      <point x="235" y="245" type="line"/>
      <point x="233" y="219" type="line"/>
      <point x="136" y="0" type="line"/>
      <point x="3" y="0" type="line"/>
      <point x="345" y="739" type="line"/>
      <point x="687" y="0" type="line"/>
      <point x="554" y="0" type="line"/>
      <point x="459" y="213" type="line"/>
      <point x="456" y="242" type="line"/>
    </contour>
    <contour>
      <point x="672" y="-122" type="curve"/>
      <point x="705" y="-180" type="line"/>
      <point x="690" y="-200"/>
      <point x="661" y="-220"/>
      <point x="613" y="-220" type="curve" smooth="yes"/>
      <point x="537" y="-220"/>
      <point x="492" y="-181"/>
      <point x="492" y="-120" type="curve" smooth="yes"/>
      <point x="492" y="-59"/>
      <point x="556" y="-11"/>
      <point x="626" y="25" type="curve"/>
      <point x="667" y="0" type="line"/>
      <point x="615" y="-24"/>
      <point x="580" y="-63"/>
      <point x="580" y="-98" type="curve" smooth="yes"/>
      <point x="580" y="-130"/>
      <point x="594" y="-142"/>
      <point x="622" y="-142" type="curve" smooth="yes"/>
      <point x="646" y="-142"/>
      <point x="658" y="-135"/>
    </contour>
  </outline>
</glyph>
<glyph name="aogonek" format="2">
  <advance width="508"/>
  <unicode hex="0105"/>
  <outline>
    <contour>
      <point x="137" y="136" type="curve" smooth="yes"/>
      <point x="137" y="93"/>
      <point x="175" y="72"/>
      <point x="222" y="72" type="curve" smooth="yes"/>
      <point x="292" y="72"/>
      <point x="345" y="101"/>
      <point x="345" y="182" type="curve"/>
      <point x="361" y="130" type="line"/>
      <point x="361" y="41"/>
      <point x="284" y="-10"/>
      <point x="189" y="-10" type="curve" smooth="yes"/>
      <point x="98" y="-10"/>
      <point x="28" y="39"/>
      <point x="28" y="132" type="curve" smooth="yes"/>
      <point x="28" y="227"/>
      <point x="104" y="283"/>
      <point x="225" y="283" type="curve" smooth="yes"/>
      <point x="305" y="283"/>
      <point x="362" y="246"/>
      <point x="378" y="227" type="curve"/>
      <point x="378" y="170" type="line"/>
      <point x="337" y="200"/>
      <point x="297" y="214"/>
      <point x="241" y="214" type="curve" smooth="yes"/>
      <point x="172" y="214"/>
      <point x="137" y="184"/>
    </contour>
    <contour>
      <point x="113" y="338" type="curve"/>
      <point x="70" y="416" type="line"/>
      <point x="112" y="441"/>
      <point x="176" y="471"/>
      <point x="259" y="471" type="curve" smooth="yes"/>
      <point x="372" y="471"/>
      <point x="451" y="419"/>
      <point x="451" y="328" type="curve" smooth="yes"/>
      <point x="451" y="0" type="line"/>
      <point x="345" y="0" type="line"/>
      <point x="345" y="316" type="line" smooth="yes"/>
      <point x="345" y="359"/>
      <point x="304" y="383"/>
      <point x="254" y="383" type="curve" smooth="yes"/>
      <point x="188" y="383"/>
      <point x="135" y="353"/>
    </contour>
    <contour>
      <point x="444" y="-122" type="curve"/>
      <point x="477" y="-180" type="line"/>
      <point x="462" y="-200"/>
      <point x="432" y="-220"/>
      <point x="384" y="-220" type="curve" smooth="yes"/>
      <point x="308" y="-220"/>
      <point x="263" y="-181"/>
      <point x="263" y="-120" type="curve" smooth="yes"/>
      <point x="263" y="-59"/>
      <point x="328" y="-11"/>
      <point x="398" y="25" type="curve"/>
      <point x="439" y="0" type="line"/>
      <point x="387" y="-24"/>
      <point x="351" y="-63"/>
      <point x="351" y="-98" type="curve" smooth="yes"/>
      <point x="351" y="-130"/>
      <point x="366" y="-142"/>
      <point x="394" y="-142" type="curve" smooth="yes"/>
      <point x="418" y="-142"/>
      <point x="430" y="-135"/>
    </contour>
  </outline>
</glyph>
<glyph name="emacron" format="2">
  <advance width="538"/>
  <unicode hex="0113"/>
  <outline>
    <contour>
      <point x="98" y="205" type="line"/>
      <point x="98" y="280" type="line"/>
      <point x="387" y="280" type="line"/>
      <point x="379" y="345"/>
      <point x="343" y="388"/>
      <point x="273" y="388" type="curve" smooth="yes"/>
      <point x="201" y="388"/>
      <point x="146" y="339"/>
      <point x="146" y="258" type="curve"/>
      <point x="144" y="230" type="line"/>
      <point x="144" y="129"/>
      <point x="196" y="79"/>
      <point x="274" y="79" type="curve" smooth="yes"/>
      <point x="336" y="79"/>
      <point x="379" y="107"/>
      <point x="406" y="152" type="curve"/>
      <point x="500" y="115" type="line"/>
      <point x="454" y="40"/>
      <point x="393" y="-10"/>
      <point x="269" y="-10" type="curve" smooth="yes"/>
      <point x="126" y="-10"/>
      <point x="34" y="91"/>
      <point x="34" y="230" type="curve" smooth="yes"/>
      <point x="34" y="247"/>
      <point x="35" y="263"/>
      <point x="38" y="279" type="curve" smooth="yes"/>
      <point x="57" y="392"/>
      <point x="143" y="470"/>
      <point x="274" y="470" type="curve" smooth="yes"/>
      <point x="416" y="470"/>
      <point x="504" y="380"/>
      <point x="504" y="235" type="curve" smooth="yes"/>
      <point x="504" y="227"/>
      <point x="504" y="216"/>
      <point x="503" y="205" type="curve"/>
    </contour>
    <contour>
      <point x="95" y="530" type="line"/>
      <point x="95" y="628" type="line"/>
      <point x="454" y="628" type="line"/>
      <point x="454" y="530" type="line"/>
    </contour>
  </outline>
</glyph>
<glyph name="Ecaron" format="2">
  <advance width="571"/>
  <unicode hex="011A"/>
  <outline>
    <contour>
      <point x="151" y="0" type="line"/>
      <point x="151" y="104" type="line"/>
      <point x="504" y="104" type="line"/>
      <point x="504" y="0" type="line"/>
    </contour>
    <contour>
      <point x="151" y="596" type="line"/>
      <point x="151" y="700" type="line"/>
      <point x="504" y="700" type="line"/>
      <point x="504" y="596" type="line"/>
    </contour>
    <contour>
      <point x="151" y="324" type="line"/>
      <point x="151" y="426" type="line"/>
      <point x="484" y="426" type="line"/>
      <point x="484" y="324" type="line"/>
    </contour>
    <contour>
      <point x="78" y="700" type="line"/>
      <point x="194" y="700" type="line"/>
      <point x="194" y="0" type="line"/>
      <point x="78" y="0" type="line"/>
    </contour>
    <contour>
      <point x="290" y="874" type="line"/>
      <point x="393" y="965" type="line"/>
      <point x="466" y="912" type="line"/>
      <point x="290" y="772" type="line"/>
      <point x="116" y="912" type="line"/>
      <point x="188" y="965" type="line"/>
    </contour>
  </outline>
</glyph>
<glyph name="Gcircumflex" format="2">
  <advance width="790"/>
  <unicode hex="011C"/>
  <outline>
    <contour>
      <point x="411" y="266" type="line"/>
      <point x="411" y="366" type="line"/>
      <point x="748" y="366" type="line"/>
      <point x="753" y="161"/>
      <point x="628" y="-15"/>
      <point x="404" y="-15" type="curve" smooth="yes"/>
      <point x="192" y="-15"/>
      <point x="38" y="136"/>
      <point x="38" y="350" type="curve" smooth="yes"/>
      <point x="38" y="564"/>
      <point x="194" y="712"/>
      <point x="406" y="712" type="curve" smooth="yes"/>
      <point x="543" y="712"/>
      <point x="645" y="654"/>
      <point x="707" y="557" type="curve"/>
      <point x="611" y="492" type="line"/>
      <point x="572" y="558"/>
      <point x="503" y="603"/>
      <point x="406" y="603" type="curve" smooth="yes"/>
      <point x="270" y="603"/>
      <point x="162" y="503"/>
      <point x="162" y="350" type="curve" smooth="yes"/>
      <point x="162" y="197"/>
      <point x="268" y="95"/>
      <point x="406" y="95" type="curve" smooth="yes"/>
      <point x="531" y="95"/>
      <point x="603" y="171"/>
      <point x="626" y="266" type="curve"/>
    </contour>
    <contour>
      <point x="406" y="864" type="line"/>
      <point x="304" y="772" type="line"/>
      <point x="231" y="825" type="line"/>
      <point x="406" y="965" type="line"/>
      <point x="581" y="825" type="line"/>
      <point x="509" y="772" type="line"/>
    </contour>
  </outline>
</glyph>
<glyph name="gbreve" format="2">
  <advance width="586"/>
  <unicode hex="011F"/>
  <outline>
    <contour>
      <point x="43" y="-31" type="curve"/>
      <point x="151" y="-31" type="line"/>
      <point x="153" y="-93"/>
      <point x="202" y="-140"/>
      <point x="280" y="-140" type="curve" smooth="yes"/>
      <point x="348" y="-140"/>
      <point x="415" y="-94"/>
      <point x="415" y="10" type="curve" smooth="yes"/>
      <point x="415" y="460" type="line"/>
      <point x="521" y="460" type="line"/>
      <point x="521" y="10" type="line" smooth="yes"/>
      <point x="521" y="-157"/>
      <point x="408" y="-234"/>
      <point x="283" y="-234" type="curve" smooth="yes"/>
      <point x="133" y="-234"/>
      <point x="47" y="-151"/>
    </contour>
    <contour>
      <point x="34" y="232" type="curve" smooth="yes"/>
      <point x="34" y="383"/>
      <point x="138" y="470"/>
      <point x="258" y="470" type="curve" smooth="yes"/>
      <point x="373" y="470"/>
      <point x="454" y="381"/>
      <point x="454" y="232" type="curve" smooth="yes"/>
      <point x="454" y="83"/>
      <point x="373" y="-5"/>
      <point x="258" y="-5" type="curve" smooth="yes"/>
      <point x="138" y="-5"/>
      <point x="34" y="81"/>
    </contour>
    <contour>
      <point x="146" y="232" type="curve" smooth="yes"/>
      <point x="146" y="140"/>
      <point x="209" y="89"/>
      <point x="284" y="89" type="curve" smooth="yes"/>
      <point x="346" y="89"/>
      <point x="415" y="138"/>
      <point x="415" y="232" type="curve" smooth="yes"/>
      <point x="415" y="326"/>
      <point x="346" y="376"/>
      <point x="284" y="376" type="curve" smooth="yes"/>
      <point x="209" y="376"/>
      <point x="146" y="324"/>
    </contour>
    <contour>
      <point x="125" y="673" type="curve"/>
      <point x="207" y="673" type="line"/>
      <point x="207" y="643"/>
      <point x="227" y="604"/>
      <point x="285" y="604" type="curve" smooth="yes"/>
      <point x="343" y="604"/>
      <point x="364" y="643"/>
      <point x="364" y="673" type="curve"/>
      <point x="446" y="673" type="line"/>
      <point x="446" y="599"/>
      <point x="390" y="530"/>
      <point x="285" y="530" type="curve" smooth="yes"/>
      <point x="180" y="530"/>
      <point x="125" y="599"/>
    </contour>
  </outline>
</glyph>
<glyph name="Gdotaccent" format="2">
  <advance width="790"/>
  <unicode hex="0120"/>
  <outline>
    <contour>
      <point x="411" y="266" type="line"/>
      <point x="411" y="366" type="line"/>
      <point x="748" y="366" type="line"/>
      <point x="753" y="161"/>
      <point x="628" y="-15"/>
      <point x="404" y="-15" type="curve" smooth="yes"/>
      <point x="192" y="-15"/>
      <point x="38" y="136"/>
      <point x="38" y="350" type="curve" smooth="yes"/>
      <point x="38" y="564"/>
      <point x="194" y="712"/>
      <point x="406" y="712" type="curve" smooth="yes"/>
      <point x="543" y="712"/>
      <point x="645" y="654"/>
      <point x="707" y="557" type="curve"/>
      <point x="611" y="492" type="line"/>
      <point x="572" y="558"/>
      <point x="503" y="603"/>
      <point x="406" y="603" type="curve" smooth="yes"/>
      <point x="270" y="603"/>
      <point x="162" y="503"/>
      <point x="162" y="350" type="curve" smooth="yes"/>
      <point x="162" y="197"/>
      <point x="268" y="95"/>
      <point x="406" y="95" type="curve" smooth="yes"/>
      <point x="531" y="95"/>
      <point x="603" y="171"/>
      <point x="626" y="266" type="curve"/>
    </contour>
    <contour>
      <point x="338" y="838" type="curve" smooth="yes"/>
      <point x="338" y="875"/>
      <point x="368" y="904"/>
      <point x="406" y="904" type="curve" smooth="yes"/>
      <point x="444" y="904"/>
      <point x="474" y="875"/>
      <point x="474" y="838" type="curve" smooth="yes"/>
      <point x="474" y="801"/>
      <point x="444" y="772"/>
      <point x="406" y="772" type="curve" smooth="yes"/>
      <point x="368" y="772"/>
      <point x="338" y="801"/>
    </contour>
  </outline>
</glyph>
<glyph name="uni0122" format="2">
  <advance width="790"/>
  <unicode hex="0122"/>
  <outline>
    <contour>
      <point x="411" y="266" type="line"/>
      <point x="411" y="366" type="line"/>
      <point x="748" y="366" type="line"/>
      <point x="753" y="161"/>
      <point x="628" y="-15"/>
      <point x="404" y="-15" type="curve" smooth="yes"/>
      <point x="192" y="-15"/>
      <point x="38" y="136"/>
      <point x="38" y="350" type="curve" smooth="yes"/>
      <point x="38" y="564"/>
      <point x="194" y="712"/>
      <point x="406" y="712" type="curve" smooth="yes"/>
      <point x="543" y="712"/>
      <point x="645" y="654"/>
      <point x="707" y="557" type="curve"/>
      <point x="611" y="492" type="line"/>
      <point x="572" y="558"/>
      <point x="503" y="603"/>
      <point x="406" y="603" type="curve" smooth="yes"/>
      <point x="270" y="603"/>
      <point x="162" y="503"/>
      <point x="162" y="350" type="curve" smooth="yes"/>
      <point x="162" y="197"/>
      <point x="268" y="95"/>
      <point x="406" y="95" type="curve" smooth="yes"/>
      <point x="531" y="95"/>
      <point x="603" y="171"/>
      <point x="626" y="266" type="curve"/>
    </contour>
    <contour>
      <point x="381" y="-75" type="line"/>
      <point x="490" y="-106" type="line"/>
      <point x="373" y="-356" type="line"/>
      <point x="293" y="-334" type="line"/>
    </contour>
  </outline>
</glyph>
<glyph name="uni0123" format="2">
  <advance width="570"/>
  <unicode hex="0123"/>
  <outline>
    <contour>
      <point x="43" y="-31" type="curve"/>
      <point x="151" y="-31" type="line"/>
      <point x="153" y="-93"/>
      <point x="202" y="-140"/>
      <point x="280" y="-140" type="curve" smooth="yes"/>
      <point x="348" y="-140"/>
      <point x="415" y="-94"/>
      <point x="415" y="10" type="curve" smooth="yes"/>
      <point x="415" y="460" type="line"/>
      <point x="521" y="460" type="line"/>
      <point x="521" y="10" type="line" smooth="yes"/>
      <point x="521" y="-157"/>
      <point x="408" y="-234"/>
      <point x="283" y="-234" type="curve" smooth="yes"/>
      <point x="133" y="-234"/>
      <point x="47" y="-151"/>
    </contour>
    <contour>
      <point x="34" y="232" type="curve" smooth="yes"/>
      <point x="34" y="383"/>
      <point x="138" y="470"/>
      <point x="258" y="470" type="curve" smooth="yes"/>
      <point x="373" y="470"/>
      <point x="454" y="381"/>
      <point x="454" y="232" type="curve" smooth="yes"/>
      <point x="454" y="83"/>
      <point x="373" y="-5"/>
      <point x="258" y="-5" type="curve" smooth="yes"/>
      <point x="138" y="-5"/>
      <point x="34" y="81"/>
    </contour>
    <contour>
      <point x="146" y="232" type="curve" smooth="yes"/>
      <point x="146" y="140"/>
      <point x="209" y="89"/>
      <point x="284" y="89" type="curve" smooth="yes"/>
      <point x="346" y="89"/>
      <point x="415" y="138"/>
      <point x="415" y="232" type="curve" smooth="yes"/>
      <point x="415" y="326"/>
      <point x="346" y="376"/>
      <point x="284" y="376" type="curve" smooth="yes"/>
      <point x="209" y="376"/>
      <point x="146" y="324"/>
    </contour>
    <contour>
      <point x="293" y="544" type="line"/>
      <point x="191" y="592" type="line"/>
      <point x="344" y="821" type="line"/>
      <point x="420" y="787" type="line"/>
    </contour>
  </outline>
</glyph>
<glyph name="Hbar" format="2">
  <advance width="743"/>
  <unicode hex="0126"/>
  <outline>
    <contour>
      <point x="125" y="321" type="line"/>
      <point x="125" y="430" type="line"/>
      <point x="625" y="430" type="line"/>
      <point x="625" y="321" type="line"/>
    </contour>
    <contour>
      <point x="548" y="700" type="line"/>
      <point x="666" y="700" type="line"/>
      <point x="666" y="0" type="line"/>
      <point x="548" y="0" type="line"/>
    </contour>
    <contour>
      <point x="78" y="700" type="line"/>
      <point x="196" y="700" type="line"/>
      <point x="196" y="0" type="line"/>
      <point x="78" y="0" type="line"/>
    </contour>
    <contour>
      <point x="5" y="539" type="line"/>
      <point x="5" y="626" type="line"/>
      <point x="739" y="626" type="line"/>
      <point x="739" y="539" type="line"/>
    </contour>
  </outline>
</glyph>
<glyph name="imacron" format="2">
  <advance width="266"/>
  <unicode hex="012B"/>
  <outline>
    <contour>
      <point x="80" y="460" type="line"/>
      <point x="186" y="460" type="line"/>
      <point x="186" y="0" type="line"/>
      <point x="80" y="0" type="line"/>
    </contour>
    <contour>
      <point x="-46" y="530" type="line"/>
      <point x="-46" y="628" type="line"/>
      <point x="313" y="628" type="line"/>
      <point x="313" y="530" type="line"/>
    </contour>
  </outline>
</glyph>
<glyph name="Ibreve" format="2">
  <advance width="275"/>
  <unicode hex="012C"/>
  <outline>
    <contour>
      <point x="78" y="700" type="line"/>
      <point x="197" y="700" type="line"/>
      <point x="197" y="0" type="line"/>
      <point x="78" y="0" type="line"/>
    </contour>
    <contour>
      <point x="-23" y="915" type="curve"/>
      <point x="60" y="915" type="line"/>
      <point x="60" y="885"/>
      <point x="80" y="846"/>
      <point x="138" y="846" type="curve" smooth="yes"/>
      <point x="196" y="846"/>
      <point x="216" y="885"/>
      <point x="216" y="915" type="curve"/>
      <point x="298" y="915" type="line"/>
      <point x="298" y="841"/>
      <point x="243" y="772"/>
      <point x="138" y="772" type="curve" smooth="yes"/>
      <point x="33" y="772"/>
      <point x="-23" y="841"/>
    </contour>
  </outline>
</glyph>
<glyph name="ibreve" format="2">
  <advance width="266"/>
  <unicode hex="012D"/>
  <outline>
    <contour>
      <point x="80" y="460" type="line"/>
      <point x="186" y="460" type="line"/>
      <point x="186" y="0" type="line"/>
      <point x="80" y="0" type="line"/>
    </contour>
    <contour>
      <point x="-28" y="673" type="curve"/>
      <point x="55" y="673" type="line"/>
      <point x="55" y="643"/>
      <point x="75" y="604"/>
      <point x="133" y="604" type="curve" smooth="yes"/>
      <point x="191" y="604"/>
      <point x="211" y="643"/>
      <point x="211" y="673" type="curve"/>
      <point x="294" y="673" type="line"/>
      <point x="294" y="599"/>
      <point x="238" y="530"/>
      <point x="133" y="530" type="curve" smooth="yes"/>
      <point x="28" y="530"/>
      <point x="-28" y="599"/>
    </contour>
  </outline>
</glyph>
<glyph name="iogonek" format="2">
  <advance width="266"/>
  <unicode hex="012F"/>
  <outline>
    <contour>
      <point x="65" y="643" type="curve" smooth="yes"/>
      <point x="65" y="680"/>
      <point x="95" y="709"/>
      <point x="133" y="709" type="curve" smooth="yes"/>
      <point x="171" y="709"/>
      <point x="201" y="680"/>
      <point x="201" y="643" type="curve" smooth="yes"/>
      <point x="201" y="606"/>
      <point x="171" y="577"/>
      <point x="133" y="577" type="curve" smooth="yes"/>
      <point x="95" y="577"/>
      <point x="65" y="606"/>
    </contour>
    <contour>
      <point x="80" y="460" type="line"/>
      <point x="186" y="460" type="line"/>
      <point x="186" y="0" type="line"/>
      <point x="80" y="0" type="line"/>
    </contour>
    <contour>
      <point x="181" y="-122" type="curve"/>
      <point x="214" y="-180" type="line"/>
      <point x="199" y="-200"/>
      <point x="170" y="-220"/>
      <point x="122" y="-220" type="curve" smooth="yes"/>
      <point x="46" y="-220"/>
      <point x="1" y="-181"/>
      <point x="1" y="-120" type="curve" smooth="yes"/>
      <point x="1" y="-59"/>
      <point x="65" y="-11"/>
      <point x="135" y="25" type="curve"/>
      <point x="176" y="0" type="line"/>
      <point x="124" y="-24"/>
      <point x="89" y="-63"/>
      <point x="89" y="-98" type="curve" smooth="yes"/>
      <point x="89" y="-130"/>
      <point x="103" y="-142"/>
      <point x="131" y="-142" type="curve" smooth="yes"/>
      <point x="155" y="-142"/>
      <point x="167" y="-135"/>
    </contour>
  </outline>
</glyph>
<glyph name="IJ" format="2">
  <advance width="543"/>
  <unicode hex="0132"/>
  <outline>
    <contour>
      <point x="199" y="-88" type="line"/>
      <point x="215" y="-109"/>
      <point x="244" y="-122"/>
      <point x="278" y="-122" type="curve" smooth="yes"/>
      <point x="308" y="-122"/>
      <point x="345" y="-100"/>
      <point x="345" y="-36" type="curve" smooth="yes"/>
      <point x="345" y="700" type="line"/>
      <point x="466" y="700" type="line"/>
      <point x="466" y="-58" type="line" smooth="yes"/>
      <point x="466" y="-177"/>
      <point x="388" y="-228"/>
      <point x="282" y="-228" type="curve" smooth="yes"/>
      <point x="219" y="-228"/>
      <point x="160" y="-197"/>
      <point x="135" y="-175" type="curve"/>
    </contour>
    <contour>
      <point x="78" y="700" type="line"/>
      <point x="197" y="700" type="line"/>
      <point x="197" y="0" type="line"/>
      <point x="78" y="0" type="line"/>
    </contour>
  </outline>
</glyph>
<glyph name="ij" format="2">
  <advance width="524"/>
  <unicode hex="0133"/>
  <outline>
    <contour>
      <point x="323" y="643" type="curve" smooth="yes"/>
      <point x="323" y="680"/>
      <point x="353" y="709"/>
      <point x="391" y="709" type="curve" smooth="yes"/>
      <point x="429" y="709"/>
      <point x="459" y="680"/>
      <point x="459" y="643" type="curve" smooth="yes"/>
      <point x="459" y="606"/>
      <point x="429" y="577"/>
      <point x="391" y="577" type="curve" smooth="yes"/>
      <point x="353" y="577"/>
      <point x="323" y="606"/>
    </contour>
    <contour>
      <point x="241" y="-99" type="line"/>
      <point x="255" y="-120"/>
      <point x="273" y="-125"/>
      <point x="290" y="-125" type="curve" smooth="yes"/>
      <point x="320" y="-125"/>
      <point x="338" y="-102"/>
      <point x="338" y="-44" type="curve" smooth="yes"/>
      <point x="338" y="460" type="line"/>
      <point x="444" y="460" type="line"/>
      <point x="444" y="-65" type="line" smooth="yes"/>
      <point x="444" y="-172"/>
      <point x="391" y="-228"/>
      <point x="295" y="-228" type="curve" smooth="yes"/>
      <point x="242" y="-228"/>
      <point x="208" y="-203"/>
      <point x="191" y="-183" type="curve"/>
    </contour>
    <contour>
      <point x="65" y="643" type="curve" smooth="yes"/>
      <point x="65" y="680"/>
      <point x="95" y="709"/>
      <point x="133" y="709" type="curve" smooth="yes"/>
      <point x="171" y="709"/>
      <point x="201" y="680"/>
      <point x="201" y="643" type="curve" smooth="yes"/>
      <point x="201" y="606"/>
      <point x="171" y="577"/>
      <point x="133" y="577" type="curve" smooth="yes"/>
      <point x="95" y="577"/>
      <point x="65" y="606"/>
    </contour>
    <contour>
      <point x="80" y="460" type="line"/>
      <point x="186" y="460" type="line"/>
      <point x="186" y="0" type="line"/>
      <point x="80" y="0" type="line"/>
    </contour>
  </outline>
</glyph>
<glyph name="lcaron" format="2">
  <advance width="246"/>
  <unicode hex="013E"/>
  <outline>
    <contour>
      <point x="69" y="780" type="line"/>
      <point x="177" y="780" type="line"/>
      <point x="177" y="0" type="line"/>
      <point x="69" y="0" type="line"/>
    </contour>
    <contour>
      <point x="315" y="780" type="line"/>
      <point x="424" y="749" type="line"/>
      <point x="308" y="499" type="line"/>
      <point x="227" y="521" type="line"/>
    </contour>
  </outline>
</glyph>
<glyph name="ldot" format="2">
  <advance width="412"/>
  <unicode hex="0140"/>
  <outline>
    <contour>
      <point x="69" y="780" type="line"/>
      <point x="177" y="780" type="line"/>
      <point x="177" y="0" type="line"/>
      <point x="69" y="0" type="line"/>
    </contour>
    <contour>
      <point x="230" y="413" type="curve" smooth="yes"/>
      <point x="230" y="451"/>
      <point x="261" y="482"/>
      <point x="301" y="482" type="curve" smooth="yes"/>
      <point x="341" y="482"/>
      <point x="371" y="451"/>
      <point x="371" y="413" type="curve" smooth="yes"/>
      <point x="371" y="375"/>
      <point x="341" y="342"/>
      <point x="301" y="342" type="curve" smooth="yes"/>
      <point x="261" y="342"/>
      <point x="230" y="375"/>
    </contour>
  </outline>
</glyph>
<glyph name="Lslash" format="2">
  <advance width="483"/>
  <unicode hex="0141"/>
  <outline>
    <contour>
      <point x="5" y="328" type="line"/>
      <point x="-23" y="390" type="line"/>
      <point x="285" y="590" type="line"/>
      <point x="313" y="528" type="line"/>
    </contour>
    <contour>
      <point x="78" y="700" type="line"/>
      <point x="196" y="700" type="line"/>
      <point x="196" y="106" type="line"/>
      <point x="474" y="106" type="line"/>
      <point x="474" y="0" type="line"/>
      <point x="78" y="0" type="line"/>
    </contour>
  </outline>
</glyph>
<glyph name="lslash" format="2">
  <advance width="246"/>
  <unicode hex="0142"/>
  <outline>
    <contour>
      <point x="0" y="328" type="line"/>
      <point x="-27" y="390" type="line"/>
      <point x="255" y="567" type="line"/>
      <point x="283" y="505" type="line"/>
    </contour>
    <contour>
      <point x="69" y="780" type="line"/>
      <point x="177" y="780" type="line"/>
      <point x="177" y="0" type="line"/>
      <point x="69" y="0" type="line"/>
    </contour>
  </outline>
</glyph>
<glyph name="uni0145" format="2">
  <advance width="782"/>
  <unicode hex="0145"/>
  <outline>
    <contour>
      <point x="385" y="-43" type="line"/>
      <point x="493" y="-73" type="line"/>
      <point x="377" y="-323" type="line"/>
      <point x="297" y="-302" type="line"/>
    </contour>
    <contour>
      <point x="589" y="700" type="line"/>
      <point x="705" y="700" type="line"/>
      <point x="705" y="-35" type="line"/>
      <point x="194" y="470" type="line"/>
      <point x="194" y="0" type="line"/>
      <point x="78" y="0" type="line"/>
      <point x="78" y="735" type="line"/>
      <point x="589" y="230" type="line"/>
    </contour>
  </outline>
</glyph>
<glyph name="Eng" format="2">
  <advance width="782"/>
  <unicode hex="014A"/>
  <outline>
    <contour>
      <point x="556" y="-218" type="curve" smooth="yes"/>
      <point x="512" y="-218"/>
      <point x="480" y="-205"/>
      <point x="452" y="-174" type="curve"/>
      <point x="503" y="-90" type="line"/>
      <point x="515" y="-106"/>
      <point x="531" y="-116"/>
      <point x="551" y="-116" type="curve" smooth="yes"/>
      <point x="584" y="-116"/>
      <point x="599" y="-90"/>
      <point x="599" y="-34" type="curve" smooth="yes"/>
      <point x="599" y="64" type="line"/>
      <point x="194" y="470" type="line"/>
      <point x="194" y="0" type="line"/>
      <point x="78" y="0" type="line"/>
      <point x="78" y="735" type="line"/>
      <point x="589" y="230" type="line"/>
      <point x="589" y="700" type="line"/>
      <point x="705" y="700" type="line"/>
      <point x="705" y="-56" type="line" smooth="yes"/>
      <point x="705" y="-158"/>
      <point x="650" y="-218"/>
    </contour>
  </outline>
</glyph>
<glyph name="eng" format="2">
  <advance width="545"/>
  <unicode hex="014B"/>
  <outline>
    <contour>
      <point x="322" y="-228" type="curve" smooth="yes"/>
      <point x="281" y="-228"/>
      <point x="244" y="-212"/>
      <point x="218" y="-183" type="curve"/>
      <point x="269" y="-99" type="line"/>
      <point x="281" y="-117"/>
      <point x="297" y="-125"/>
      <point x="317" y="-125" type="curve" smooth="yes"/>
      <point x="349" y="-125"/>
      <point x="365" y="-99"/>
      <point x="365" y="-44" type="curve" smooth="yes"/>
      <point x="365" y="280" type="line" smooth="yes"/>
      <point x="365" y="349"/>
      <point x="337" y="383"/>
      <point x="280" y="383" type="curve" smooth="yes"/>
      <point x="220" y="383"/>
      <point x="177" y="342"/>
      <point x="177" y="279" type="curve" smooth="yes"/>
      <point x="177" y="0" type="line"/>
      <point x="69" y="0" type="line"/>
      <point x="69" y="460" type="line"/>
      <point x="177" y="460" type="line"/>
      <point x="177" y="390" type="line"/>
      <point x="207" y="442"/>
      <point x="256" y="470"/>
      <point x="316" y="470" type="curve" smooth="yes"/>
      <point x="420" y="470"/>
      <point x="476" y="407"/>
      <point x="476" y="292" type="curve" smooth="yes"/>
      <point x="476" y="-65" type="line" smooth="yes"/>
      <point x="476" y="-170"/>
      <point x="422" y="-228"/>
    </contour>
  </outline>
</glyph>
<glyph name="obreve" format="2">
  <advance width="563"/>
  <unicode hex="014F"/>
  <outline>
    <contour>
      <point x="34" y="230" type="curve" smooth="yes"/>
      <point x="34" y="371"/>
      <point x="141" y="470"/>
      <point x="282" y="470" type="curve" smooth="yes"/>
      <point x="423" y="470"/>
      <point x="530" y="371"/>
      <point x="530" y="230" type="curve" smooth="yes"/>
      <point x="530" y="89"/>
      <point x="423" y="-10"/>
      <point x="282" y="-10" type="curve" smooth="yes"/>
      <point x="141" y="-10"/>
      <point x="34" y="89"/>
    </contour>
    <contour>
      <point x="145" y="230" type="curve" smooth="yes"/>
      <point x="145" y="144"/>
      <point x="204" y="85"/>
      <point x="282" y="85" type="curve" smooth="yes"/>
      <point x="360" y="85"/>
      <point x="419" y="144"/>
      <point x="419" y="230" type="curve" smooth="yes"/>
      <point x="419" y="316"/>
      <point x="360" y="375"/>
      <point x="282" y="375" type="curve" smooth="yes"/>
      <point x="204" y="375"/>
      <point x="145" y="316"/>
    </contour>
    <contour>
      <point x="121" y="673" type="curve"/>
      <point x="204" y="673" type="line"/>
      <point x="204" y="643"/>
      <point x="224" y="604"/>
      <point x="282" y="604" type="curve" smooth="yes"/>
      <point x="340" y="604"/>
      <point x="360" y="643"/>
      <point x="360" y="673" type="curve"/>
      <point x="442" y="673" type="line"/>
      <point x="442" y="599"/>
      <point x="387" y="530"/>
      <point x="282" y="530" type="curve" smooth="yes"/>
      <point x="177" y="530"/>
      <point x="121" y="599"/>
    </contour>
  </outline>
</glyph>
<glyph name="oe" format="2">
  <advance width="900"/>
  <unicode hex="0153"/>
  <outline>
    <contour>
      <point x="750" y="250" type="line" smooth="yes"/>
      <point x="750" y="331"/>
      <point x="714" y="388"/>
      <point x="636" y="388" type="curve" smooth="yes"/>
      <point x="566" y="388"/>
      <point x="508" y="341"/>
      <point x="508" y="260" type="curve"/>
      <point x="506" y="230" type="line"/>
      <point x="506" y="132"/>
      <point x="556" y="77"/>
      <point x="636" y="77" type="curve" smooth="yes"/>
      <point x="698" y="77"/>
      <point x="739" y="107"/>
      <point x="768" y="152" type="curve"/>
      <point x="861" y="115" type="line"/>
      <point x="817" y="43"/>
      <point x="745" y="-10"/>
      <point x="646" y="-10" type="curve" smooth="yes"/>
      <point x="521" y="-10"/>
      <point x="430" y="91"/>
      <point x="430" y="230" type="curve" smooth="yes"/>
      <point x="430" y="247"/>
      <point x="431" y="263"/>
      <point x="434" y="279" type="curve" smooth="yes"/>
      <point x="453" y="392"/>
      <point x="539" y="470"/>
      <point x="658" y="470" type="curve" smooth="yes"/>
      <point x="768" y="470"/>
      <point x="865" y="379"/>
      <point x="865" y="234" type="curve" smooth="yes"/>
      <point x="865" y="226"/>
      <point x="865" y="213"/>
      <point x="864" y="205" type="curve"/>
      <point x="750" y="230" type="line"/>
    </contour>
    <contour>
      <point x="481" y="205" type="line"/>
      <point x="481" y="279" type="line"/>
      <point x="844" y="279" type="line"/>
      <point x="864" y="205" type="line"/>
    </contour>
    <contour>
      <point x="35" y="230" type="curve" smooth="yes"/>
      <point x="35" y="379"/>
      <point x="138" y="470"/>
      <point x="263" y="470" type="curve" smooth="yes"/>
      <point x="388" y="470"/>
      <point x="466" y="379"/>
      <point x="466" y="230" type="curve" smooth="yes"/>
      <point x="466" y="81"/>
      <point x="388" y="-10"/>
      <point x="263" y="-10" type="curve" smooth="yes"/>
      <point x="138" y="-10"/>
      <point x="35" y="81"/>
    </contour>
    <contour>
      <point x="144" y="230" type="curve" smooth="yes"/>
      <point x="144" y="136"/>
      <point x="206" y="85"/>
      <point x="281" y="85" type="curve" smooth="yes"/>
      <point x="346" y="85"/>
      <point x="402" y="136"/>
      <point x="402" y="230" type="curve" smooth="yes"/>
      <point x="402" y="324"/>
      <point x="346" y="375"/>
      <point x="281" y="375" type="curve" smooth="yes"/>
      <point x="206" y="375"/>
      <point x="144" y="324"/>
    </contour>
  </outline>
</glyph>
<glyph name="Scircumflex" format="2">
  <advance width="578"/>
  <unicode hex="015C"/>
  <outline>
    <contour>
      <point x="128" y="236" type="line"/>
      <point x="172" y="145"/>
      <point x="224" y="92"/>
      <point x="306" y="92" type="curve" smooth="yes"/>
      <point x="376" y="92"/>
      <point x="412" y="127"/>
      <point x="412" y="187" type="curve" smooth="yes"/>
      <point x="412" y="265"/>
      <point x="336" y="294"/>
      <point x="256" y="324" type="curve" smooth="yes"/>
      <point x="186" y="350"/>
      <point x="75" y="403"/>
      <point x="75" y="529" type="curve" smooth="yes"/>
      <point x="75" y="640"/>
      <point x="169" y="712"/>
      <point x="295" y="712" type="curve" smooth="yes"/>
      <point x="423" y="712"/>
      <point x="499" y="632"/>
      <point x="527" y="561" type="curve"/>
      <point x="435" y="504" type="line"/>
      <point x="405" y="560"/>
      <point x="367" y="607"/>
      <point x="299" y="607" type="curve" smooth="yes"/>
      <point x="237" y="607"/>
      <point x="198" y="574"/>
      <point x="198" y="523" type="curve" smooth="yes"/>
      <point x="198" y="463"/>
      <point x="275" y="434"/>
      <point x="359" y="403" type="curve" smooth="yes"/>
      <point x="442" y="373"/>
      <point x="537" y="317"/>
      <point x="537" y="192" type="curve" smooth="yes"/>
      <point x="537" y="63"/>
      <point x="451" y="-15"/>
      <point x="302" y="-15" type="curve" smooth="yes"/>
      <point x="182" y="-15"/>
      <point x="82" y="62"/>
      <point x="38" y="177" type="curve"/>
    </contour>
    <contour>
      <point x="295" y="864" type="line"/>
      <point x="193" y="772" type="line"/>
      <point x="120" y="825" type="line"/>
      <point x="295" y="965" type="line"/>
      <point x="470" y="825" type="line"/>
      <point x="398" y="772" type="line"/>
    </contour>
  </outline>
</glyph>
<glyph name="scircumflex" format="2">
  <advance width="424"/>
  <unicode hex="015D"/>
  <outline>
    <contour>
      <point x="88" y="167" type="line"/>
      <point x="122" y="109"/>
      <point x="173" y="78"/>
      <point x="220" y="78" type="curve" smooth="yes"/>
      <point x="261" y="78"/>
      <point x="286" y="92"/>
      <point x="286" y="125" type="curve" smooth="yes"/>
      <point x="286" y="169"/>
      <point x="228" y="185"/>
      <point x="175" y="208" type="curve" smooth="yes"/>
      <point x="113" y="234"/>
      <point x="49" y="266"/>
      <point x="49" y="344" type="curve" smooth="yes"/>
      <point x="49" y="425"/>
      <point x="128" y="470"/>
      <point x="212" y="470" type="curve" smooth="yes"/>
      <point x="287" y="470"/>
      <point x="360" y="435"/>
      <point x="390" y="389" type="curve"/>
      <point x="330" y="325" type="line"/>
      <point x="302" y="358"/>
      <point x="253" y="380"/>
      <point x="216" y="380" type="curve" smooth="yes"/>
      <point x="179" y="380"/>
      <point x="155" y="369"/>
      <point x="155" y="339" type="curve" smooth="yes"/>
      <point x="155" y="307"/>
      <point x="216" y="288"/>
      <point x="270" y="267" type="curve" smooth="yes"/>
      <point x="335" y="241"/>
      <point x="397" y="202"/>
      <point x="397" y="130" type="curve" smooth="yes"/>
      <point x="397" y="29"/>
      <point x="329" y="-14"/>
      <point x="225" y="-14" type="curve" smooth="yes"/>
      <point x="135" y="-14"/>
      <point x="55" y="37"/>
      <point x="23" y="104" type="curve"/>
    </contour>
    <contour>
      <point x="217" y="621" type="line"/>
      <point x="114" y="530" type="line"/>
      <point x="42" y="583" type="line"/>
      <point x="217" y="723" type="line"/>
      <point x="392" y="583" type="line"/>
      <point x="319" y="530" type="line"/>
    </contour>
  </outline>
</glyph>
<glyph name="Scedilla" format="2">
  <advance width="578"/>
  <unicode hex="015E"/>
  <outline>
    <contour>
      <point x="128" y="236" type="line"/>
      <point x="172" y="145"/>
      <point x="224" y="92"/>
      <point x="306" y="92" type="curve" smooth="yes"/>
      <point x="376" y="92"/>
      <point x="412" y="127"/>
      <point x="412" y="187" type="curve" smooth="yes"/>
      <point x="412" y="265"/>
      <point x="336" y="294"/>
      <point x="256" y="324" type="curve" smooth="yes"/>
      <point x="186" y="350"/>
      <point x="75" y="392"/>
      <point x="75" y="525" type="curve" smooth="yes"/>
      <point x="75" y="636"/>
      <point x="161" y="712"/>
      <point x="295" y="712" type="curve" smooth="yes"/>
      <point x="423" y="712"/>
      <point x="492" y="640"/>
      <point x="527" y="561" type="curve"/>
      <point x="435" y="504" type="line"/>
      <point x="405" y="560"/>
      <point x="359" y="607"/>
      <point x="291" y="607" type="curve" smooth="yes"/>
      <point x="229" y="607"/>
      <point x="198" y="574"/>
      <point x="198" y="523" type="curve" smooth="yes"/>
      <point x="198" y="463"/>
      <point x="275" y="434"/>
      <point x="359" y="403" type="curve" smooth="yes"/>
      <point x="442" y="373"/>
      <point x="537" y="317"/>
      <point x="537" y="192" type="curve" smooth="yes"/>
      <point x="537" y="63"/>
      <point x="443" y="-15"/>
      <point x="302" y="-15" type="curve" smooth="yes"/>
      <point x="182" y="-15"/>
      <point x="82" y="62"/>
      <point x="38" y="177" type="curve"/>
    </contour>
    <contour>
      <point x="296" y="60" type="line"/>
      <point x="376" y="58" type="line"/>
      <point x="304" y="-58" type="line"/>
      <point x="310" y="-57"/>
      <point x="317" y="-56"/>
      <point x="324" y="-56" type="curve" smooth="yes"/>
      <point x="360" y="-56"/>
      <point x="404" y="-84"/>
      <point x="404" y="-140" type="curve" smooth="yes"/>
      <point x="404" y="-205"/>
      <point x="346" y="-240"/>
      <point x="288" y="-240" type="curve" smooth="yes"/>
      <point x="243" y="-240"/>
      <point x="212" y="-230"/>
      <point x="176" y="-201" type="curve"/>
      <point x="215" y="-150" type="line"/>
      <point x="236" y="-167"/>
      <point x="256" y="-174"/>
      <point x="280" y="-174" type="curve" smooth="yes"/>
      <point x="314" y="-174"/>
      <point x="332" y="-160"/>
      <point x="332" y="-136" type="curve" smooth="yes"/>
      <point x="332" y="-111"/>
      <point x="311" y="-102"/>
      <point x="278" y="-102" type="curve" smooth="yes"/>
      <point x="268" y="-102"/>
      <point x="237" y="-105"/>
      <point x="210" y="-119" type="curve"/>
    </contour>
  </outline>
</glyph>
<glyph name="scedilla" format="2">
  <advance width="424"/>
  <unicode hex="015F"/>
  <outline>
    <contour>
      <point x="86" y="168" type="line"/>
      <point x="136" y="108"/>
      <point x="187" y="77"/>
      <point x="224" y="77" type="curve" smooth="yes"/>
      <point x="260" y="77"/>
      <point x="286" y="92"/>
      <point x="286" y="125" type="curve" smooth="yes"/>
      <point x="286" y="168"/>
      <point x="238" y="186"/>
      <point x="185" y="206" type="curve" smooth="yes"/>
      <point x="121" y="231"/>
      <point x="54" y="256"/>
      <point x="54" y="344" type="curve" smooth="yes"/>
      <point x="54" y="430"/>
      <point x="128" y="471"/>
      <point x="212" y="471" type="curve" smooth="yes"/>
      <point x="287" y="471"/>
      <point x="352" y="435"/>
      <point x="390" y="389" type="curve"/>
      <point x="330" y="326" type="line"/>
      <point x="302" y="359"/>
      <point x="256" y="385"/>
      <point x="219" y="385" type="curve" smooth="yes"/>
      <point x="182" y="385"/>
      <point x="156" y="373"/>
      <point x="156" y="344" type="curve" smooth="yes"/>
      <point x="156" y="304"/>
      <point x="216" y="292"/>
      <point x="270" y="271" type="curve" smooth="yes"/>
      <point x="335" y="245"/>
      <point x="397" y="210"/>
      <point x="397" y="131" type="curve" smooth="yes"/>
      <point x="397" y="30"/>
      <point x="330" y="-13"/>
      <point x="233" y="-13" type="curve" smooth="yes"/>
      <point x="143" y="-13"/>
      <point x="69" y="37"/>
      <point x="23" y="104" type="curve"/>
    </contour>
    <contour>
      <point x="224" y="62" type="line"/>
      <point x="306" y="60" type="line"/>
      <point x="233" y="-56" type="line"/>
      <point x="239" y="-55"/>
      <point x="245" y="-54"/>
      <point x="252" y="-54" type="curve" smooth="yes"/>
      <point x="288" y="-54"/>
      <point x="333" y="-82"/>
      <point x="333" y="-138" type="curve" smooth="yes"/>
      <point x="333" y="-203"/>
      <point x="274" y="-238"/>
      <point x="216" y="-238" type="curve" smooth="yes"/>
      <point x="171" y="-238"/>
      <point x="142" y="-228"/>
      <point x="106" y="-199" type="curve"/>
      <point x="143" y="-148" type="line"/>
      <point x="164" y="-165"/>
      <point x="184" y="-172"/>
      <point x="208" y="-172" type="curve" smooth="yes"/>
      <point x="242" y="-172"/>
      <point x="260" y="-158"/>
      <point x="260" y="-134" type="curve" smooth="yes"/>
      <point x="260" y="-109"/>
      <point x="238" y="-100"/>
      <point x="205" y="-100" type="curve" smooth="yes"/>
      <point x="195" y="-100"/>
      <point x="166" y="-103"/>
      <point x="139" y="-117" type="curve"/>
    </contour>
  </outline>
</glyph>
<glyph name="Ubreve" format="2">
  <advance width="656"/>
  <unicode hex="016C"/>
  <outline>
    <contour>
      <point x="73" y="700" type="line"/>
      <point x="191" y="700" type="line"/>
      <point x="191" y="235" type="line" smooth="yes"/>
      <point x="191" y="149"/>
      <point x="238" y="91"/>
      <point x="328" y="91" type="curve" smooth="yes"/>
      <point x="418" y="91"/>
      <point x="465" y="149"/>
      <point x="465" y="235" type="curve" smooth="yes"/>
      <point x="465" y="700" type="line"/>
      <point x="583" y="700" type="line"/>
      <point x="583" y="230" type="line" smooth="yes"/>
      <point x="583" y="76"/>
      <point x="478" y="-18"/>
      <point x="328" y="-18" type="curve" smooth="yes"/>
      <point x="178" y="-18"/>
      <point x="73" y="76"/>
      <point x="73" y="230" type="curve" smooth="yes"/>
    </contour>
    <contour>
      <point x="167" y="915" type="curve"/>
      <point x="250" y="915" type="line"/>
      <point x="250" y="885"/>
      <point x="270" y="846"/>
      <point x="328" y="846" type="curve" smooth="yes"/>
      <point x="386" y="846"/>
      <point x="406" y="885"/>
      <point x="406" y="915" type="curve"/>
      <point x="489" y="915" type="line"/>
      <point x="489" y="841"/>
      <point x="433" y="772"/>
      <point x="328" y="772" type="curve" smooth="yes"/>
      <point x="223" y="772"/>
      <point x="167" y="841"/>
    </contour>
  </outline>
</glyph>
<glyph name="ubreve" format="2">
  <advance width="545"/>
  <unicode hex="016D"/>
  <outline>
    <contour>
      <point x="368" y="0" type="line"/>
      <point x="368" y="460" type="line"/>
      <point x="476" y="460" type="line"/>
      <point x="476" y="0" type="line"/>
    </contour>
    <contour>
      <point x="180" y="180" type="line" smooth="yes"/>
      <point x="180" y="113"/>
      <point x="206" y="77"/>
      <point x="265" y="77" type="curve" smooth="yes"/>
      <point x="326" y="77"/>
      <point x="368" y="119"/>
      <point x="368" y="180" type="curve"/>
      <point x="394" y="182" type="line"/>
      <point x="394" y="73"/>
      <point x="332" y="-10"/>
      <point x="229" y="-10" type="curve" smooth="yes"/>
      <point x="126" y="-10"/>
      <point x="69" y="51"/>
      <point x="69" y="168" type="curve" smooth="yes"/>
      <point x="69" y="460" type="line"/>
      <point x="180" y="460" type="line"/>
    </contour>
    <contour>
      <point x="112" y="673" type="curve"/>
      <point x="194" y="673" type="line"/>
      <point x="194" y="643"/>
      <point x="215" y="604"/>
      <point x="273" y="604" type="curve" smooth="yes"/>
      <point x="331" y="604"/>
      <point x="351" y="643"/>
      <point x="351" y="673" type="curve"/>
      <point x="433" y="673" type="line"/>
      <point x="433" y="599"/>
      <point x="378" y="530"/>
      <point x="273" y="530" type="curve" smooth="yes"/>
      <point x="168" y="530"/>
      <point x="112" y="599"/>
    </contour>
  </outline>
</glyph>
<glyph name="uring" format="2">
  <advance width="545"/>
  <unicode hex="016F"/>
  <outline>
    <contour>
      <point x="368" y="0" type="line"/>
      <point x="368" y="460" type="line"/>
      <point x="476" y="460" type="line"/>
      <point x="476" y="0" type="line"/>
    </contour>
    <contour>
      <point x="180" y="180" type="line" smooth="yes"/>
      <point x="180" y="113"/>
      <point x="206" y="77"/>
      <point x="265" y="77" type="curve" smooth="yes"/>
      <point x="326" y="77"/>
      <point x="368" y="119"/>
      <point x="368" y="180" type="curve"/>
      <point x="394" y="182" type="line"/>
      <point x="394" y="73"/>
      <point x="332" y="-10"/>
      <point x="229" y="-10" type="curve" smooth="yes"/>
      <point x="126" y="-10"/>
      <point x="69" y="51"/>
      <point x="69" y="168" type="curve" smooth="yes"/>
      <point x="69" y="460" type="line"/>
      <point x="180" y="460" type="line"/>
    </contour>
    <contour>
      <point x="161" y="636" type="curve" smooth="yes"/>
      <point x="161" y="700"/>
      <point x="213" y="743"/>
      <point x="272" y="743" type="curve" smooth="yes"/>
      <point x="331" y="743"/>
      <point x="384" y="700"/>
      <point x="384" y="636" type="curve" smooth="yes"/>
      <point x="384" y="572"/>
      <point x="331" y="530"/>
      <point x="272" y="530" type="curve" smooth="yes"/>
      <point x="213" y="530"/>
      <point x="161" y="572"/>
    </contour>
    <contour>
      <point x="223" y="636" type="curve" smooth="yes"/>
      <point x="223" y="604"/>
      <point x="247" y="586"/>
      <point x="272" y="586" type="curve" smooth="yes"/>
      <point x="297" y="586"/>
      <point x="322" y="604"/>
      <point x="322" y="636" type="curve" smooth="yes"/>
      <point x="322" y="668"/>
      <point x="297" y="687"/>
      <point x="272" y="687" type="curve" smooth="yes"/>
      <point x="247" y="687"/>
      <point x="223" y="668"/>
    </contour>
  </outline>
</glyph>
<glyph name="wcircumflex" format="2">
  <advance width="712"/>
  <unicode hex="0175"/>
  <outline>
    <contour>
      <point x="0" y="460" type="line"/>
      <point x="117" y="460" type="line"/>
      <point x="225" y="187" type="line"/>
      <point x="353" y="495" type="line"/>
      <point x="487" y="185" type="line"/>
      <point x="595" y="460" type="line"/>
      <point x="713" y="460" type="line"/>
      <point x="497" y="-33" type="line"/>
      <point x="353" y="278" type="line"/>
      <point x="215" y="-33" type="line"/>
    </contour>
    <contour>
      <point x="353" y="646" type="line"/>
      <point x="250" y="555" type="line"/>
      <point x="177" y="607" type="line"/>
      <point x="353" y="747" type="line"/>
      <point x="527" y="607" type="line"/>
      <point x="455" y="555" type="line"/>
    </contour>
  </outline>
</glyph>
<glyph name="Ydieresis" format="2">
  <advance width="600"/>
  <unicode hex="0178"/>
  <outline>
    <contour>
      <point x="116" y="843" type="curve" smooth="yes"/>
      <point x="116" y="880"/>
      <point x="146" y="908"/>
      <point x="184" y="908" type="curve" smooth="yes"/>
      <point x="222" y="908"/>
      <point x="253" y="880"/>
      <point x="253" y="843" type="curve" smooth="yes"/>
      <point x="253" y="806"/>
      <point x="222" y="777"/>
      <point x="184" y="777" type="curve" smooth="yes"/>
      <point x="146" y="777"/>
      <point x="116" y="806"/>
    </contour>
    <contour>
      <point x="349" y="843" type="curve" smooth="yes"/>
      <point x="349" y="880"/>
      <point x="378" y="908"/>
      <point x="416" y="908" type="curve" smooth="yes"/>
      <point x="454" y="908"/>
      <point x="485" y="880"/>
      <point x="485" y="843" type="curve" smooth="yes"/>
      <point x="485" y="806"/>
      <point x="454" y="777"/>
      <point x="416" y="777" type="curve" smooth="yes"/>
      <point x="378" y="777"/>
      <point x="349" y="806"/>
    </contour>
    <contour>
      <point x="463" y="700" type="line"/>
      <point x="598" y="700" type="line"/>
      <point x="361" y="295" type="line"/>
      <point x="361" y="0" type="line"/>
      <point x="240" y="0" type="line"/>
      <point x="240" y="294" type="line"/>
      <point x="3" y="700" type="line"/>
      <point x="138" y="700" type="line"/>
      <point x="300" y="400" type="line"/>
    </contour>
  </outline>
</glyph>
<glyph name="zdotaccent" format="2">
  <advance width="484"/>
  <unicode hex="017C"/>
  <outline>
    <contour>
      <point x="282" y="360" type="line"/>
      <point x="50" y="360" type="line"/>
      <point x="50" y="460" type="line"/>
      <point x="470" y="460" type="line"/>
      <point x="207" y="100" type="line"/>
      <point x="445" y="100" type="line"/>
      <point x="445" y="0" type="line"/>
      <point x="15" y="0" type="line"/>
    </contour>
    <contour>
      <point x="192" y="619" type="curve" smooth="yes"/>
      <point x="192" y="656"/>
      <point x="222" y="684"/>
      <point x="260" y="684" type="curve" smooth="yes"/>
      <point x="298" y="684"/>
      <point x="328" y="656"/>
      <point x="328" y="619" type="curve" smooth="yes"/>
      <point x="328" y="582"/>
      <point x="298" y="553"/>
      <point x="260" y="553" type="curve" smooth="yes"/>
      <point x="222" y="553"/>
      <point x="192" y="582"/>
    </contour>
  </outline>
</glyph>
<glyph name="zcaron" format="2">
  <advance width="482"/>
  <unicode hex="017E"/>
  <outline>
    <contour>
      <point x="260" y="631" type="line"/>
      <point x="363" y="722" type="line"/>
      <point x="435" y="670" type="line"/>
      <point x="260" y="530" type="line"/>
      <point x="85" y="670" type="line"/>
      <point x="157" y="722" type="line"/>
    </contour>
    <contour>
      <point x="283" y="360" type="line"/>
      <point x="50" y="360" type="line"/>
      <point x="50" y="460" type="line"/>
      <point x="470" y="460" type="line"/>
      <point x="207" y="100" type="line"/>
      <point x="445" y="100" type="line"/>
      <point x="445" y="0" type="line"/>
      <point x="15" y="0" type="line"/>
    </contour>
  </outline>
</glyph>
<glyph name="florin" format="2">
  <advance width="600"/>
  <unicode hex="0192"/>
  <outline>
    <contour>
      <point x="200" y="-200" type="curve" smooth="yes"/>
      <point x="165" y="-199"/>
      <point x="135" y="-187"/>
      <point x="95" y="-154" type="curve"/>
      <point x="144" y="-74" type="line"/>
      <point x="164" y="-94"/>
      <point x="176" y="-100"/>
      <point x="188" y="-100" type="curve" smooth="yes"/>
      <point x="217" y="-100"/>
      <point x="235" y="-70"/>
      <point x="239" y="-18" type="curve" smooth="yes"/>
      <point x="261" y="365" type="line"/>
      <point x="196" y="365" type="line"/>
      <point x="204" y="460" type="line"/>
      <point x="266" y="460" type="line"/>
      <point x="275" y="627" type="line"/>
      <point x="281" y="729"/>
      <point x="338" y="793"/>
      <point x="421" y="791" type="curve" smooth="yes"/>
      <point x="456" y="790"/>
      <point x="485" y="778"/>
      <point x="525" y="745" type="curve"/>
      <point x="476" y="665" type="line"/>
      <point x="456" y="685"/>
      <point x="444" y="691"/>
      <point x="432" y="691" type="curve" smooth="yes"/>
      <point x="403" y="691"/>
      <point x="386" y="660"/>
      <point x="382" y="608" type="curve" smooth="yes"/>
      <point x="372" y="460" type="line"/>
      <point x="456" y="460" type="line"/>
      <point x="450" y="365" type="line"/>
      <point x="367" y="365" type="line"/>
      <point x="345" y="-36" type="line" smooth="yes"/>
      <point x="339" y="-138"/>
      <point x="282" y="-202"/>
    </contour>
  </outline>
</glyph>
<glyph name="uni021B" format="2">
  <advance width="271"/>
  <unicode hex="021B"/>
  <outline>
    <contour>
      <point x="5" y="460" type="line"/>
      <point x="266" y="460" type="line"/>
      <point x="266" y="365" type="line"/>
      <point x="5" y="365" type="line"/>
    </contour>
    <contour>
      <point x="82" y="620" type="line"/>
      <point x="189" y="620" type="line"/>
      <point x="189" y="0" type="line"/>
      <point x="82" y="0" type="line"/>
    </contour>
    <contour>
      <point x="125" y="-60" type="line"/>
      <point x="234" y="-91" type="line"/>
      <point x="118" y="-341" type="line"/>
      <point x="37" y="-319" type="line"/>
    </contour>
  </outline>
</glyph>
<glyph name="tilde" format="2">
  <advance width="530"/>
  <unicode hex="02DC"/>
  <outline>
    <contour>
      <point x="90" y="630" type="line"/>
      <point x="100" y="679"/>
      <point x="147" y="717"/>
      <point x="200" y="717" type="curve" smooth="yes"/>
      <point x="265" y="717"/>
      <point x="274" y="668"/>
      <point x="329" y="668" type="curve" smooth="yes"/>
      <point x="350" y="668"/>
      <point x="369" y="686"/>
      <point x="389" y="718" type="curve"/>
      <point x="445" y="663" type="line"/>
      <point x="429" y="626"/>
      <point x="383" y="584"/>
      <point x="328" y="584" type="curve" smooth="yes"/>
      <point x="273" y="584"/>
      <point x="246" y="634"/>
      <point x="199" y="634" type="curve" smooth="yes"/>
      <point x="159" y="634"/>
      <point x="151" y="598"/>
      <point x="151" y="583" type="curve"/>
    </contour>
  </outline>
</glyph>
<glyph name="hungarumlaut" format="2">
  <unicode hex="02DD"/>
  <outline>
    <contour>
      <point x="68" y="516" type="line"/>
      <point x="0" y="536" type="line"/>
      <point x="108" y="728" type="line"/>
      <point x="206" y="704" type="line"/>
    </contour>
    <contour>
      <point x="241" y="516" type="line"/>
      <point x="174" y="536" type="line"/>
      <point x="281" y="728" type="line"/>
      <point x="381" y="704" type="line"/>
    </contour>
  </outline>
</glyph>
<glyph name="gravecomb" format="2">
  <unicode hex="0300"/>
  <outline>
    <contour>
      <point x="180" y="541" type="line"/>
      <point x="0" y="691" type="line"/>
      <point x="91" y="736" type="line"/>
      <point x="241" y="576" type="line"/>
    </contour>
  </outline>
</glyph>
<glyph name="acutecomb" format="2">
  <unicode hex="0301"/>
  <outline>
    <contour>
      <point x="76" y="543" type="line"/>
      <point x="15" y="577" type="line"/>
      <point x="165" y="737" type="line"/>
      <point x="256" y="693" type="line"/>
    </contour>
  </outline>
</glyph>
<glyph name="uni0302" format="2">
  <unicode hex="0302"/>
  <outline>
    <contour>
      <point x="51" y="548" type="line"/>
      <point x="0" y="611" type="line"/>
      <point x="159" y="738" type="line"/>
      <point x="318" y="611" type="line"/>
      <point x="267" y="548" type="line"/>
      <point x="142" y="654" type="line"/>
      <point x="176" y="654" type="line"/>
    </contour>
  </outline>
</glyph>
<glyph name="tildecomb" format="2">
  <unicode hex="0303"/>
  <outline>
    <contour>
      <point x="61" y="583" type="curve"/>
      <point x="0" y="630" type="line"/>
      <point x="10" y="679"/>
      <point x="62" y="717"/>
      <point x="113" y="717" type="curve" smooth="yes"/>
      <point x="179" y="717"/>
      <point x="184" y="668"/>
      <point x="237" y="668" type="curve" smooth="yes"/>
      <point x="260" y="668"/>
      <point x="278" y="686"/>
      <point x="299" y="718" type="curve"/>
      <point x="355" y="663" type="line"/>
      <point x="339" y="626"/>
      <point x="287" y="584"/>
      <point x="235" y="584" type="curve" smooth="yes"/>
      <point x="179" y="584"/>
      <point x="157" y="634"/>
      <point x="112" y="634" type="curve" smooth="yes"/>
      <point x="74" y="634"/>
      <point x="61" y="601"/>
    </contour>
  </outline>
</glyph>
<glyph name="uni0304" format="2">
  <unicode hex="0304"/>
  <outline>
    <contour>
      <point x="0" y="586" type="line"/>
      <point x="0" y="675" type="line"/>
      <point x="359" y="675" type="line"/>
      <point x="359" y="586" type="line"/>
    </contour>
  </outline>
</glyph>
<glyph name="uni0306" format="2">
  <unicode hex="0306"/>
  <outline>
    <contour>
      <point x="160" y="542" type="curve" smooth="yes"/>
      <point x="66" y="542"/>
      <point x="0" y="601"/>
      <point x="0" y="685" type="curve"/>
      <point x="89" y="685" type="line"/>
      <point x="89" y="645"/>
      <point x="119" y="616"/>
      <point x="160" y="616" type="curve" smooth="yes"/>
      <point x="201" y="616"/>
      <point x="232" y="645"/>
      <point x="232" y="685" type="curve"/>
      <point x="321" y="685" type="line"/>
      <point x="321" y="601"/>
      <point x="254" y="542"/>
    </contour>
  </outline>
</glyph>
<glyph name="uni0307" format="2">
  <unicode hex="0307"/>
  <outline>
    <contour>
      <point x="68" y="555" type="curve" smooth="yes"/>
      <point x="30" y="555"/>
      <point x="0" y="585"/>
      <point x="0" y="621" type="curve" smooth="yes"/>
      <point x="0" y="657"/>
      <point x="30" y="686"/>
      <point x="68" y="686" type="curve" smooth="yes"/>
      <point x="106" y="686"/>
      <point x="136" y="657"/>
      <point x="136" y="621" type="curve" smooth="yes"/>
      <point x="136" y="585"/>
      <point x="106" y="555"/>
    </contour>
  </outline>
</glyph>
<glyph name="uni0308" format="2">
  <unicode hex="0308"/>
  <outline>
    <contour>
      <point x="68" y="583" type="curve" smooth="yes"/>
      <point x="27" y="583"/>
      <point x="0" y="610"/>
      <point x="0" y="649" type="curve" smooth="yes"/>
      <point x="0" y="688"/>
      <point x="27" y="715"/>
      <point x="68" y="715" type="curve" smooth="yes"/>
      <point x="109" y="715"/>
      <point x="136" y="688"/>
      <point x="136" y="649" type="curve" smooth="yes"/>
      <point x="136" y="610"/>
      <point x="109" y="583"/>
    </contour>
    <contour>
      <point x="286" y="583" type="curve" smooth="yes"/>
      <point x="245" y="583"/>
      <point x="218" y="610"/>
      <point x="218" y="649" type="curve" smooth="yes"/>
      <point x="218" y="688"/>
      <point x="245" y="715"/>
      <point x="286" y="715" type="curve" smooth="yes"/>
      <point x="327" y="715"/>
      <point x="354" y="688"/>
      <point x="354" y="649" type="curve" smooth="yes"/>
      <point x="354" y="610"/>
      <point x="327" y="583"/>
    </contour>
  </outline>
</glyph>
<glyph name="uni030A" format="2">
  <unicode hex="030A"/>
  <outline>
    <contour>
      <point x="118" y="520" type="curve" smooth="yes"/>
      <point x="51" y="520"/>
      <point x="0" y="570"/>
      <point x="0" y="634" type="curve" smooth="yes"/>
      <point x="0" y="698"/>
      <point x="51" y="748"/>
      <point x="118" y="748" type="curve" smooth="yes"/>
      <point x="185" y="748"/>
      <point x="238" y="698"/>
      <point x="238" y="634" type="curve" smooth="yes"/>
      <point x="238" y="570"/>
      <point x="185" y="520"/>
    </contour>
    <contour>
      <point x="118" y="579" type="curve" smooth="yes"/>
      <point x="148" y="579"/>
      <point x="172" y="604"/>
      <point x="172" y="634" type="curve" smooth="yes"/>
      <point x="172" y="665"/>
      <point x="148" y="688"/>
      <point x="118" y="688" type="curve" smooth="yes"/>
      <point x="88" y="688"/>
      <point x="66" y="665"/>
      <point x="66" y="634" type="curve" smooth="yes"/>
      <point x="66" y="603"/>
      <point x="88" y="579"/>
    </contour>
  </outline>
</glyph>
<glyph name="uni030C" format="2">
  <unicode hex="030C"/>
  <outline>
    <contour>
      <point x="159" y="548" type="line"/>
      <point x="0" y="676" type="line"/>
      <point x="51" y="738" type="line"/>
      <point x="176" y="633" type="line"/>
      <point x="142" y="633" type="line"/>
      <point x="267" y="738" type="line"/>
      <point x="318" y="676" type="line"/>
    </contour>
  </outline>
</glyph>
<glyph name="uni0312" format="2">
  <unicode hex="0312"/>
  <outline>
    <contour>
      <point x="109" y="499" type="line"/>
      <point x="0" y="530" type="line"/>
      <point x="116" y="780" type="line"/>
      <point x="197" y="758" type="line"/>
    </contour>
  </outline>
</glyph>
<glyph name="uni0326" format="2">
  <unicode hex="0326"/>
  <outline>
    <contour>
      <point x="57" y="-214" type="line"/>
      <point x="0" y="-189" type="line"/>
      <point x="96" y="-18" type="line"/>
      <point x="174" y="-54" type="line"/>
    </contour>
  </outline>
</glyph>
<glyph name="uni0327" format="2">
  <unicode hex="0327"/>
  <outline>
    <contour>
      <point x="104" y="-218" type="curve" smooth="yes"/>
      <point x="64" y="-218"/>
      <point x="30" y="-210"/>
      <point x="0" y="-190" type="curve"/>
      <point x="25" y="-138" type="line"/>
      <point x="51" y="-152"/>
      <point x="71" y="-157"/>
      <point x="97" y="-157" type="curve" smooth="yes"/>
      <point x="127" y="-157"/>
      <point x="143" y="-143"/>
      <point x="143" y="-119" type="curve" smooth="yes"/>
      <point x="143" y="-97"/>
      <point x="128" y="-86"/>
      <point x="95" y="-86" type="curve" smooth="yes"/>
      <point x="79" y="-86"/>
      <point x="55" y="-87"/>
      <point x="39" y="-89" type="curve"/>
      <point x="114" y="64" type="line"/>
      <point x="185" y="63" type="line"/>
      <point x="115" y="-66" type="line"/>
      <point x="80" y="-61" type="line"/>
      <point x="95" y="-46"/>
      <point x="112" y="-40"/>
      <point x="141" y="-40" type="curve" smooth="yes"/>
      <point x="184" y="-40"/>
      <point x="214" y="-78"/>
      <point x="214" y="-120" type="curve" smooth="yes"/>
      <point x="214" y="-176"/>
      <point x="168" y="-218"/>
    </contour>
  </outline>
</glyph>
<glyph name="uni0328" format="2">
  <unicode hex="0328"/>
  <outline>
    <contour>
      <point x="121" y="-220" type="curve" smooth="yes"/>
      <point x="45" y="-220"/>
      <point x="0" y="-181"/>
      <point x="0" y="-120" type="curve" smooth="yes"/>
      <point x="0" y="-59"/>
      <point x="64" y="-11"/>
      <point x="134" y="25" type="curve"/>
      <point x="175" y="0" type="line"/>
      <point x="123" y="-24"/>
      <point x="88" y="-63"/>
      <point x="88" y="-98" type="curve" smooth="yes"/>
      <point x="88" y="-130"/>
      <point x="102" y="-142"/>
      <point x="130" y="-142" type="curve" smooth="yes"/>
      <point x="154" y="-142"/>
      <point x="166" y="-135"/>
      <point x="180" y="-122" type="curve"/>
      <point x="213" y="-180" type="line"/>
      <point x="198" y="-200"/>
      <point x="169" y="-220"/>
    </contour>
  </outline>
</glyph>
<glyph name="uni0394" format="2">
  <advance width="600"/>
  <unicode hex="0394"/>
  <outline>
    <contour>
      <point x="18" y="0" type="line"/>
      <point x="581" y="0" type="line"/>
      <point x="300" y="800" type="line"/>
    </contour>
    <contour>
      <point x="158" y="92" type="line"/>
      <point x="300" y="543" type="line"/>
      <point x="442" y="92" type="line"/>
    </contour>
  </outline>
</glyph>
<glyph name="uni03A9" format="2">
  <advance width="600"/>
  <unicode hex="03A9"/>
  <outline>
    <contour>
      <point x="66" y="0" type="line"/>
      <point x="265" y="0" type="line"/>
      <point x="265" y="88" type="line"/>
      <point x="212" y="131"/>
      <point x="173" y="218"/>
      <point x="173" y="295" type="curve" smooth="yes"/>
      <point x="173" y="386"/>
      <point x="220" y="438"/>
      <point x="300" y="438" type="curve" smooth="yes"/>
      <point x="380" y="438"/>
      <point x="426" y="386"/>
      <point x="426" y="295" type="curve" smooth="yes"/>
      <point x="426" y="217"/>
      <point x="387" y="131"/>
      <point x="334" y="88" type="curve"/>
      <point x="334" y="0" type="line"/>
      <point x="533" y="0" type="line"/>
      <point x="533" y="93" type="line"/>
      <point x="446" y="88" type="line"/>
      <point x="500" y="156"/>
      <point x="530" y="239"/>
      <point x="530" y="317" type="curve" smooth="yes"/>
      <point x="530" y="455"/>
      <point x="432" y="559"/>
      <point x="300" y="559" type="curve" smooth="yes"/>
      <point x="168" y="559"/>
      <point x="69" y="455"/>
      <point x="69" y="317" type="curve" smooth="yes"/>
      <point x="69" y="239"/>
      <point x="99" y="156"/>
      <point x="153" y="88" type="curve"/>
      <point x="66" y="93" type="line"/>
    </contour>
  </outline>
</glyph>
<glyph name="pi" format="2">
  <advance width="564"/>
  <unicode hex="03C0"/>
  <outline>
    <contour>
      <point x="90" y="430" type="line"/>
      <point x="195" y="430" type="line"/>
      <point x="195" y="0" type="line"/>
      <point x="90" y="0" type="line"/>
    </contour>
    <contour>
      <point x="30" y="460" type="line"/>
      <point x="525" y="460" type="line"/>
      <point x="525" y="365" type="line"/>
      <point x="30" y="365" type="line"/>
    </contour>
    <contour>
      <point x="340" y="430" type="line"/>
      <point x="445" y="430" type="line"/>
      <point x="445" y="156" type="line" smooth="yes"/>
      <point x="445" y="90"/>
      <point x="468" y="86"/>
      <point x="498" y="86" type="curve"/>
      <point x="498" y="-9" type="line"/>
      <point x="396" y="-9"/>
      <point x="340" y="7"/>
      <point x="340" y="121" type="curve" smooth="yes"/>
    </contour>
  </outline>
</glyph>
<glyph name="uni0400" format="2">
  <advance width="571"/>
  <unicode hex="0400"/>
  <outline>
    <contour>
      <point x="151" y="0" type="line"/>
      <point x="151" y="104" type="line"/>
      <point x="504" y="104" type="line"/>
      <point x="504" y="0" type="line"/>
    </contour>
    <contour>
      <point x="151" y="596" type="line"/>
      <point x="151" y="700" type="line"/>
      <point x="504" y="700" type="line"/>
      <point x="504" y="596" type="line"/>
    </contour>
    <contour>
      <point x="151" y="324" type="line"/>
      <point x="151" y="426" type="line"/>
      <point x="484" y="426" type="line"/>
      <point x="484" y="324" type="line"/>
    </contour>
    <contour>
      <point x="78" y="700" type="line"/>
      <point x="194" y="700" type="line"/>
      <point x="194" y="0" type="line"/>
      <point x="78" y="0" type="line"/>
    </contour>
    <contour>
      <point x="111" y="922" type="line"/>
      <point x="202" y="968" type="line"/>
      <point x="352" y="808" type="line"/>
      <point x="291" y="772" type="line"/>
    </contour>
  </outline>
</glyph>
<glyph name="uni0401" format="2">
  <advance width="571"/>
  <unicode hex="0401"/>
  <outline>
    <contour>
      <point x="151" y="0" type="line"/>
      <point x="151" y="104" type="line"/>
      <point x="504" y="104" type="line"/>
      <point x="504" y="0" type="line"/>
    </contour>
    <contour>
      <point x="151" y="596" type="line"/>
      <point x="151" y="700" type="line"/>
      <point x="504" y="700" type="line"/>
      <point x="504" y="596" type="line"/>
    </contour>
    <contour>
      <point x="151" y="324" type="line"/>
      <point x="151" y="426" type="line"/>
      <point x="484" y="426" type="line"/>
      <point x="484" y="324" type="line"/>
    </contour>
    <contour>
      <point x="78" y="700" type="line"/>
      <point x="194" y="700" type="line"/>
      <point x="194" y="0" type="line"/>
      <point x="78" y="0" type="line"/>
    </contour>
    <contour>
      <point x="331" y="838" type="curve" smooth="yes"/>
      <point x="331" y="875"/>
      <point x="361" y="904"/>
      <point x="399" y="904" type="curve" smooth="yes"/>
      <point x="437" y="904"/>
      <point x="468" y="875"/>
      <point x="468" y="838" type="curve" smooth="yes"/>
      <point x="468" y="801"/>
      <point x="437" y="772"/>
      <point x="399" y="772" type="curve" smooth="yes"/>
      <point x="361" y="772"/>
      <point x="331" y="801"/>
    </contour>
    <contour>
      <point x="114" y="838" type="curve" smooth="yes"/>
      <point x="114" y="875"/>
      <point x="144" y="904"/>
      <point x="182" y="904" type="curve" smooth="yes"/>
      <point x="220" y="904"/>
      <point x="250" y="875"/>
      <point x="250" y="838" type="curve" smooth="yes"/>
      <point x="250" y="801"/>
      <point x="220" y="772"/>
      <point x="182" y="772" type="curve" smooth="yes"/>
      <point x="144" y="772"/>
      <point x="114" y="801"/>
    </contour>
  </outline>
</glyph>
<glyph name="uni040C" format="2">
  <advance width="619"/>
  <unicode hex="040C"/>
  <outline>
    <contour>
      <point x="78" y="700" type="line"/>
      <point x="199" y="700" type="line"/>
      <point x="199" y="0" type="line"/>
      <point x="78" y="0" type="line"/>
    </contour>
    <contour>
      <point x="459" y="700" type="line"/>
      <point x="601" y="700" type="line"/>
      <point x="306" y="372" type="line"/>
      <point x="616" y="0" type="line"/>
      <point x="471" y="0" type="line"/>
      <point x="163" y="369" type="line"/>
    </contour>
    <contour>
      <point x="520" y="922" type="line"/>
      <point x="340" y="772" type="line"/>
      <point x="278" y="808" type="line"/>
      <point x="428" y="968" type="line"/>
    </contour>
  </outline>
</glyph>
<glyph name="uni040D" format="2">
  <advance width="782"/>
  <unicode hex="040D"/>
  <outline>
    <contour>
      <point x="700" y="573" type="line"/>
      <point x="78" y="-35" type="line"/>
      <point x="83" y="127" type="line"/>
      <point x="705" y="735" type="line"/>
    </contour>
    <contour>
      <point x="194" y="700" type="line"/>
      <point x="194" y="97" type="line"/>
      <point x="78" y="-35" type="line"/>
      <point x="78" y="700" type="line"/>
    </contour>
    <contour>
      <point x="705" y="735" type="line"/>
      <point x="705" y="0" type="line"/>
      <point x="589" y="0" type="line"/>
      <point x="589" y="600" type="line"/>
    </contour>
    <contour>
      <point x="253" y="900" type="line"/>
      <point x="344" y="945" type="line"/>
      <point x="494" y="785" type="line"/>
      <point x="433" y="750" type="line"/>
    </contour>
  </outline>
</glyph>
<glyph name="uni040E" format="2">
  <advance width="581"/>
  <unicode hex="040E"/>
  <outline>
    <contour>
      <point x="585" y="700" type="line"/>
      <point x="256" y="0" type="line"/>
      <point x="132" y="0" type="line"/>
      <point x="224" y="209" type="line"/>
      <point x="-4" y="700" type="line"/>
      <point x="133" y="700" type="line"/>
      <point x="319" y="251" type="line"/>
      <point x="258" y="254" type="line"/>
      <point x="460" y="700" type="line"/>
    </contour>
    <contour>
      <point x="132" y="915" type="curve"/>
      <point x="214" y="915" type="line"/>
      <point x="214" y="885"/>
      <point x="235" y="846"/>
      <point x="293" y="846" type="curve" smooth="yes"/>
      <point x="351" y="846"/>
      <point x="371" y="885"/>
      <point x="371" y="915" type="curve"/>
      <point x="453" y="915" type="line"/>
      <point x="453" y="841"/>
      <point x="398" y="772"/>
      <point x="293" y="772" type="curve" smooth="yes"/>
      <point x="188" y="772"/>
      <point x="132" y="841"/>
    </contour>
  </outline>
</glyph>
<glyph name="uni0411" format="2">
  <advance width="598"/>
  <unicode hex="0411"/>
  <outline>
    <contour>
      <point x="127" y="324" type="line"/>
      <point x="127" y="426" type="line"/>
      <point x="320" y="426" type="line" smooth="yes"/>
      <point x="455" y="426"/>
      <point x="558" y="343"/>
      <point x="558" y="214" type="curve" smooth="yes"/>
      <point x="558" y="85"/>
      <point x="455" y="0"/>
      <point x="320" y="0" type="curve" smooth="yes"/>
      <point x="127" y="0" type="line"/>
      <point x="127" y="104" type="line"/>
      <point x="305" y="104" type="line" smooth="yes"/>
      <point x="385" y="104"/>
      <point x="438" y="140"/>
      <point x="438" y="214" type="curve" smooth="yes"/>
      <point x="438" y="288"/>
      <point x="385" y="324"/>
      <point x="305" y="324" type="curve" smooth="yes"/>
    </contour>
    <contour>
      <point x="80" y="700" type="line"/>
      <point x="505" y="700" type="line"/>
      <point x="505" y="596" type="line"/>
      <point x="200" y="596" type="line"/>
      <point x="200" y="0" type="line"/>
      <point x="80" y="0" type="line"/>
    </contour>
  </outline>
</glyph>
<glyph name="uni0416" format="2">
  <advance width="971"/>
  <unicode hex="0416"/>
  <outline>
    <contour>
      <point x="160" y="700" type="line"/>
      <point x="456" y="370" type="line"/>
      <point x="145" y="0" type="line"/>
      <point x="3" y="0" type="line"/>
      <point x="315" y="372" type="line"/>
      <point x="18" y="700" type="line"/>
    </contour>
    <contour>
      <point x="429" y="700" type="line"/>
      <point x="550" y="700" type="line"/>
      <point x="550" y="0" type="line"/>
      <point x="429" y="0" type="line"/>
    </contour>
    <contour>
      <point x="809" y="700" type="line"/>
      <point x="954" y="700" type="line"/>
      <point x="656" y="372" type="line"/>
      <point x="969" y="0" type="line"/>
      <point x="824" y="0" type="line"/>
      <point x="523" y="370" type="line"/>
    </contour>
  </outline>
</glyph>
<glyph name="uni0417" format="2">
  <advance width="630"/>
  <unicode hex="0417"/>
  <outline>
    <contour>
      <point x="292" y="343" type="curve"/>
      <point x="292" y="406" type="line"/>
      <point x="397" y="406"/>
      <point x="453" y="453"/>
      <point x="453" y="513" type="curve" smooth="yes"/>
      <point x="453" y="570"/>
      <point x="411" y="611"/>
      <point x="330" y="611" type="curve" smooth="yes"/>
      <point x="250" y="611"/>
      <point x="196" y="570"/>
      <point x="196" y="514" type="curve"/>
      <point x="85" y="514" type="line"/>
      <point x="85" y="629"/>
      <point x="179" y="711"/>
      <point x="330" y="711" type="curve" smooth="yes"/>
      <point x="485" y="711"/>
      <point x="572" y="625"/>
      <point x="572" y="522" type="curve" smooth="yes"/>
      <point x="572" y="414"/>
      <point x="455" y="343"/>
    </contour>
    <contour>
      <point x="329" y="-12" type="curve" smooth="yes"/>
      <point x="145" y="-12"/>
      <point x="55" y="85"/>
      <point x="55" y="200" type="curve"/>
      <point x="174" y="200" type="line"/>
      <point x="179" y="133"/>
      <point x="231" y="90"/>
      <point x="327" y="90" type="curve" smooth="yes"/>
      <point x="423" y="90"/>
      <point x="473" y="130"/>
      <point x="473" y="200" type="curve" smooth="yes"/>
      <point x="473" y="275"/>
      <point x="404" y="317"/>
      <point x="292" y="317" type="curve"/>
      <point x="292" y="385" type="line"/>
      <point x="462" y="385"/>
      <point x="592" y="327"/>
      <point x="592" y="187" type="curve" smooth="yes"/>
      <point x="592" y="67"/>
      <point x="498" y="-12"/>
    </contour>
  </outline>
</glyph>
<glyph name="uni0418" format="2">
  <advance width="782"/>
  <unicode hex="0418"/>
  <outline>
    <contour>
      <point x="700" y="573" type="line"/>
      <point x="78" y="-35" type="line"/>
      <point x="83" y="127" type="line"/>
      <point x="705" y="735" type="line"/>
    </contour>
    <contour>
      <point x="194" y="700" type="line"/>
      <point x="194" y="97" type="line"/>
      <point x="78" y="-35" type="line"/>
      <point x="78" y="700" type="line"/>
    </contour>
    <contour>
      <point x="705" y="735" type="line"/>
      <point x="705" y="0" type="line"/>
      <point x="589" y="0" type="line"/>
      <point x="589" y="600" type="line"/>
    </contour>
  </outline>
</glyph>
<glyph name="uni0419" format="2">
  <advance width="782"/>
  <unicode hex="0419"/>
  <outline>
    <contour>
      <point x="700" y="573" type="line"/>
      <point x="78" y="-35" type="line"/>
      <point x="83" y="127" type="line"/>
      <point x="705" y="735" type="line"/>
    </contour>
    <contour>
      <point x="194" y="700" type="line"/>
      <point x="194" y="97" type="line"/>
      <point x="78" y="-35" type="line"/>
      <point x="78" y="700" type="line"/>
    </contour>
    <contour>
      <point x="705" y="735" type="line"/>
      <point x="705" y="0" type="line"/>
      <point x="589" y="0" type="line"/>
      <point x="589" y="600" type="line"/>
    </contour>
    <contour>
      <point x="257" y="910" type="curve"/>
      <point x="339" y="910" type="line"/>
      <point x="339" y="880"/>
      <point x="359" y="841"/>
      <point x="417" y="841" type="curve" smooth="yes"/>
      <point x="475" y="841"/>
      <point x="496" y="880"/>
      <point x="496" y="910" type="curve"/>
      <point x="578" y="910" type="line"/>
      <point x="578" y="836"/>
      <point x="522" y="767"/>
      <point x="417" y="767" type="curve" smooth="yes"/>
      <point x="312" y="767"/>
      <point x="257" y="836"/>
    </contour>
  </outline>
</glyph>
<glyph name="uni041A" format="2">
  <advance width="619"/>
  <unicode hex="041A"/>
  <outline>
    <contour>
      <point x="78" y="700" type="line"/>
      <point x="199" y="700" type="line"/>
      <point x="199" y="0" type="line"/>
      <point x="78" y="0" type="line"/>
    </contour>
    <contour>
      <point x="459" y="700" type="line"/>
      <point x="601" y="700" type="line"/>
      <point x="306" y="372" type="line"/>
      <point x="616" y="0" type="line"/>
      <point x="471" y="0" type="line"/>
      <point x="163" y="369" type="line"/>
    </contour>
  </outline>
</glyph>
<glyph name="uni0421" format="2">
  <advance width="691"/>
  <unicode hex="0421"/>
  <outline>
    <contour>
      <point x="166" y="350" type="curve" smooth="yes"/>
      <point x="166" y="201"/>
      <point x="277" y="103"/>
      <point x="405" y="103" type="curve" smooth="yes"/>
      <point x="504" y="103"/>
      <point x="576" y="146"/>
      <point x="624" y="203" type="curve"/>
      <point x="624" y="62" type="line"/>
      <point x="566" y="14"/>
      <point x="503" y="-12"/>
      <point x="401" y="-12" type="curve" smooth="yes"/>
      <point x="195" y="-12"/>
      <point x="38" y="137"/>
      <point x="38" y="350" type="curve" smooth="yes"/>
      <point x="38" y="563"/>
      <point x="195" y="712"/>
      <point x="401" y="712" type="curve" smooth="yes"/>
      <point x="503" y="712"/>
      <point x="566" y="686"/>
      <point x="624" y="638" type="curve"/>
      <point x="624" y="497" type="line"/>
      <point x="576" y="554"/>
      <point x="504" y="597"/>
      <point x="405" y="597" type="curve" smooth="yes"/>
      <point x="277" y="597"/>
      <point x="166" y="499"/>
    </contour>
  </outline>
</glyph>
<glyph name="uni0423" format="2">
  <advance width="586"/>
  <unicode hex="0423"/>
  <outline>
    <contour>
      <point x="590" y="700" type="line"/>
      <point x="261" y="0" type="line"/>
      <point x="135" y="0" type="line"/>
      <point x="227" y="209" type="line"/>
      <point x="-4" y="700" type="line"/>
      <point x="135" y="700" type="line"/>
      <point x="322" y="251" type="line"/>
      <point x="261" y="254" type="line"/>
      <point x="462" y="700" type="line"/>
    </contour>
  </outline>
</glyph>
<glyph name="uni0424" format="2">
  <advance width="843"/>
  <unicode hex="0424"/>
  <outline>
    <contour>
      <point x="361" y="700" type="line"/>
      <point x="482" y="700" type="line"/>
      <point x="482" y="0" type="line"/>
      <point x="361" y="0" type="line"/>
    </contour>
    <contour>
      <point x="683" y="350" type="curve" smooth="yes"/>
      <point x="683" y="461"/>
      <point x="596" y="510"/>
      <point x="468" y="510" type="curve" smooth="yes"/>
      <point x="375" y="510" type="line" smooth="yes"/>
      <point x="247" y="510"/>
      <point x="160" y="461"/>
      <point x="160" y="350" type="curve" smooth="yes"/>
      <point x="160" y="239"/>
      <point x="247" y="190"/>
      <point x="375" y="190" type="curve" smooth="yes"/>
      <point x="468" y="190" type="line" smooth="yes"/>
      <point x="596" y="190"/>
      <point x="683" y="239"/>
    </contour>
    <contour>
      <point x="803" y="350" type="curve" smooth="yes"/>
      <point x="803" y="181"/>
      <point x="665" y="80"/>
      <point x="481" y="80" type="curve" smooth="yes"/>
      <point x="362" y="80" type="line" smooth="yes"/>
      <point x="178" y="80"/>
      <point x="40" y="181"/>
      <point x="40" y="350" type="curve" smooth="yes"/>
      <point x="40" y="519"/>
      <point x="178" y="620"/>
      <point x="362" y="620" type="curve" smooth="yes"/>
      <point x="481" y="620" type="line" smooth="yes"/>
      <point x="665" y="620"/>
      <point x="803" y="519"/>
    </contour>
  </outline>
</glyph>
<glyph name="uni0425" format="2">
  <advance width="607"/>
  <unicode hex="0425"/>
  <outline>
    <contour>
      <point x="441" y="700" type="line"/>
      <point x="585" y="700" type="line"/>
      <point x="373" y="364" type="line"/>
      <point x="600" y="0" type="line"/>
      <point x="456" y="0" type="line"/>
      <point x="306" y="269" type="line"/>
      <point x="151" y="0" type="line"/>
      <point x="8" y="0" type="line"/>
      <point x="240" y="364" type="line"/>
      <point x="33" y="700" type="line"/>
      <point x="176" y="700" type="line"/>
      <point x="307" y="463" type="line"/>
    </contour>
  </outline>
</glyph>
<glyph name="uni0426" format="2">
  <advance width="800"/>
  <unicode hex="0426"/>
  <outline>
    <contour>
      <point x="197" y="109" type="line"/>
      <point x="548" y="109" type="line"/>
      <point x="548" y="700" type="line"/>
      <point x="667" y="700" type="line"/>
      <point x="667" y="109" type="line"/>
      <point x="762" y="109" type="line"/>
      <point x="762" y="-120" type="line"/>
      <point x="653" y="-120" type="line"/>
      <point x="653" y="0" type="line"/>
      <point x="78" y="0" type="line"/>
      <point x="78" y="700" type="line"/>
      <point x="197" y="700" type="line"/>
    </contour>
  </outline>
</glyph>
<glyph name="uni0427" format="2">
  <advance width="656"/>
  <unicode hex="0427"/>
  <outline>
    <contour>
      <point x="298" y="256" type="line"/>
      <point x="318" y="361" type="line"/>
      <point x="515" y="361" type="line"/>
      <point x="515" y="256" type="line"/>
    </contour>
    <contour>
      <point x="455" y="700" type="line"/>
      <point x="576" y="700" type="line"/>
      <point x="576" y="0" type="line"/>
      <point x="455" y="0" type="line"/>
    </contour>
    <contour>
      <point x="194" y="700" type="line"/>
      <point x="194" y="507" type="line" smooth="yes"/>
      <point x="194" y="422"/>
      <point x="240" y="361"/>
      <point x="318" y="361" type="curve"/>
      <point x="298" y="256" type="line"/>
      <point x="154" y="256"/>
      <point x="78" y="363"/>
      <point x="78" y="498" type="curve" smooth="yes"/>
      <point x="78" y="700" type="line"/>
    </contour>
  </outline>
</glyph>
<glyph name="uni042D" format="2">
  <advance width="691"/>
  <unicode hex="042D"/>
  <outline>
    <contour>
      <point x="134" y="299" type="line"/>
      <point x="134" y="401" type="line"/>
      <point x="537" y="401" type="line"/>
      <point x="537" y="299" type="line"/>
    </contour>
    <contour>
      <point x="533" y="350" type="curve" smooth="yes"/>
      <point x="533" y="499"/>
      <point x="414" y="599"/>
      <point x="286" y="599" type="curve" smooth="yes"/>
      <point x="187" y="599"/>
      <point x="113" y="557"/>
      <point x="68" y="505" type="curve"/>
      <point x="68" y="638" type="line"/>
      <point x="126" y="686"/>
      <point x="188" y="712"/>
      <point x="290" y="712" type="curve" smooth="yes"/>
      <point x="496" y="712"/>
      <point x="654" y="563"/>
      <point x="654" y="350" type="curve" smooth="yes"/>
      <point x="654" y="137"/>
      <point x="496" y="-12"/>
      <point x="290" y="-12" type="curve" smooth="yes"/>
      <point x="188" y="-12"/>
      <point x="126" y="14"/>
      <point x="68" y="62" type="curve"/>
      <point x="68" y="195" type="line"/>
      <point x="113" y="143"/>
      <point x="187" y="101"/>
      <point x="286" y="101" type="curve" smooth="yes"/>
      <point x="414" y="101"/>
      <point x="533" y="201"/>
    </contour>
  </outline>
</glyph>
<glyph name="uni042E" format="2">
  <advance width="1074"/>
  <unicode hex="042E"/>
  <outline>
    <contour>
      <point x="125" y="321" type="line"/>
      <point x="125" y="430" type="line"/>
      <point x="392" y="430" type="line"/>
      <point x="392" y="321" type="line"/>
    </contour>
    <contour>
      <point x="78" y="700" type="line"/>
      <point x="196" y="700" type="line"/>
      <point x="196" y="0" type="line"/>
      <point x="78" y="0" type="line"/>
    </contour>
    <contour>
      <point x="436" y="350" type="curve" smooth="yes"/>
      <point x="436" y="206"/>
      <point x="535" y="101"/>
      <point x="674" y="101" type="curve" smooth="yes"/>
      <point x="813" y="101"/>
      <point x="912" y="206"/>
      <point x="912" y="350" type="curve" smooth="yes"/>
      <point x="912" y="494"/>
      <point x="815" y="599"/>
      <point x="674" y="599" type="curve" smooth="yes"/>
      <point x="535" y="599"/>
      <point x="436" y="494"/>
    </contour>
    <contour>
      <point x="310" y="350" type="curve" smooth="yes"/>
      <point x="310" y="559"/>
      <point x="466" y="712"/>
      <point x="674" y="712" type="curve" smooth="yes"/>
      <point x="883" y="712"/>
      <point x="1038" y="559"/>
      <point x="1038" y="350" type="curve" smooth="yes"/>
      <point x="1038" y="141"/>
      <point x="884" y="-15"/>
      <point x="674" y="-15" type="curve" smooth="yes"/>
      <point x="464" y="-15"/>
      <point x="310" y="141"/>
    </contour>
  </outline>
</glyph>
<glyph name="uni0432" format="2">
  <advance width="481"/>
  <unicode hex="0432"/>
  <outline>
    <contour>
      <point x="138" y="240" type="line"/>
      <point x="284" y="240" type="line" smooth="yes"/>
      <point x="379" y="240"/>
      <point x="452" y="214"/>
      <point x="452" y="125" type="curve" smooth="yes"/>
      <point x="452" y="56"/>
      <point x="409" y="0"/>
      <point x="304" y="0" type="curve" smooth="yes"/>
      <point x="138" y="0" type="line"/>
      <point x="138" y="80" type="line"/>
      <point x="271" y="80" type="line" smooth="yes"/>
      <point x="323" y="80"/>
      <point x="347" y="106"/>
      <point x="347" y="137" type="curve" smooth="yes"/>
      <point x="347" y="168"/>
      <point x="323" y="193"/>
      <point x="271" y="193" type="curve" smooth="yes"/>
      <point x="138" y="193" type="line"/>
    </contour>
    <contour>
      <point x="138" y="220" type="line"/>
      <point x="138" y="272" type="line"/>
      <point x="261" y="272" type="line" smooth="yes"/>
      <point x="301" y="272"/>
      <point x="327" y="296"/>
      <point x="327" y="327" type="curve" smooth="yes"/>
      <point x="327" y="358"/>
      <point x="301" y="380"/>
      <point x="261" y="380" type="curve" smooth="yes"/>
      <point x="138" y="380" type="line"/>
      <point x="138" y="460" type="line"/>
      <point x="274" y="460" type="line" smooth="yes"/>
      <point x="359" y="460"/>
      <point x="432" y="424"/>
      <point x="432" y="335" type="curve" smooth="yes"/>
      <point x="432" y="256"/>
      <point x="359" y="220"/>
      <point x="274" y="220" type="curve" smooth="yes"/>
    </contour>
    <contour>
      <point x="75" y="460" type="line"/>
      <point x="181" y="460" type="line"/>
      <point x="181" y="0" type="line"/>
      <point x="75" y="0" type="line"/>
    </contour>
  </outline>
</glyph>
<glyph name="uni0434" format="2">
  <advance width="675"/>
  <unicode hex="0434"/>
  <outline>
    <contour>
      <point x="335" y="304" type="line"/>
      <point x="210" y="30" type="line"/>
      <point x="98" y="42" type="line"/>
      <point x="335" y="495" type="line"/>
      <point x="572" y="42" type="line"/>
      <point x="460" y="30" type="line"/>
    </contour>
    <contour>
      <point x="525" y="0" type="line"/>
      <point x="150" y="0" type="line"/>
      <point x="150" y="-90" type="line"/>
      <point x="40" y="-90" type="line"/>
      <point x="40" y="93" type="line"/>
      <point x="630" y="93" type="line"/>
      <point x="630" y="-90" type="line"/>
      <point x="525" y="-90" type="line"/>
    </contour>
  </outline>
</glyph>
<glyph name="uni0436" format="2">
  <advance width="757"/>
  <unicode hex="0436"/>
  <outline>
    <contour>
      <point x="607" y="460" type="line"/>
      <point x="737" y="460" type="line"/>
      <point x="533" y="262" type="line"/>
      <point x="757" y="0" type="line"/>
      <point x="627" y="0" type="line"/>
      <point x="407" y="270" type="line"/>
    </contour>
    <contour>
      <point x="430" y="460" type="line"/>
      <point x="430" y="0" type="line"/>
      <point x="328" y="0" type="line"/>
      <point x="328" y="460" type="line"/>
    </contour>
    <contour>
      <point x="150" y="460" type="line"/>
      <point x="350" y="270" type="line"/>
      <point x="130" y="0" type="line"/>
      <point x="0" y="0" type="line"/>
      <point x="225" y="262" type="line"/>
      <point x="20" y="460" type="line"/>
    </contour>
  </outline>
</glyph>
<glyph name="uni0437" format="2">
  <advance width="497"/>
  <unicode hex="0437"/>
  <outline>
    <contour>
      <point x="252" y="230" type="curve"/>
      <point x="252" y="278" type="line"/>
      <point x="305" y="278"/>
      <point x="328" y="302"/>
      <point x="328" y="332" type="curve" smooth="yes"/>
      <point x="328" y="364"/>
      <point x="303" y="383"/>
      <point x="262" y="383" type="curve" smooth="yes"/>
      <point x="211" y="383"/>
      <point x="186" y="349"/>
      <point x="186" y="318" type="curve"/>
      <point x="82" y="318" type="line"/>
      <point x="82" y="404"/>
      <point x="156" y="470"/>
      <point x="261" y="470" type="curve" smooth="yes"/>
      <point x="359" y="470"/>
      <point x="432" y="414"/>
      <point x="432" y="343" type="curve" smooth="yes"/>
      <point x="432" y="276"/>
      <point x="369" y="228"/>
    </contour>
    <contour>
      <point x="259" y="-10" type="curve" smooth="yes"/>
      <point x="141" y="-10"/>
      <point x="70" y="56"/>
      <point x="60" y="150" type="curve"/>
      <point x="166" y="150" type="line"/>
      <point x="175" y="108"/>
      <point x="201" y="75"/>
      <point x="259" y="75" type="curve" smooth="yes"/>
      <point x="314" y="75"/>
      <point x="348" y="100"/>
      <point x="348" y="140" type="curve" smooth="yes"/>
      <point x="348" y="182"/>
      <point x="314" y="207"/>
      <point x="252" y="207" type="curve"/>
      <point x="252" y="260" type="line"/>
      <point x="376" y="262"/>
      <point x="452" y="219"/>
      <point x="452" y="135" type="curve" smooth="yes"/>
      <point x="452" y="46"/>
      <point x="367" y="-10"/>
    </contour>
  </outline>
</glyph>
<glyph name="uni0439" format="2">
  <advance width="563"/>
  <unicode hex="0439"/>
  <outline>
    <contour>
      <point x="486" y="360" type="line"/>
      <point x="72" y="-35" type="line"/>
      <point x="77" y="100" type="line"/>
      <point x="491" y="495" type="line"/>
    </contour>
    <contour>
      <point x="179" y="460" type="line"/>
      <point x="179" y="87" type="line"/>
      <point x="72" y="-35" type="line"/>
      <point x="72" y="460" type="line"/>
    </contour>
    <contour>
      <point x="491" y="495" type="line"/>
      <point x="491" y="0" type="line"/>
      <point x="385" y="0" type="line"/>
      <point x="385" y="373" type="line"/>
    </contour>
    <contour>
      <point x="126" y="695" type="curve"/>
      <point x="208" y="695" type="line"/>
      <point x="208" y="665"/>
      <point x="228" y="626"/>
      <point x="286" y="626" type="curve" smooth="yes"/>
      <point x="344" y="626"/>
      <point x="364" y="665"/>
      <point x="364" y="695" type="curve"/>
      <point x="447" y="695" type="line"/>
      <point x="447" y="621"/>
      <point x="391" y="553"/>
      <point x="286" y="553" type="curve" smooth="yes"/>
      <point x="181" y="553"/>
      <point x="126" y="621"/>
    </contour>
  </outline>
</glyph>
<glyph name="uni043A" format="2">
  <advance width="494"/>
  <unicode hex="043A"/>
  <outline>
    <contour>
      <point x="65" y="460" type="line"/>
      <point x="171" y="460" type="line"/>
      <point x="171" y="0" type="line"/>
      <point x="65" y="0" type="line"/>
    </contour>
    <contour>
      <point x="340" y="460" type="line"/>
      <point x="472" y="460" type="line"/>
      <point x="274" y="270" type="line"/>
      <point x="492" y="0" type="line"/>
      <point x="361" y="0" type="line"/>
      <point x="142" y="270" type="line"/>
    </contour>
  </outline>
</glyph>
<glyph name="uni043C" format="2">
  <advance width="627"/>
  <unicode hex="043C"/>
  <outline>
    <contour>
      <point x="507" y="0" type="line"/>
      <point x="437" y="345" type="line"/>
      <point x="494" y="495" type="line"/>
      <point x="622" y="0" type="line"/>
    </contour>
    <contour>
      <point x="282" y="94" type="line"/>
      <point x="494" y="495" type="line"/>
      <point x="504" y="317" type="line"/>
      <point x="312" y="-31" type="line"/>
    </contour>
    <contour>
      <point x="312" y="-31" type="line"/>
      <point x="123" y="317" type="line"/>
      <point x="133" y="495" type="line"/>
      <point x="342" y="94" type="line"/>
    </contour>
    <contour>
      <point x="5" y="0" type="line"/>
      <point x="133" y="495" type="line"/>
      <point x="190" y="345" type="line"/>
      <point x="120" y="0" type="line"/>
    </contour>
  </outline>
</glyph>
<glyph name="uni043D" format="2">
  <advance width="585"/>
  <unicode hex="043D"/>
  <outline>
    <contour>
      <point x="116" y="197" type="line"/>
      <point x="116" y="288" type="line"/>
      <point x="468" y="288" type="line"/>
      <point x="468" y="197" type="line"/>
    </contour>
    <contour>
      <point x="410" y="460" type="line"/>
      <point x="516" y="460" type="line"/>
      <point x="516" y="0" type="line"/>
      <point x="410" y="0" type="line"/>
    </contour>
    <contour>
      <point x="69" y="460" type="line"/>
      <point x="175" y="460" type="line"/>
      <point x="175" y="0" type="line"/>
      <point x="69" y="0" type="line"/>
    </contour>
  </outline>
</glyph>
<glyph name="uni0445" format="2">
  <advance width="464"/>
  <unicode hex="0445"/>
  <outline>
    <contour>
      <point x="334" y="460" type="line"/>
      <point x="455" y="460" type="line"/>
      <point x="290" y="237" type="line"/>
      <point x="465" y="0" type="line"/>
      <point x="344" y="0" type="line"/>
      <point x="234" y="158" type="line"/>
      <point x="124" y="0" type="line"/>
      <point x="0" y="0" type="line"/>
      <point x="176" y="237" type="line"/>
      <point x="10" y="460" type="line"/>
      <point x="134" y="460" type="line"/>
      <point x="234" y="316" type="line"/>
    </contour>
  </outline>
</glyph>
<glyph name="uni044C" format="2">
  <advance width="507"/>
  <unicode hex="044C"/>
  <outline>
    <contour>
      <point x="71" y="460" type="line"/>
      <point x="180" y="460" type="line"/>
      <point x="180" y="0" type="line"/>
      <point x="71" y="0" type="line"/>
    </contour>
    <contour>
      <point x="147" y="212" type="line"/>
      <point x="147" y="294" type="line"/>
      <point x="290" y="294" type="line" smooth="yes"/>
      <point x="385" y="294"/>
      <point x="458" y="250"/>
      <point x="458" y="151" type="curve" smooth="yes"/>
      <point x="458" y="52"/>
      <point x="385" y="0"/>
      <point x="290" y="0" type="curve" smooth="yes"/>
      <point x="147" y="0" type="line"/>
      <point x="147" y="89" type="line"/>
      <point x="279" y="89" type="line" smooth="yes"/>
      <point x="327" y="89"/>
      <point x="353" y="113"/>
      <point x="353" y="151" type="curve" smooth="yes"/>
      <point x="353" y="189"/>
      <point x="327" y="212"/>
      <point x="279" y="212" type="curve" smooth="yes"/>
    </contour>
  </outline>
</glyph>
<glyph name="uni044D" format="2">
  <advance width="484"/>
  <unicode hex="044D"/>
  <outline>
    <contour>
      <point x="127" y="272" type="line"/>
      <point x="425" y="272" type="line"/>
      <point x="372" y="188" type="line"/>
      <point x="127" y="188" type="line"/>
    </contour>
    <contour>
      <point x="343" y="230" type="curve" smooth="yes"/>
      <point x="343" y="322"/>
      <point x="281" y="384"/>
      <point x="200" y="384" type="curve" smooth="yes"/>
      <point x="136" y="384"/>
      <point x="73" y="352"/>
      <point x="50" y="307" type="curve"/>
      <point x="50" y="419" type="line"/>
      <point x="82" y="450"/>
      <point x="140" y="470"/>
      <point x="205" y="470" type="curve" smooth="yes"/>
      <point x="348" y="470"/>
      <point x="454" y="371"/>
      <point x="454" y="230" type="curve" smooth="yes"/>
      <point x="454" y="89"/>
      <point x="348" y="-10"/>
      <point x="205" y="-10" type="curve" smooth="yes"/>
      <point x="140" y="-10"/>
      <point x="82" y="9"/>
      <point x="50" y="42" type="curve"/>
      <point x="50" y="153" type="line"/>
      <point x="73" y="108"/>
      <point x="134" y="76"/>
      <point x="200" y="76" type="curve" smooth="yes"/>
      <point x="281" y="76"/>
      <point x="343" y="135"/>
    </contour>
  </outline>
</glyph>
<glyph name="uni045C" format="2">
  <advance width="440"/>
  <unicode hex="045C"/>
  <outline>
    <contour>
      <point x="65" y="460" type="line"/>
      <point x="171" y="460" type="line"/>
      <point x="171" y="0" type="line"/>
      <point x="65" y="0" type="line"/>
    </contour>
    <contour>
      <point x="340" y="460" type="line"/>
      <point x="472" y="460" type="line"/>
      <point x="274" y="270" type="line"/>
      <point x="492" y="0" type="line"/>
      <point x="361" y="0" type="line"/>
      <point x="142" y="270" type="line"/>
    </contour>
    <contour>
      <point x="449" y="680" type="line"/>
      <point x="269" y="530" type="line"/>
      <point x="208" y="565" type="line"/>
      <point x="358" y="725" type="line"/>
    </contour>
  </outline>
</glyph>
<glyph name="uni045D" format="2">
  <advance width="563"/>
  <unicode hex="045D"/>
  <outline>
    <contour>
      <point x="486" y="360" type="line"/>
      <point x="72" y="-35" type="line"/>
      <point x="77" y="100" type="line"/>
      <point x="491" y="495" type="line"/>
    </contour>
    <contour>
      <point x="179" y="460" type="line"/>
      <point x="179" y="87" type="line"/>
      <point x="72" y="-35" type="line"/>
      <point x="72" y="460" type="line"/>
    </contour>
    <contour>
      <point x="491" y="495" type="line"/>
      <point x="491" y="0" type="line"/>
      <point x="385" y="0" type="line"/>
      <point x="385" y="373" type="line"/>
    </contour>
    <contour>
      <point x="121" y="705" type="line"/>
      <point x="212" y="750" type="line"/>
      <point x="362" y="590" type="line"/>
      <point x="301" y="555" type="line"/>
    </contour>
  </outline>
</glyph>
<glyph name="uni045E" format="2">
  <advance width="440"/>
  <unicode hex="045E"/>
  <outline>
    <contour>
      <point x="476" y="460" type="line"/>
      <point x="176" y="-220" type="line"/>
      <point x="61" y="-220" type="line"/>
      <point x="182" y="54" type="line"/>
      <point x="-4" y="460" type="line"/>
      <point x="120" y="460" type="line"/>
      <point x="267" y="96" type="line"/>
      <point x="216" y="99" type="line"/>
      <point x="360" y="460" type="line"/>
    </contour>
    <contour>
      <point x="76" y="673" type="curve"/>
      <point x="158" y="673" type="line"/>
      <point x="158" y="643"/>
      <point x="178" y="604"/>
      <point x="236" y="604" type="curve" smooth="yes"/>
      <point x="294" y="604"/>
      <point x="315" y="643"/>
      <point x="315" y="673" type="curve"/>
      <point x="397" y="673" type="line"/>
      <point x="397" y="599"/>
      <point x="341" y="530"/>
      <point x="236" y="530" type="curve" smooth="yes"/>
      <point x="131" y="530"/>
      <point x="76" y="599"/>
    </contour>
  </outline>
</glyph>
